hh.sfdir
StartChar: exclam
Encoding: 33 33 4
Width: 569
Flags: W
LayerCount: 2
Fore
SplineSet
231 364 m 1,0,-1
 176 1141 l 1,1,-1
 176 1466 l 1,2,-1
 399 1466 l 1,3,-1
 399 1141 l 1,4,-1
 347 364 l 1,5,-1
 231 364 l 1,0,-1
184 0 m 1,6,-1
 184 205 l 1,7,-1
 391 205 l 1,8,-1
 391 0 l 1,9,-1
 184 0 l 1,6,-1
EndSplineSet
EndChar
StartChar: quotedbl
Encoding: 34 34 5
Width: 727
Flags: W
LayerCount: 2
Fore
SplineSet
144 947 m 1,0,-1
 94 1226 l 1,1,-1
 94 1466 l 1,2,-1
 299 1466 l 1,3,-1
 299 1226 l 1,4,-1
 254 947 l 1,5,-1
 144 947 l 1,0,-1
475 947 m 1,6,-1
 426 1226 l 1,7,-1
 426 1466 l 1,8,-1
 631 1466 l 1,9,-1
 631 1226 l 1,10,-1
 583 947 l 1,11,-1
 475 947 l 1,6,-1
EndSplineSet
EndChar
StartChar: numbersign
Encoding: 35 35 6
Width: 1139
Flags: W
LayerCount: 2
Fore
SplineSet
103 -25 m 1,0,-1
 190 401 l 1,1,-1
 21 401 l 1,2,-1
 21 550 l 1,3,-1
 220 550 l 1,4,-1
 294 913 l 1,5,-1
 21 913 l 1,6,-1
 21 1062 l 1,7,-1
 324 1062 l 1,8,-1
 411 1491 l 1,9,-1
 561 1491 l 1,10,-1
 474 1062 l 1,11,-1
 789 1062 l 1,12,-1
 876 1491 l 1,13,-1
 1027 1491 l 1,14,-1
 940 1062 l 1,15,-1
 1113 1062 l 1,16,-1
 1113 913 l 1,17,-1
 910 913 l 1,18,-1
 835 550 l 1,19,-1
 1113 550 l 1,20,-1
 1113 401 l 1,21,-1
 805 401 l 1,22,-1
 718 -25 l 1,23,-1
 568 -25 l 1,24,-1
 654 401 l 1,25,-1
 340 401 l 1,26,-1
 253 -25 l 1,27,-1
 103 -25 l 1,0,-1
370 550 m 1,28,-1
 684 550 l 1,29,-1
 759 913 l 1,30,-1
 444 913 l 1,31,-1
 370 550 l 1,28,-1
EndSplineSet
EndChar
StartChar: dollar
Encoding: 36 36 7
Width: 1139
Flags: W
LayerCount: 2
Fore
SplineSet
510 -211 m 1,0,-1
 510 -31 l 1,1,2
 375 -14 375 -14 290.5 29.5 c 128,-1,3
 206 73 206 73 144.5 170 c 128,-1,4
 83 267 83 267 73 407 c 1,5,-1
 254 441 l 1,6,7
 275 296 275 296 328 228 c 0,8,9
 404 132 404 132 510 121 c 1,10,-1
 510 694 l 1,11,12
 399 715 399 715 283 780 c 0,13,14
 197 828 197 828 150.5 913 c 128,-1,15
 104 998 104 998 104 1106 c 0,16,17
 104 1298 104 1298 240 1417 c 0,18,19
 331 1497 331 1497 510 1515 c 1,20,-1
 510 1601 l 1,21,-1
 616 1601 l 1,22,-1
 616 1515 l 1,23,24
 773 1500 773 1500 865 1423 c 0,25,26
 983 1325 983 1325 1007 1154 c 1,27,-1
 821 1126 l 1,28,29
 805 1232 805 1232 754.5 1288.5 c 128,-1,30
 704 1345 704 1345 616 1363 c 1,31,-1
 616 844 l 1,32,33
 752 810 752 810 796 791 c 0,34,35
 880 754 880 754 933 701 c 128,-1,36
 986 648 986 648 1014.5 575 c 128,-1,37
 1043 502 1043 502 1043 417 c 0,38,39
 1043 230 1043 230 924 105 c 128,-1,40
 805 -20 805 -20 616 -29 c 1,41,-1
 616 -211 l 1,42,-1
 510 -211 l 1,0,-1
510 1365 m 1,43,44
 405 1349 405 1349 344.5 1281 c 128,-1,45
 284 1213 284 1213 284 1120 c 0,46,47
 284 1028 284 1028 335.5 966 c 128,-1,48
 387 904 387 904 510 867 c 1,49,-1
 510 1365 l 1,43,44
616 121 m 1,50,51
 721 134 721 134 789.5 212 c 128,-1,52
 858 290 858 290 858 405 c 0,53,54
 858 503 858 503 809.5 562.5 c 128,-1,55
 761 622 761 622 616 669 c 1,56,-1
 616 121 l 1,50,51
EndSplineSet
EndChar
StartChar: percent
Encoding: 37 37 8
Width: 1821
Flags: W
LayerCount: 2
Fore
SplineSet
119 1114 m 0,0,1
 119 1271 119 1271 198 1381 c 128,-1,2
 277 1491 277 1491 427 1491 c 0,3,4
 565 1491 565 1491 655.5 1392.5 c 128,-1,5
 746 1294 746 1294 746 1103 c 0,6,7
 746 917 746 917 654.5 816.5 c 128,-1,8
 563 716 563 716 429 716 c 0,9,10
 296 716 296 716 207.5 815 c 128,-1,11
 119 914 119 914 119 1114 c 0,0,1
432 1367 m 256,12,13
 365 1367 365 1367 320.5 1309 c 128,-1,14
 276 1251 276 1251 276 1096 c 0,15,16
 276 955 276 955 321 897.5 c 128,-1,17
 366 840 366 840 432 840 c 0,18,19
 500 840 500 840 544.5 898 c 128,-1,20
 589 956 589 956 589 1110 c 0,21,22
 589 1252 589 1252 544 1309.5 c 128,-1,23
 499 1367 499 1367 432 1367 c 256,12,13
433 -54 m 1,24,-1
 1235 1491 l 1,25,-1
 1381 1491 l 1,26,-1
 582 -54 l 1,27,-1
 433 -54 l 1,24,-1
1067 344 m 0,28,29
 1067 502 1067 502 1146 611.5 c 128,-1,30
 1225 721 1225 721 1376 721 c 0,31,32
 1514 721 1514 721 1604.5 622.5 c 128,-1,33
 1695 524 1695 524 1695 333 c 0,34,35
 1695 147 1695 147 1603.5 46.5 c 128,-1,36
 1512 -54 1512 -54 1377 -54 c 0,37,38
 1244 -54 1244 -54 1155.5 45.5 c 128,-1,39
 1067 145 1067 145 1067 344 c 0,28,29
1381 597 m 0,40,41
 1313 597 1313 597 1268.5 539 c 128,-1,42
 1224 481 1224 481 1224 326 c 0,43,44
 1224 186 1224 186 1269 128 c 128,-1,45
 1314 70 1314 70 1380 70 c 0,46,47
 1449 70 1449 70 1493.5 128 c 128,-1,48
 1538 186 1538 186 1538 340 c 0,49,50
 1538 482 1538 482 1493 539.5 c 128,-1,51
 1448 597 1448 597 1381 597 c 0,40,41
EndSplineSet
EndChar
StartChar: ampersand
Encoding: 38 38 9
Width: 1366
Flags: W
LayerCount: 2
Fore
SplineSet
973 173 m 1,0,1
 884 74 884 74 779 24.5 c 128,-1,2
 674 -25 674 -25 552 -25 c 0,3,4
 327 -25 327 -25 195 127 c 0,5,6
 88 251 88 251 88 404 c 0,7,8
 88 540 88 540 175.5 649.5 c 128,-1,9
 263 759 263 759 437 842 c 1,10,11
 338 956 338 956 305 1027 c 128,-1,12
 272 1098 272 1098 272 1164 c 0,13,14
 272 1296 272 1296 375.5 1393.5 c 128,-1,15
 479 1491 479 1491 636 1491 c 0,16,17
 786 1491 786 1491 881.5 1399 c 128,-1,18
 977 1307 977 1307 977 1178 c 0,19,20
 977 969 977 969 700 821 c 1,21,-1
 963 486 l 1,22,23
 1008 574 1008 574 1033 690 c 1,24,-1
 1220 650 l 1,25,26
 1172 458 1172 458 1090 334 c 1,27,28
 1191 200 1191 200 1319 109 c 1,29,-1
 1198 -34 l 1,30,31
 1089 36 1089 36 973 173 c 1,0,1
607 937 m 1,32,33
 724 1006 724 1006 758.5 1058 c 128,-1,34
 793 1110 793 1110 793 1173 c 0,35,36
 793 1248 793 1248 745.5 1295.5 c 128,-1,37
 698 1343 698 1343 627 1343 c 0,38,39
 554 1343 554 1343 505.5 1296 c 128,-1,40
 457 1249 457 1249 457 1181 c 0,41,42
 457 1147 457 1147 474.5 1109.5 c 128,-1,43
 492 1072 492 1072 527 1030 c 2,44,-1
 607 937 l 1,32,33
860 315 m 1,45,-1
 530 724 l 1,46,47
 384 637 384 637 333 562.5 c 128,-1,48
 282 488 282 488 282 415 c 0,49,50
 282 326 282 326 353 230 c 128,-1,51
 424 134 424 134 554 134 c 0,52,53
 635 134 635 134 721.5 184.5 c 128,-1,54
 808 235 808 235 860 315 c 1,45,-1
EndSplineSet
EndChar
StartChar: quotesingle
Encoding: 39 39 10
Width: 391
Flags: W
LayerCount: 2
Fore
SplineSet
136 947 m 1,0,-1
 90 1221 l 1,1,-1
 90 1466 l 1,2,-1
 295 1466 l 1,3,-1
 295 1221 l 1,4,-1
 247 947 l 1,5,-1
 136 947 l 1,0,-1
EndSplineSet
EndChar
StartChar: parenleft
Encoding: 40 40 11
Width: 682
Flags: W
LayerCount: 2
Fore
SplineSet
479 -431 m 1,0,1
 330 -243 330 -243 227 9 c 128,-1,2
 124 261 124 261 124 531 c 0,3,4
 124 769 124 769 201 987 c 0,5,6
 291 1240 291 1240 479 1491 c 1,7,-1
 608 1491 l 1,8,9
 487 1283 487 1283 448 1194 c 0,10,11
 387 1056 387 1056 352 906 c 0,12,13
 309 719 309 719 309 530 c 0,14,15
 309 49 309 49 608 -431 c 1,16,-1
 479 -431 l 1,0,1
EndSplineSet
EndChar
StartChar: parenright
Encoding: 41 41 12
Width: 682
Flags: W
LayerCount: 2
Fore
SplineSet
253 -431 m 1,0,-1
 124 -431 l 1,1,2
 423 49 423 49 423 530 c 0,3,4
 423 718 423 718 380 903 c 0,5,6
 346 1053 346 1053 285 1191 c 0,7,8
 246 1281 246 1281 124 1491 c 1,9,-1
 253 1491 l 1,10,11
 441 1240 441 1240 531 987 c 0,12,13
 608 769 608 769 608 531 c 0,14,15
 608 261 608 261 504.5 9 c 128,-1,16
 401 -243 401 -243 253 -431 c 1,0,-1
EndSplineSet
EndChar
StartChar: asterisk
Encoding: 42 42 13
Width: 797
Flags: W
LayerCount: 2
Fore
SplineSet
64 1197 m 1,0,-1
 110 1339 l 1,1,2
 269 1283 269 1283 341 1242 c 1,3,4
 322 1423 322 1423 321 1491 c 1,5,-1
 466 1491 l 1,6,7
 463 1392 463 1392 443 1243 c 1,8,9
 546 1295 546 1295 679 1339 c 1,10,-1
 725 1197 l 1,11,12
 598 1155 598 1155 476 1141 c 1,13,14
 537 1088 537 1088 648 952 c 1,15,-1
 528 867 l 1,16,17
 470 946 470 946 391 1082 c 1,18,19
 317 941 317 941 261 867 c 1,20,-1
 143 952 l 1,21,22
 259 1095 259 1095 309 1141 c 1,23,24
 180 1166 180 1166 64 1197 c 1,0,-1
EndSplineSet
EndChar
StartChar: plus
Encoding: 43 43 14
Width: 1196
Flags: W
LayerCount: 2
Fore
SplineSet
513 237 m 1,0,-1
 513 639 l 1,1,-1
 114 639 l 1,2,-1
 114 807 l 1,3,-1
 513 807 l 1,4,-1
 513 1206 l 1,5,-1
 683 1206 l 1,6,-1
 683 807 l 1,7,-1
 1082 807 l 1,8,-1
 1082 639 l 1,9,-1
 683 639 l 1,10,-1
 683 237 l 1,11,-1
 513 237 l 1,0,-1
EndSplineSet
EndChar
StartChar: comma
Encoding: 44 44 15
Width: 569
Flags: W
LayerCount: 2
Fore
SplineSet
182 0 m 1,0,-1
 182 205 l 1,1,-1
 387 205 l 1,2,-1
 387 0 l 2,3,4
 387 -113 387 -113 347 -182.5 c 128,-1,5
 307 -252 307 -252 220 -290 c 1,6,-1
 170 -213 l 1,7,8
 227 -188 227 -188 254 -139.5 c 128,-1,9
 281 -91 281 -91 284 0 c 1,10,-1
 182 0 l 1,0,-1
EndSplineSet
EndChar
StartChar: hyphen
Encoding: 45 45 16
AltUni2: 0000ad.ffffffff.0
Width: 682
Flags: W
LayerCount: 2
Fore
SplineSet
65 440 m 1,0,-1
 65 621 l 1,1,-1
 618 621 l 1,2,-1
 618 440 l 1,3,-1
 65 440 l 1,0,-1
EndSplineSet
EndChar
StartChar: period
Encoding: 46 46 17
Width: 569
Flags: W
LayerCount: 2
Fore
SplineSet
186 0 m 1,0,-1
 186 205 l 1,1,-1
 391 205 l 1,2,-1
 391 0 l 1,3,-1
 186 0 l 1,0,-1
EndSplineSet
EndChar
StartChar: slash
Encoding: 47 47 18
Width: 569
Flags: W
LayerCount: 2
Fore
SplineSet
0 -25 m 1,0,-1
 425 1491 l 1,1,-1
 569 1491 l 1,2,-1
 145 -25 l 1,3,-1
 0 -25 l 1,0,-1
EndSplineSet
EndChar
StartChar: zero
Encoding: 48 48 19
Width: 1139
Flags: W
LayerCount: 2
Fore
SplineSet
85 723 m 0,0,1
 85 983 85 983 138.5 1141.5 c 128,-1,2
 192 1300 192 1300 297.5 1386 c 128,-1,3
 403 1472 403 1472 563 1472 c 0,4,5
 681 1472 681 1472 770 1424.5 c 128,-1,6
 859 1377 859 1377 917 1287.5 c 128,-1,7
 975 1198 975 1198 1008 1069.5 c 128,-1,8
 1041 941 1041 941 1041 723 c 0,9,10
 1041 465 1041 465 988 306.5 c 128,-1,11
 935 148 935 148 829.5 61.5 c 128,-1,12
 724 -25 724 -25 563 -25 c 0,13,14
 351 -25 351 -25 230 127 c 0,15,16
 85 310 85 310 85 723 c 0,0,1
270 723 m 256,17,18
 270 362 270 362 354.5 242.5 c 128,-1,19
 439 123 439 123 563 123 c 256,20,21
 687 123 687 123 771.5 243 c 128,-1,22
 856 363 856 363 856 723 c 0,23,24
 856 1085 856 1085 771.5 1204 c 128,-1,25
 687 1323 687 1323 561 1323 c 0,26,27
 437 1323 437 1323 363 1218 c 0,28,29
 270 1084 270 1084 270 723 c 256,17,18
EndSplineSet
EndChar
StartChar: one
Encoding: 49 49 20
Width: 1139
Flags: W
LayerCount: 2
Fore
SplineSet
763 0 m 1,0,-1
 583 0 l 1,1,-1
 583 1147 l 1,2,3
 518 1085 518 1085 412.5 1023 c 128,-1,4
 307 961 307 961 223 930 c 1,5,-1
 223 1104 l 1,6,7
 374 1175 374 1175 487 1276 c 128,-1,8
 600 1377 600 1377 647 1472 c 1,9,-1
 763 1472 l 1,10,-1
 763 0 l 1,0,-1
EndSplineSet
EndChar
StartChar: two
Encoding: 50 50 21
Width: 1139
Flags: W
LayerCount: 2
Fore
SplineSet
1031 173 m 1,0,-1
 1031 0 l 1,1,-1
 62 0 l 1,2,3
 60 65 60 65 83 125 c 0,4,5
 120 224 120 224 201.5 320 c 128,-1,6
 283 416 283 416 437 542 c 0,7,8
 676 738 676 738 760 852.5 c 128,-1,9
 844 967 844 967 844 1069 c 0,10,11
 844 1176 844 1176 767.5 1249.5 c 128,-1,12
 691 1323 691 1323 568 1323 c 0,13,14
 438 1323 438 1323 360 1245 c 128,-1,15
 282 1167 282 1167 281 1029 c 1,16,-1
 96 1048 l 1,17,18
 115 1255 115 1255 239 1363.5 c 128,-1,19
 363 1472 363 1472 572 1472 c 0,20,21
 783 1472 783 1472 906 1355 c 128,-1,22
 1029 1238 1029 1238 1029 1065 c 0,23,24
 1029 977 1029 977 993 892 c 128,-1,25
 957 807 957 807 873.5 713 c 128,-1,26
 790 619 790 619 596 455 c 0,27,28
 434 319 434 319 388 270.5 c 128,-1,29
 342 222 342 222 312 173 c 1,30,-1
 1031 173 l 1,0,-1
EndSplineSet
EndChar
StartChar: three
Encoding: 51 51 22
Width: 1139
Flags: W
LayerCount: 2
Fore
SplineSet
86 387 m 1,0,-1
 266 411 l 1,1,2
 297 258 297 258 371.5 190.5 c 128,-1,3
 446 123 446 123 553 123 c 0,4,5
 680 123 680 123 767.5 211 c 128,-1,6
 855 299 855 299 855 429 c 0,7,8
 855 553 855 553 774 633.5 c 128,-1,9
 693 714 693 714 568 714 c 0,10,11
 517 714 517 714 441 694 c 1,12,-1
 461 852 l 1,13,14
 479 850 479 850 490 850 c 0,15,16
 605 850 605 850 697 910 c 128,-1,17
 789 970 789 970 789 1095 c 0,18,19
 789 1194 789 1194 722 1259 c 128,-1,20
 655 1324 655 1324 549 1324 c 0,21,22
 444 1324 444 1324 374 1258 c 128,-1,23
 304 1192 304 1192 284 1060 c 1,24,-1
 104 1092 l 1,25,26
 137 1273 137 1273 254 1372.5 c 128,-1,27
 371 1472 371 1472 545 1472 c 0,28,29
 665 1472 665 1472 766 1420.5 c 128,-1,30
 867 1369 867 1369 920.5 1280 c 128,-1,31
 974 1191 974 1191 974 1091 c 0,32,33
 974 996 974 996 923 918 c 128,-1,34
 872 840 872 840 772 794 c 1,35,36
 902 764 902 764 974 669.5 c 128,-1,37
 1046 575 1046 575 1046 433 c 0,38,39
 1046 241 1046 241 906 107.5 c 128,-1,40
 766 -26 766 -26 552 -26 c 0,41,42
 359 -26 359 -26 231.5 89 c 128,-1,43
 104 204 104 204 86 387 c 1,0,-1
EndSplineSet
EndChar
StartChar: four
Encoding: 52 52 23
Width: 1139
Flags: W
LayerCount: 2
Fore
SplineSet
662 0 m 1,0,-1
 662 351 l 1,1,-1
 26 351 l 1,2,-1
 26 516 l 1,3,-1
 695 1466 l 1,4,-1
 842 1466 l 1,5,-1
 842 516 l 1,6,-1
 1040 516 l 1,7,-1
 1040 351 l 1,8,-1
 842 351 l 1,9,-1
 842 0 l 1,10,-1
 662 0 l 1,0,-1
662 516 m 1,11,-1
 662 1177 l 1,12,-1
 203 516 l 1,13,-1
 662 516 l 1,11,-1
EndSplineSet
EndChar
StartChar: five
Encoding: 53 53 24
Width: 1139
Flags: W
LayerCount: 2
Fore
SplineSet
85 384 m 1,0,-1
 274 400 l 1,1,2
 295 262 295 262 371.5 192.5 c 128,-1,3
 448 123 448 123 556 123 c 0,4,5
 686 123 686 123 776 221 c 128,-1,6
 866 319 866 319 866 481 c 0,7,8
 866 635 866 635 779.5 724 c 128,-1,9
 693 813 693 813 553 813 c 0,10,11
 466 813 466 813 396 773.5 c 128,-1,12
 326 734 326 734 286 671 c 1,13,-1
 117 693 l 1,14,-1
 259 1446 l 1,15,-1
 988 1446 l 1,16,-1
 988 1274 l 1,17,-1
 403 1274 l 1,18,-1
 324 880 l 1,19,20
 456 972 456 972 601 972 c 0,21,22
 793 972 793 972 925 839 c 128,-1,23
 1057 706 1057 706 1057 497 c 0,24,25
 1057 298 1057 298 941 153 c 0,26,27
 800 -25 800 -25 556 -25 c 0,28,29
 356 -25 356 -25 229.5 87 c 128,-1,30
 103 199 103 199 85 384 c 1,0,-1
EndSplineSet
EndChar
StartChar: six
Encoding: 54 54 25
Width: 1139
Flags: W
LayerCount: 2
Fore
SplineSet
1019 1107 m 1,0,-1
 840 1093 l 1,1,2
 816 1199 816 1199 772 1247 c 0,3,4
 699 1324 699 1324 592 1324 c 0,5,6
 506 1324 506 1324 441 1276 c 0,7,8
 356 1214 356 1214 307 1095 c 128,-1,9
 258 976 258 976 256 756 c 1,10,11
 321 855 321 855 415 903 c 128,-1,12
 509 951 509 951 612 951 c 0,13,14
 792 951 792 951 918.5 818.5 c 128,-1,15
 1045 686 1045 686 1045 476 c 0,16,17
 1045 338 1045 338 985.5 219.5 c 128,-1,18
 926 101 926 101 822 38 c 128,-1,19
 718 -25 718 -25 586 -25 c 0,20,21
 361 -25 361 -25 219 140.5 c 128,-1,22
 77 306 77 306 77 686 c 0,23,24
 77 1111 77 1111 234 1304 c 0,25,26
 371 1472 371 1472 603 1472 c 0,27,28
 776 1472 776 1472 886.5 1375 c 128,-1,29
 997 1278 997 1278 1019 1107 c 1,0,-1
284 475 m 0,30,31
 284 382 284 382 323.5 297 c 128,-1,32
 363 212 363 212 434 167.5 c 128,-1,33
 505 123 505 123 583 123 c 0,34,35
 697 123 697 123 779 215 c 128,-1,36
 861 307 861 307 861 465 c 0,37,38
 861 617 861 617 780 704.5 c 128,-1,39
 699 792 699 792 576 792 c 0,40,41
 454 792 454 792 369 704.5 c 128,-1,42
 284 617 284 617 284 475 c 0,30,31
EndSplineSet
EndChar
StartChar: seven
Encoding: 55 55 26
Width: 1139
Flags: W
LayerCount: 2
Fore
SplineSet
97 1274 m 1,0,-1
 97 1447 l 1,1,-1
 1046 1447 l 1,2,-1
 1046 1307 l 1,3,4
 906 1158 906 1158 768.5 911 c 128,-1,5
 631 664 631 664 556 403 c 0,6,7
 502 219 502 219 487 0 c 1,8,-1
 302 0 l 1,9,10
 305 173 305 173 370 418 c 128,-1,11
 435 663 435 663 556.5 890.5 c 128,-1,12
 678 1118 678 1118 815 1274 c 1,13,-1
 97 1274 l 1,0,-1
EndSplineSet
EndChar
StartChar: eight
Encoding: 56 56 27
Width: 1139
Flags: W
LayerCount: 2
Fore
SplineSet
362 795 m 1,0,1
 250 836 250 836 196 912 c 128,-1,2
 142 988 142 988 142 1094 c 0,3,4
 142 1254 142 1254 257 1363 c 128,-1,5
 372 1472 372 1472 563 1472 c 0,6,7
 755 1472 755 1472 872 1360.5 c 128,-1,8
 989 1249 989 1249 989 1089 c 0,9,10
 989 987 989 987 935.5 911.5 c 128,-1,11
 882 836 882 836 773 795 c 1,12,13
 908 751 908 751 978.5 653 c 128,-1,14
 1049 555 1049 555 1049 419 c 0,15,16
 1049 231 1049 231 916 103 c 128,-1,17
 783 -25 783 -25 566 -25 c 256,18,19
 349 -25 349 -25 216 103.5 c 128,-1,20
 83 232 83 232 83 424 c 0,21,22
 83 567 83 567 155.5 663.5 c 128,-1,23
 228 760 228 760 362 795 c 1,0,1
326 1100 m 0,24,25
 326 996 326 996 393 930 c 128,-1,26
 460 864 460 864 567 864 c 0,27,28
 671 864 671 864 737.5 929.5 c 128,-1,29
 804 995 804 995 804 1090 c 0,30,31
 804 1189 804 1189 735.5 1256.5 c 128,-1,32
 667 1324 667 1324 565 1324 c 0,33,34
 462 1324 462 1324 394 1258 c 128,-1,35
 326 1192 326 1192 326 1100 c 0,24,25
268 423 m 0,36,37
 268 346 268 346 304.5 274 c 128,-1,38
 341 202 341 202 413 162.5 c 128,-1,39
 485 123 485 123 568 123 c 0,40,41
 697 123 697 123 781 206 c 128,-1,42
 865 289 865 289 865 417 c 0,43,44
 865 547 865 547 778.5 632 c 128,-1,45
 692 717 692 717 562 717 c 0,46,47
 435 717 435 717 351.5 633 c 128,-1,48
 268 549 268 549 268 423 c 0,36,37
EndSplineSet
EndChar
StartChar: nine
Encoding: 57 57 28
Width: 1139
Flags: W
LayerCount: 2
Fore
SplineSet
112 339 m 1,0,-1
 285 355 l 1,1,2
 307 233 307 233 369 178 c 128,-1,3
 431 123 431 123 528 123 c 0,4,5
 611 123 611 123 673.5 161 c 128,-1,6
 736 199 736 199 776 262.5 c 128,-1,7
 816 326 816 326 843 434 c 128,-1,8
 870 542 870 542 870 654 c 0,9,10
 870 666 870 666 869 690 c 1,11,12
 815 604 815 604 721.5 550.5 c 128,-1,13
 628 497 628 497 519 497 c 0,14,15
 337 497 337 497 211 629 c 128,-1,16
 85 761 85 761 85 977 c 0,17,18
 85 1200 85 1200 216.5 1336 c 128,-1,19
 348 1472 348 1472 546 1472 c 0,20,21
 689 1472 689 1472 807.5 1395 c 128,-1,22
 926 1318 926 1318 987.5 1175.5 c 128,-1,23
 1049 1033 1049 1033 1049 763 c 0,24,25
 1049 482 1049 482 988 315.5 c 128,-1,26
 927 149 927 149 806.5 62 c 128,-1,27
 686 -25 686 -25 524 -25 c 0,28,29
 352 -25 352 -25 243 70.5 c 128,-1,30
 134 166 134 166 112 339 c 1,0,-1
849 986 m 256,31,32
 849 1141 849 1141 766.5 1232 c 128,-1,33
 684 1323 684 1323 568 1323 c 0,34,35
 448 1323 448 1323 359 1225 c 128,-1,36
 270 1127 270 1127 270 971 c 0,37,38
 270 831 270 831 354.5 743.5 c 128,-1,39
 439 656 439 656 563 656 c 0,40,41
 688 656 688 656 768.5 743.5 c 128,-1,42
 849 831 849 831 849 986 c 256,31,32
EndSplineSet
EndChar
StartChar: colon
Encoding: 58 58 29
Width: 569
Flags: W
LayerCount: 2
Fore
SplineSet
185 857 m 1,0,-1
 185 1062 l 1,1,-1
 390 1062 l 1,2,-1
 390 857 l 1,3,-1
 185 857 l 1,0,-1
185 0 m 1,4,-1
 185 205 l 1,5,-1
 390 205 l 1,6,-1
 390 0 l 1,7,-1
 185 0 l 1,4,-1
EndSplineSet
EndChar
StartChar: semicolon
Encoding: 59 59 30
AltUni2: 00037e.ffffffff.0
Width: 569
Flags: W
LayerCount: 2
Fore
SplineSet
182 857 m 1,0,-1
 182 1062 l 1,1,-1
 387 1062 l 1,2,-1
 387 857 l 1,3,-1
 182 857 l 1,0,-1
182 0 m 1,4,-1
 182 205 l 1,5,-1
 387 205 l 1,6,-1
 387 0 l 2,7,8
 387 -113 387 -113 347 -182.5 c 128,-1,9
 307 -252 307 -252 220 -290 c 1,10,-1
 170 -213 l 1,11,12
 227 -188 227 -188 254 -139.5 c 128,-1,13
 281 -91 281 -91 284 0 c 1,14,-1
 182 0 l 1,4,-1
EndSplineSet
EndChar
StartChar: less
Encoding: 60 60 31
Width: 1196
Flags: W
LayerCount: 2
Fore
SplineSet
112 641 m 1,0,-1
 112 809 l 1,1,-1
 1083 1219 l 1,2,-1
 1083 1040 l 1,3,-1
 313 724 l 1,4,-1
 1083 405 l 1,5,-1
 1083 226 l 1,6,-1
 112 641 l 1,0,-1
EndSplineSet
EndChar
StartChar: equal
Encoding: 61 61 32
Width: 1196
Flags: W
LayerCount: 2
Fore
SplineSet
1082 862 m 1,0,-1
 114 862 l 1,1,-1
 114 1030 l 1,2,-1
 1082 1030 l 1,3,-1
 1082 862 l 1,0,-1
1082 417 m 1,4,-1
 114 417 l 1,5,-1
 114 585 l 1,6,-1
 1082 585 l 1,7,-1
 1082 417 l 1,4,-1
EndSplineSet
EndChar
StartChar: greater
Encoding: 62 62 33
Width: 1196
Flags: W
LayerCount: 2
Fore
SplineSet
1083 641 m 1,0,-1
 112 226 l 1,1,-1
 112 405 l 1,2,-1
 881 724 l 1,3,-1
 112 1040 l 1,4,-1
 112 1219 l 1,5,-1
 1083 809 l 1,6,-1
 1083 641 l 1,0,-1
EndSplineSet
EndChar
StartChar: question
Encoding: 63 63 34
Width: 1139
Flags: W
LayerCount: 2
Fore
SplineSet
472 361 m 1,0,1
 471 397 471 397 471 415 c 0,2,3
 471 521 471 521 501 598 c 0,4,5
 523 656 523 656 572 715 c 0,6,7
 608 758 608 758 701.5 840.5 c 128,-1,8
 795 923 795 923 823 972 c 128,-1,9
 851 1021 851 1021 851 1079 c 0,10,11
 851 1184 851 1184 769 1263.5 c 128,-1,12
 687 1343 687 1343 568 1343 c 0,13,14
 453 1343 453 1343 376 1271 c 128,-1,15
 299 1199 299 1199 275 1046 c 1,16,-1
 90 1068 l 1,17,18
 115 1273 115 1273 238.5 1382 c 128,-1,19
 362 1491 362 1491 565 1491 c 0,20,21
 780 1491 780 1491 908 1374 c 128,-1,22
 1036 1257 1036 1257 1036 1091 c 0,23,24
 1036 995 1036 995 991 914 c 128,-1,25
 946 833 946 833 815 717 c 0,26,27
 727 639 727 639 700 602 c 128,-1,28
 673 565 673 565 660 517 c 128,-1,29
 647 469 647 469 645 361 c 1,30,-1
 472 361 l 1,0,1
461 0 m 1,31,-1
 461 205 l 1,32,-1
 666 205 l 1,33,-1
 666 0 l 1,34,-1
 461 0 l 1,31,-1
EndSplineSet
EndChar
StartChar: at
Encoding: 64 64 35
Width: 2079
Flags: W
LayerCount: 2
Fore
SplineSet
1161 163 m 1,0,1
 1096 88 1096 88 1015.5 42.5 c 128,-1,2
 935 -3 935 -3 854 -3 c 0,3,4
 765 -3 765 -3 681 49 c 128,-1,5
 597 101 597 101 544.5 209 c 128,-1,6
 492 317 492 317 492 446 c 0,7,8
 492 605 492 605 573.5 764.5 c 128,-1,9
 655 924 655 924 768 1021.5 c 132,-1,10
 881 1119 881 1119 1011 1084 c 0,11,12
 1131.84047267 1064.50960118 1131.84047267 1064.50960118 1177 1038.5 c 0,13,14
 1256 993 1256 993 1313 900 c 1,15,-1
 1347 1055 l 1,16,-1
 1526 1055 l 1,17,-1
 1382 384 l 2,18,19
 1352 244 1352 244 1352 229 c 0,20,21
 1352 202 1352 202 1372.5 182.5 c 128,-1,22
 1393 163 1393 163 1422 163 c 0,23,24
 1475 163 1475 163 1561 224 c 0,25,26
 1675 304 1675 304 1741.5 438.5 c 128,-1,27
 1808 573 1808 573 1808 716 c 0,28,29
 1808 883 1808 883 1722.5 1028 c 128,-1,30
 1637 1173 1637 1173 1467.5 1260 c 128,-1,31
 1298 1347 1298 1347 1093 1347 c 0,32,33
 859 1347 859 1347 665.5 1237.5 c 128,-1,34
 472 1128 472 1128 365.5 923.5 c 128,-1,35
 259 719 259 719 259 485 c 0,36,37
 259 240 259 240 365.5 63 c 128,-1,38
 472 -114 472 -114 673.5 -198.5 c 128,-1,39
 875 -283 875 -283 1120 -283 c 0,40,41
 1382 -283 1382 -283 1559 -195 c 128,-1,42
 1736 -107 1736 -107 1824 19 c 1,43,-1
 2005 19 l 1,44,45
 1954 -86 1954 -86 1830 -195 c 128,-1,46
 1706 -304 1706 -304 1535 -367.5 c 128,-1,47
 1364 -431 1364 -431 1123 -431 c 0,48,49
 901 -431 901 -431 713.5 -374 c 128,-1,50
 526 -317 526 -317 394 -202.5 c 128,-1,51
 262 -88 262 -88 195 61 c 0,52,53
 111 250 111 250 111 469 c 0,54,55
 111 713 111 713 211 934 c 0,56,57
 333 1205 333 1205 557.5 1349 c 128,-1,58
 782 1493 782 1493 1102 1493 c 0,59,60
 1350 1493 1350 1493 1547.5 1391.5 c 128,-1,61
 1745 1290 1745 1290 1859 1089 c 0,62,63
 1956 916 1956 916 1956 713 c 0,64,65
 1956 423 1956 423 1752 198 c 0,66,67
 1570 -4 1570 -4 1354 -4 c 0,68,69
 1285 -4 1285 -4 1242.5 17 c 128,-1,70
 1200 38 1200 38 1180 77 c 0,71,72
 1167 102 1167 102 1161 163 c 1,0,1
677 434 m 0,73,74
 677 297 677 297 742 221 c 128,-1,75
 807 145 807 145 891 145 c 0,76,77
 947 145 947 145 1009 178.5 c 128,-1,78
 1071 212 1071 212 1127.5 278 c 128,-1,79
 1184 344 1184 344 1220 445.5 c 128,-1,80
 1256 547 1256 547 1256 649 c 0,81,82
 1256 785 1256 785 1188.5 860 c 128,-1,83
 1121 935 1121 935 1024 935 c 0,84,85
 960 935 960 935 903.5 902.5 c 128,-1,86
 847 870 847 870 794 798 c 128,-1,87
 741 726 741 726 709 623 c 128,-1,88
 677 520 677 520 677 434 c 0,73,74
EndSplineSet
EndChar
StartChar: A
Encoding: 65 65 36
Width: 1366
Flags: W
LayerCount: 2
Fore
SplineSet
-3 0 m 1,0,-1
 560 1466 l 1,1,-1
 769 1466 l 1,2,-1
 1369 0 l 1,3,-1
 1148 0 l 1,4,-1
 977 444 l 1,5,-1
 364 444 l 1,6,-1
 203 0 l 1,7,-1
 -3 0 l 1,0,-1
420 602 m 1,8,-1
 917 602 l 1,9,-1
 764 1008 l 2,10,11
 694 1193 694 1193 660 1312 c 1,12,13
 632 1171 632 1171 581 1032 c 2,14,-1
 420 602 l 1,8,-1
EndSplineSet
EndChar
StartChar: B
Encoding: 66 66 37
Width: 1366
Flags: W
LayerCount: 2
Fore
SplineSet
150 0 m 1,0,-1
 150 1466 l 1,1,-1
 700 1466 l 2,2,3
 868 1466 868 1466 969.5 1421.5 c 128,-1,4
 1071 1377 1071 1377 1128.5 1284.5 c 128,-1,5
 1186 1192 1186 1192 1186 1091 c 0,6,7
 1186 997 1186 997 1135 914 c 128,-1,8
 1084 831 1084 831 981 780 c 1,9,10
 1114 741 1114 741 1185.5 647 c 128,-1,11
 1257 553 1257 553 1257 425 c 0,12,13
 1257 322 1257 322 1213.5 233.5 c 128,-1,14
 1170 145 1170 145 1106 97 c 128,-1,15
 1042 49 1042 49 945.5 24.5 c 128,-1,16
 849 0 849 0 709 0 c 2,17,-1
 150 0 l 1,0,-1
344 850 m 1,18,-1
 661 850 l 2,19,20
 790 850 790 850 846 867 c 0,21,22
 920 889 920 889 957.5 940 c 128,-1,23
 995 991 995 991 995 1068 c 0,24,25
 995 1141 995 1141 960 1196.5 c 128,-1,26
 925 1252 925 1252 860 1272.5 c 128,-1,27
 795 1293 795 1293 637 1293 c 2,28,-1
 344 1293 l 1,29,-1
 344 850 l 1,18,-1
344 173 m 1,30,-1
 709 173 l 2,31,32
 803 173 803 173 841 180 c 0,33,34
 908 192 908 192 953 220 c 128,-1,35
 998 248 998 248 1027 301.5 c 128,-1,36
 1056 355 1056 355 1056 425 c 0,37,38
 1056 507 1056 507 1014 567.5 c 128,-1,39
 972 628 972 628 897.5 652.5 c 128,-1,40
 823 677 823 677 683 677 c 2,41,-1
 344 677 l 1,42,-1
 344 173 l 1,30,-1
EndSplineSet
EndChar
StartChar: C
Encoding: 67 67 38
Width: 1479
Flags: W
LayerCount: 2
Fore
SplineSet
1204 514 m 1,0,-1
 1398 465 l 1,1,2
 1337 226 1337 226 1178.5 100.5 c 128,-1,3
 1020 -25 1020 -25 791 -25 c 0,4,5
 554 -25 554 -25 405.5 71.5 c 128,-1,6
 257 168 257 168 179.5 351 c 128,-1,7
 102 534 102 534 102 744 c 0,8,9
 102 973 102 973 189.5 1143.5 c 128,-1,10
 277 1314 277 1314 438.5 1402.5 c 128,-1,11
 600 1491 600 1491 794 1491 c 0,12,13
 1014 1491 1014 1491 1164 1379 c 128,-1,14
 1314 1267 1314 1267 1373 1064 c 1,15,-1
 1182 1019 l 1,16,17
 1131 1179 1131 1179 1034 1252 c 128,-1,18
 937 1325 937 1325 790 1325 c 0,19,20
 621 1325 621 1325 507.5 1244 c 128,-1,21
 394 1163 394 1163 348 1026.5 c 128,-1,22
 302 890 302 890 302 745 c 0,23,24
 302 558 302 558 356.5 418.5 c 128,-1,25
 411 279 411 279 526 210 c 128,-1,26
 641 141 641 141 775 141 c 0,27,28
 938 141 938 141 1051 235 c 128,-1,29
 1164 329 1164 329 1204 514 c 1,0,-1
EndSplineSet
EndChar
StartChar: D
Encoding: 68 68 39
Width: 1479
Flags: W
LayerCount: 2
Fore
SplineSet
158 0 m 1,0,-1
 158 1466 l 1,1,-1
 663 1466 l 2,2,3
 834 1466 834 1466 924 1445 c 0,4,5
 1050 1416 1050 1416 1139 1340 c 0,6,7
 1255 1242 1255 1242 1312.5 1089.5 c 128,-1,8
 1370 937 1370 937 1370 741 c 0,9,10
 1370 574 1370 574 1331 445 c 128,-1,11
 1292 316 1292 316 1231 231.5 c 128,-1,12
 1170 147 1170 147 1097.5 98.5 c 128,-1,13
 1025 50 1025 50 922.5 25 c 128,-1,14
 820 0 820 0 687 0 c 2,15,-1
 158 0 l 1,0,-1
352 173 m 1,16,-1
 665 173 l 2,17,18
 810 173 810 173 892.5 200 c 128,-1,19
 975 227 975 227 1024 276 c 0,20,21
 1093 345 1093 345 1131.5 461.5 c 128,-1,22
 1170 578 1170 578 1170 744 c 0,23,24
 1170 974 1170 974 1094.5 1097.5 c 128,-1,25
 1019 1221 1019 1221 911 1263 c 0,26,27
 833 1293 833 1293 660 1293 c 2,28,-1
 352 1293 l 1,29,-1
 352 173 l 1,16,-1
EndSplineSet
EndChar
StartChar: E
Encoding: 69 69 40
Width: 1366
Flags: W
LayerCount: 2
Fore
SplineSet
162 0 m 1,0,-1
 162 1466 l 1,1,-1
 1222 1466 l 1,2,-1
 1222 1293 l 1,3,-1
 356 1293 l 1,4,-1
 356 844 l 1,5,-1
 1167 844 l 1,6,-1
 1167 672 l 1,7,-1
 356 672 l 1,8,-1
 356 173 l 1,9,-1
 1256 173 l 1,10,-1
 1256 0 l 1,11,-1
 162 0 l 1,0,-1
EndSplineSet
EndChar
StartChar: F
Encoding: 70 70 41
Width: 1251
Flags: W
LayerCount: 2
Fore
SplineSet
168 0 m 1,0,-1
 168 1466 l 1,1,-1
 1157 1466 l 1,2,-1
 1157 1293 l 1,3,-1
 362 1293 l 1,4,-1
 362 839 l 1,5,-1
 1050 839 l 1,6,-1
 1050 666 l 1,7,-1
 362 666 l 1,8,-1
 362 0 l 1,9,-1
 168 0 l 1,0,-1
EndSplineSet
EndChar
StartChar: G
Encoding: 71 71 42
Width: 1593
Flags: W
LayerCount: 2
Fore
SplineSet
844 575 m 1,0,-1
 844 747 l 1,1,-1
 1465 748 l 1,2,-1
 1465 204 l 1,3,4
 1322 90 1322 90 1170 32.5 c 128,-1,5
 1018 -25 1018 -25 858 -25 c 0,6,7
 642 -25 642 -25 465.5 67.5 c 128,-1,8
 289 160 289 160 199 335 c 128,-1,9
 109 510 109 510 109 726 c 0,10,11
 109 940 109 940 198.5 1125.5 c 128,-1,12
 288 1311 288 1311 456 1401 c 128,-1,13
 624 1491 624 1491 843 1491 c 0,14,15
 1002 1491 1002 1491 1130.5 1439.5 c 128,-1,16
 1259 1388 1259 1388 1332 1296 c 128,-1,17
 1405 1204 1405 1204 1443 1056 c 1,18,-1
 1268 1008 l 1,19,20
 1235 1120 1235 1120 1186 1184 c 128,-1,21
 1137 1248 1137 1248 1046 1286.5 c 128,-1,22
 955 1325 955 1325 844 1325 c 0,23,24
 711 1325 711 1325 614 1284.5 c 128,-1,25
 517 1244 517 1244 457.5 1178 c 128,-1,26
 398 1112 398 1112 365 1033 c 0,27,28
 309 897 309 897 309 738 c 0,29,30
 309 542 309 542 376.5 410 c 128,-1,31
 444 278 444 278 573 214 c 128,-1,32
 702 150 702 150 847 150 c 0,33,34
 973 150 973 150 1093 198.5 c 128,-1,35
 1213 247 1213 247 1275 302 c 1,36,-1
 1275 575 l 1,37,-1
 844 575 l 1,0,-1
EndSplineSet
EndChar
StartChar: H
Encoding: 72 72 43
Width: 1479
Flags: W
LayerCount: 2
Fore
SplineSet
164 0 m 1,0,-1
 164 1466 l 1,1,-1
 358 1466 l 1,2,-1
 358 864 l 1,3,-1
 1120 864 l 1,4,-1
 1120 1466 l 1,5,-1
 1314 1466 l 1,6,-1
 1314 0 l 1,7,-1
 1120 0 l 1,8,-1
 1120 691 l 1,9,-1
 358 691 l 1,10,-1
 358 0 l 1,11,-1
 164 0 l 1,0,-1
EndSplineSet
EndChar
StartChar: I
Encoding: 73 73 44
Width: 569
Flags: W
LayerCount: 2
Fore
SplineSet
191 0 m 1,0,-1
 191 1466 l 1,1,-1
 385 1466 l 1,2,-1
 385 0 l 1,3,-1
 191 0 l 1,0,-1
EndSplineSet
EndChar
StartChar: J
Encoding: 74 74 45
Width: 1024
Flags: W
LayerCount: 2
Fore
SplineSet
59 416 m 1,0,-1
 234 440 l 1,1,2
 241 272 241 272 297 210 c 128,-1,3
 353 148 353 148 452 148 c 0,4,5
 525 148 525 148 578 181.5 c 128,-1,6
 631 215 631 215 651 272.5 c 128,-1,7
 671 330 671 330 671 456 c 2,8,-1
 671 1466 l 1,9,-1
 865 1466 l 1,10,-1
 865 467 l 2,11,12
 865 283 865 283 820.5 182 c 128,-1,13
 776 81 776 81 679.5 28 c 128,-1,14
 583 -25 583 -25 453 -25 c 0,15,16
 260 -25 260 -25 157.5 86 c 128,-1,17
 55 197 55 197 59 416 c 1,0,-1
EndSplineSet
EndChar
StartChar: K
Encoding: 75 75 46
Width: 1366
Flags: W
LayerCount: 2
Fore
SplineSet
150 0 m 1,0,-1
 150 1466 l 1,1,-1
 344 1466 l 1,2,-1
 344 739 l 1,3,-1
 1072 1466 l 1,4,-1
 1335 1466 l 1,5,-1
 720 872 l 1,6,-1
 1362 0 l 1,7,-1
 1106 0 l 1,8,-1
 584 742 l 1,9,-1
 344 508 l 1,10,-1
 344 0 l 1,11,-1
 150 0 l 1,0,-1
EndSplineSet
EndChar
StartChar: L
Encoding: 76 76 47
Width: 1139
Flags: W
LayerCount: 2
Fore
SplineSet
150 0 m 1,0,-1
 150 1466 l 1,1,-1
 344 1466 l 1,2,-1
 344 173 l 1,3,-1
 1066 173 l 1,4,-1
 1066 0 l 1,5,-1
 150 0 l 1,0,-1
EndSplineSet
EndChar
StartChar: M
Encoding: 77 77 48
Width: 1706
Flags: W
LayerCount: 2
Fore
SplineSet
152 0 m 1,0,-1
 152 1466 l 1,1,-1
 444 1466 l 1,2,-1
 791 428 l 2,3,4
 839 283 839 283 861 211 c 1,5,6
 886 291 886 291 939 446 c 2,7,-1
 1290 1466 l 1,8,-1
 1551 1466 l 1,9,-1
 1551 0 l 1,10,-1
 1364 0 l 1,11,-1
 1364 1227 l 1,12,-1
 938 0 l 1,13,-1
 763 0 l 1,14,-1
 339 1248 l 1,15,-1
 339 0 l 1,16,-1
 152 0 l 1,0,-1
EndSplineSet
EndChar
StartChar: N
Encoding: 78 78 49
Width: 1479
Flags: W
LayerCount: 2
Fore
SplineSet
156 0 m 1,0,-1
 156 1466 l 1,1,-1
 355 1466 l 1,2,-1
 1125 315 l 1,3,-1
 1125 1466 l 1,4,-1
 1311 1466 l 1,5,-1
 1311 0 l 1,6,-1
 1112 0 l 1,7,-1
 342 1152 l 1,8,-1
 342 0 l 1,9,-1
 156 0 l 1,0,-1
EndSplineSet
EndChar
StartChar: O
Encoding: 79 79 50
Width: 1593
Flags: W
LayerCount: 2
Fore
SplineSet
99 714 m 0,0,1
 99 1079 99 1079 295 1285.5 c 128,-1,2
 491 1492 491 1492 801 1492 c 0,3,4
 1004 1492 1004 1492 1167 1395 c 128,-1,5
 1330 1298 1330 1298 1415.5 1124.5 c 128,-1,6
 1501 951 1501 951 1501 731 c 0,7,8
 1501 508 1501 508 1411 332 c 128,-1,9
 1321 156 1321 156 1156 65.5 c 128,-1,10
 991 -25 991 -25 800 -25 c 0,11,12
 593 -25 593 -25 430 75 c 128,-1,13
 267 175 267 175 183 348 c 128,-1,14
 99 521 99 521 99 714 c 0,0,1
299 711 m 0,15,16
 299 446 299 446 441.5 293.5 c 128,-1,17
 584 141 584 141 799 141 c 0,18,19
 1018 141 1018 141 1159.5 295 c 128,-1,20
 1301 449 1301 449 1301 732 c 0,21,22
 1301 911 1301 911 1240.5 1044.5 c 128,-1,23
 1180 1178 1180 1178 1063.5 1251.5 c 128,-1,24
 947 1325 947 1325 802 1325 c 0,25,26
 596 1325 596 1325 447.5 1183.5 c 128,-1,27
 299 1042 299 1042 299 711 c 0,15,16
EndSplineSet
EndChar
StartChar: P
Encoding: 80 80 51
Width: 1366
Flags: W
LayerCount: 2
Fore
SplineSet
158 0 m 1,0,-1
 158 1466 l 1,1,-1
 711 1466 l 2,2,3
 857 1466 857 1466 934 1452 c 0,4,5
 1042 1434 1042 1434 1115 1383.5 c 128,-1,6
 1188 1333 1188 1333 1232.5 1242 c 128,-1,7
 1277 1151 1277 1151 1277 1042 c 0,8,9
 1277 855 1277 855 1158 725.5 c 128,-1,10
 1039 596 1039 596 728 596 c 2,11,-1
 352 596 l 1,12,-1
 352 0 l 1,13,-1
 158 0 l 1,0,-1
352 769 m 1,14,-1
 731 769 l 2,15,16
 919 769 919 769 998 839 c 128,-1,17
 1077 909 1077 909 1077 1036 c 0,18,19
 1077 1128 1077 1128 1030.5 1193.5 c 128,-1,20
 984 1259 984 1259 908 1280 c 0,21,22
 859 1293 859 1293 727 1293 c 2,23,-1
 352 1293 l 1,24,-1
 352 769 l 1,14,-1
EndSplineSet
EndChar
StartChar: Q
Encoding: 81 81 52
Width: 1593
Flags: W
LayerCount: 2
Fore
SplineSet
1269 157 m 1,0,1
 1404 64 1404 64 1518 21 c 1,2,-1
 1461 -114 l 1,3,4
 1303 -57 1303 -57 1146 66 c 1,5,6
 983 -25 983 -25 786 -25 c 0,7,8
 587 -25 587 -25 425 71 c 128,-1,9
 263 167 263 167 175.5 341 c 128,-1,10
 88 515 88 515 88 733 c 0,11,12
 88 950 88 950 176 1128 c 128,-1,13
 264 1306 264 1306 426.5 1399 c 128,-1,14
 589 1492 589 1492 790 1492 c 0,15,16
 993 1492 993 1492 1156 1395.5 c 128,-1,17
 1319 1299 1319 1299 1404.5 1125.5 c 128,-1,18
 1490 952 1490 952 1490 734 c 0,19,20
 1490 553 1490 553 1435 408.5 c 128,-1,21
 1380 264 1380 264 1269 157 c 1,0,1
842 405 m 1,22,23
 1010 358 1010 358 1119 265 c 1,24,25
 1290 421 1290 421 1290 734 c 0,26,27
 1290 912 1290 912 1229.5 1045 c 128,-1,28
 1169 1178 1169 1178 1052.5 1251.5 c 128,-1,29
 936 1325 936 1325 791 1325 c 0,30,31
 574 1325 574 1325 431 1176.5 c 128,-1,32
 288 1028 288 1028 288 733 c 0,33,34
 288 447 288 447 429.5 294 c 128,-1,35
 571 141 571 141 791 141 c 0,36,37
 895 141 895 141 987 180 c 1,38,39
 896 239 896 239 795 264 c 1,40,-1
 842 405 l 1,22,23
EndSplineSet
EndChar
StartChar: R
Encoding: 82 82 53
Width: 1479
Flags: W
LayerCount: 2
Fore
SplineSet
161 0 m 1,0,-1
 161 1466 l 1,1,-1
 811 1466 l 2,2,3
 1007 1466 1007 1466 1109 1426.5 c 128,-1,4
 1211 1387 1211 1387 1272 1287 c 128,-1,5
 1333 1187 1333 1187 1333 1066 c 0,6,7
 1333 910 1333 910 1232 803 c 128,-1,8
 1131 696 1131 696 920 667 c 1,9,10
 997 630 997 630 1037 594 c 0,11,12
 1122 516 1122 516 1198 399 c 2,13,-1
 1453 0 l 1,14,-1
 1209 0 l 1,15,-1
 1015 305 l 2,16,17
 930 437 930 437 875 507 c 128,-1,18
 820 577 820 577 776.5 605 c 128,-1,19
 733 633 733 633 688 644 c 0,20,21
 655 651 655 651 580 651 c 2,22,-1
 355 651 l 1,23,-1
 355 0 l 1,24,-1
 161 0 l 1,0,-1
355 819 m 1,25,-1
 772 819 l 2,26,27
 905 819 905 819 980 846.5 c 128,-1,28
 1055 874 1055 874 1094 934.5 c 128,-1,29
 1133 995 1133 995 1133 1066 c 0,30,31
 1133 1170 1133 1170 1057.5 1237 c 128,-1,32
 982 1304 982 1304 819 1304 c 2,33,-1
 355 1304 l 1,34,-1
 355 819 l 1,25,-1
EndSplineSet
EndChar
StartChar: S
Encoding: 83 83 54
Width: 1366
Flags: W
LayerCount: 2
Fore
SplineSet
92 471 m 1,0,-1
 275 487 l 1,1,2
 288 377 288 377 335.5 306.5 c 128,-1,3
 383 236 383 236 483 192.5 c 128,-1,4
 583 149 583 149 708 149 c 0,5,6
 819 149 819 149 904 182 c 128,-1,7
 989 215 989 215 1030.5 272.5 c 128,-1,8
 1072 330 1072 330 1072 398 c 0,9,10
 1072 467 1072 467 1032 518.5 c 128,-1,11
 992 570 992 570 900 605 c 0,12,13
 841 628 841 628 639 676.5 c 128,-1,14
 437 725 437 725 356 768 c 0,15,16
 251 823 251 823 199.5 904.5 c 128,-1,17
 148 986 148 986 148 1087 c 0,18,19
 148 1198 148 1198 211 1294.5 c 128,-1,20
 274 1391 274 1391 395 1441 c 128,-1,21
 516 1491 516 1491 664 1491 c 0,22,23
 827 1491 827 1491 951.5 1438.5 c 128,-1,24
 1076 1386 1076 1386 1143 1284 c 128,-1,25
 1210 1182 1210 1182 1215 1053 c 1,26,-1
 1029 1039 l 1,27,28
 1014 1178 1014 1178 927.5 1249 c 128,-1,29
 841 1320 841 1320 672 1320 c 0,30,31
 496 1320 496 1320 415.5 1255.5 c 128,-1,32
 335 1191 335 1191 335 1100 c 0,33,34
 335 1021 335 1021 392 970 c 0,35,36
 448 919 448 919 684.5 865.5 c 128,-1,37
 921 812 921 812 1009 772 c 0,38,39
 1137 713 1137 713 1198 622.5 c 128,-1,40
 1259 532 1259 532 1259 414 c 0,41,42
 1259 297 1259 297 1192 193.5 c 128,-1,43
 1125 90 1125 90 999.5 32.5 c 128,-1,44
 874 -25 874 -25 717 -25 c 0,45,46
 518 -25 518 -25 383.5 33 c 128,-1,47
 249 91 249 91 172.5 207.5 c 128,-1,48
 96 324 96 324 92 471 c 1,0,-1
EndSplineSet
EndChar
StartChar: T
Encoding: 84 84 55
Width: 1251
Flags: W
LayerCount: 2
Fore
SplineSet
531 0 m 1,0,-1
 531 1293 l 1,1,-1
 48 1293 l 1,2,-1
 48 1466 l 1,3,-1
 1210 1466 l 1,4,-1
 1210 1293 l 1,5,-1
 725 1293 l 1,6,-1
 725 0 l 1,7,-1
 531 0 l 1,0,-1
EndSplineSet
EndChar
StartChar: U
Encoding: 85 85 56
Width: 1479
Flags: W
LayerCount: 2
Fore
SplineSet
1120 1466 m 1,0,-1
 1314 1466 l 1,1,-1
 1314 619 l 2,2,3
 1314 398 1314 398 1264 268 c 128,-1,4
 1214 138 1214 138 1083.5 56.5 c 128,-1,5
 953 -25 953 -25 741 -25 c 0,6,7
 535 -25 535 -25 404 46 c 128,-1,8
 273 117 273 117 217 251.5 c 128,-1,9
 161 386 161 386 161 619 c 2,10,-1
 161 1466 l 1,11,-1
 355 1466 l 1,12,-1
 355 620 l 2,13,14
 355 429 355 429 390.5 338.5 c 128,-1,15
 426 248 426 248 512.5 199 c 128,-1,16
 599 150 599 150 724 150 c 0,17,18
 938 150 938 150 1029 247 c 128,-1,19
 1120 344 1120 344 1120 620 c 2,20,-1
 1120 1466 l 1,0,-1
EndSplineSet
EndChar
StartChar: V
Encoding: 86 86 57
Width: 1366
Flags: W
LayerCount: 2
Fore
SplineSet
577 0 m 1,0,-1
 9 1466 l 1,1,-1
 219 1466 l 1,2,-1
 600 401 l 2,3,4
 646 273 646 273 677 161 c 1,5,6
 711 281 711 281 756 401 c 2,7,-1
 1152 1466 l 1,8,-1
 1350 1466 l 1,9,-1
 776 0 l 1,10,-1
 577 0 l 1,0,-1
EndSplineSet
EndChar
StartChar: W
Encoding: 87 87 58
Width: 1933
Flags: W
LayerCount: 2
Fore
SplineSet
414 0 m 1,0,-1
 25 1466 l 1,1,-1
 224 1466 l 1,2,-1
 447 505 l 2,3,4
 483 354 483 354 509 205 c 1,5,6
 565 440 565 440 575 476 c 2,7,-1
 854 1466 l 1,8,-1
 1088 1466 l 1,9,-1
 1298 724 l 2,10,11
 1377 448 1377 448 1412 205 c 1,12,13
 1440 344 1440 344 1485 524 c 2,14,-1
 1715 1466 l 1,15,-1
 1910 1466 l 1,16,-1
 1508 0 l 1,17,-1
 1321 0 l 1,18,-1
 1012 1117 l 2,19,20
 973 1257 973 1257 966 1289 c 1,21,22
 943 1188 943 1188 923 1117 c 2,23,-1
 612 0 l 1,24,-1
 414 0 l 1,0,-1
EndSplineSet
EndChar
StartChar: X
Encoding: 88 88 59
Width: 1366
Flags: W
LayerCount: 2
Fore
SplineSet
9 0 m 1,0,-1
 576 764 l 1,1,-1
 76 1466 l 1,2,-1
 307 1466 l 1,3,-1
 573 1090 l 2,4,5
 656 973 656 973 691 910 c 1,6,7
 740 990 740 990 807 1077 c 2,8,-1
 1102 1466 l 1,9,-1
 1313 1466 l 1,10,-1
 798 775 l 1,11,-1
 1353 0 l 1,12,-1
 1113 0 l 1,13,-1
 744 523 l 2,14,15
 713 568 713 568 680 621 c 1,16,17
 631 541 631 541 610 511 c 2,18,-1
 242 0 l 1,19,-1
 9 0 l 1,0,-1
EndSplineSet
EndChar
StartChar: Y
Encoding: 89 89 60
Width: 1366
Flags: W
LayerCount: 2
Fore
SplineSet
571 0 m 1,0,-1
 571 621 l 1,1,-1
 6 1466 l 1,2,-1
 242 1466 l 1,3,-1
 531 1024 l 2,4,5
 611 900 611 900 680 776 c 1,6,7
 746 891 746 891 840 1035 c 2,8,-1
 1124 1466 l 1,9,-1
 1350 1466 l 1,10,-1
 765 621 l 1,11,-1
 765 0 l 1,12,-1
 571 0 l 1,0,-1
EndSplineSet
EndChar
StartChar: Z
Encoding: 90 90 61
Width: 1251
Flags: W
LayerCount: 2
Fore
SplineSet
41 0 m 1,0,-1
 41 180 l 1,1,-1
 792 1119 l 2,2,3
 872 1219 872 1219 944 1293 c 1,4,-1
 126 1293 l 1,5,-1
 126 1466 l 1,6,-1
 1176 1466 l 1,7,-1
 1176 1293 l 1,8,-1
 353 276 l 1,9,-1
 264 173 l 1,10,-1
 1200 173 l 1,11,-1
 1200 0 l 1,12,-1
 41 0 l 1,0,-1
EndSplineSet
EndChar
StartChar: bracketleft
Encoding: 91 91 62
Width: 569
Flags: W
LayerCount: 2
Fore
SplineSet
139 -407 m 1,0,-1
 139 1466 l 1,1,-1
 536 1466 l 1,2,-1
 536 1317 l 1,3,-1
 319 1317 l 1,4,-1
 319 -258 l 1,5,-1
 536 -258 l 1,6,-1
 536 -407 l 1,7,-1
 139 -407 l 1,0,-1
EndSplineSet
EndChar
StartChar: backslash
Encoding: 92 92 63
Width: 569
Flags: W
LayerCount: 2
Fore
SplineSet
425 -25 m 1,0,-1
 0 1491 l 1,1,-1
 145 1491 l 1,2,-1
 569 -25 l 1,3,-1
 425 -25 l 1,0,-1
EndSplineSet
EndChar
StartChar: bracketright
Encoding: 93 93 64
Width: 569
Flags: W
LayerCount: 2
Fore
SplineSet
436 -407 m 1,0,-1
 39 -407 l 1,1,-1
 39 -258 l 1,2,-1
 256 -258 l 1,3,-1
 256 1317 l 1,4,-1
 39 1317 l 1,5,-1
 39 1466 l 1,6,-1
 436 1466 l 1,7,-1
 436 -407 l 1,0,-1
EndSplineSet
EndChar
StartChar: asciicircum
Encoding: 94 94 65
Width: 961
Flags: W
LayerCount: 2
Fore
SplineSet
239 690 m 1,0,-1
 54 690 l 1,1,-1
 407 1491 l 1,2,-1
 552 1491 l 1,3,-1
 907 690 l 1,4,-1
 726 690 l 1,5,-1
 479 1287 l 1,6,-1
 239 690 l 1,0,-1
EndSplineSet
EndChar
StartChar: underscore
Encoding: 95 95 66
Width: 1139
Flags: W
LayerCount: 2
Fore
SplineSet
-31 -407 m 1,0,-1
 -31 -277 l 1,1,-1
 1162 -277 l 1,2,-1
 1162 -407 l 1,3,-1
 -31 -407 l 1,0,-1
EndSplineSet
EndChar
StartChar: grave
Encoding: 96 96 67
Width: 682
Flags: W
LayerCount: 2
Fore
SplineSet
465 1194 m 1,0,-1
 320 1194 l 1,1,-1
 89 1474 l 1,2,-1
 330 1474 l 1,3,-1
 465 1194 l 1,0,-1
EndSplineSet
EndChar
StartChar: a
Encoding: 97 97 68
Width: 1139
Flags: W
LayerCount: 2
Fore
SplineSet
828 131 m 1,0,1
 728 46 728 46 635.5 11 c 128,-1,2
 543 -24 543 -24 437 -24 c 0,3,4
 262 -24 262 -24 168 61.5 c 128,-1,5
 74 147 74 147 74 280 c 0,6,7
 74 358 74 358 109.5 422.5 c 128,-1,8
 145 487 145 487 202.5 526 c 128,-1,9
 260 565 260 565 332 585 c 0,10,11
 385 599 385 599 492 612 c 0,12,13
 710 638 710 638 813 674 c 1,14,15
 814 711 814 711 814 721 c 0,16,17
 814 831 814 831 763 876 c 0,18,19
 694 937 694 937 558 937 c 0,20,21
 431 937 431 937 370.5 892.5 c 128,-1,22
 310 848 310 848 281 735 c 1,23,-1
 105 759 l 1,24,25
 129 872 129 872 184 941.5 c 128,-1,26
 239 1011 239 1011 343 1048.5 c 128,-1,27
 447 1086 447 1086 584 1086 c 0,28,29
 720 1086 720 1086 805 1054 c 128,-1,30
 890 1022 890 1022 930 973.5 c 128,-1,31
 970 925 970 925 986 851 c 0,32,33
 995 805 995 805 995 685 c 2,34,-1
 995 445 l 2,35,36
 995 194 995 194 1006.5 127.5 c 128,-1,37
 1018 61 1018 61 1052 0 c 1,38,-1
 864 0 l 1,39,40
 836 56 836 56 828 131 c 1,0,1
813 533 m 1,41,42
 715 493 715 493 519 465 c 0,43,44
 408 449 408 449 362 429 c 128,-1,45
 316 409 316 409 291 370.5 c 128,-1,46
 266 332 266 332 266 285 c 0,47,48
 266 213 266 213 320.5 165 c 128,-1,49
 375 117 375 117 480 117 c 0,50,51
 584 117 584 117 665 162.5 c 128,-1,52
 746 208 746 208 784 287 c 0,53,54
 813 348 813 348 813 467 c 2,55,-1
 813 533 l 1,41,42
EndSplineSet
EndChar
StartChar: b
Encoding: 98 98 69
Width: 1139
Flags: W
LayerCount: 2
Fore
SplineSet
301 0 m 1,0,-1
 134 0 l 1,1,-1
 134 1466 l 1,2,-1
 314 1466 l 1,3,-1
 314 943 l 1,4,5
 428 1086 428 1086 605 1086 c 0,6,7
 703 1086 703 1086 790.5 1046.5 c 128,-1,8
 878 1007 878 1007 934.5 935.5 c 128,-1,9
 991 864 991 864 1023 763 c 128,-1,10
 1055 662 1055 662 1055 547 c 0,11,12
 1055 274 1055 274 920 125 c 128,-1,13
 785 -24 785 -24 596 -24 c 0,14,15
 408 -24 408 -24 301 133 c 1,16,-1
 301 0 l 1,0,-1
299 539 m 0,17,18
 299 348 299 348 351 263 c 0,19,20
 436 124 436 124 581 124 c 0,21,22
 699 124 699 124 785 226.5 c 128,-1,23
 871 329 871 329 871 532 c 0,24,25
 871 740 871 740 788.5 839 c 128,-1,26
 706 938 706 938 589 938 c 0,27,28
 471 938 471 938 385 835.5 c 128,-1,29
 299 733 299 733 299 539 c 0,17,18
EndSplineSet
EndChar
StartChar: c
Encoding: 99 99 70
Width: 1024
Flags: W
LayerCount: 2
Fore
SplineSet
828 389 m 1,0,-1
 1005 366 l 1,1,2
 976 183 976 183 856.5 79.5 c 128,-1,3
 737 -24 737 -24 563 -24 c 0,4,5
 345 -24 345 -24 212.5 118.5 c 128,-1,6
 80 261 80 261 80 527 c 0,7,8
 80 699 80 699 137 828 c 128,-1,9
 194 957 194 957 310.5 1021.5 c 128,-1,10
 427 1086 427 1086 564 1086 c 0,11,12
 737 1086 737 1086 847 998.5 c 128,-1,13
 957 911 957 911 988 750 c 1,14,-1
 813 723 l 1,15,16
 788 830 788 830 724.5 884 c 128,-1,17
 661 938 661 938 571 938 c 0,18,19
 435 938 435 938 350 840.5 c 128,-1,20
 265 743 265 743 265 532 c 0,21,22
 265 318 265 318 347 221 c 128,-1,23
 429 124 429 124 561 124 c 0,24,25
 667 124 667 124 738 189 c 128,-1,26
 809 254 809 254 828 389 c 1,0,-1
EndSplineSet
EndChar
StartChar: d
Encoding: 100 100 71
Width: 1139
Flags: W
LayerCount: 2
Fore
SplineSet
824 0 m 1,0,-1
 824 134 l 1,1,2
 723 -24 723 -24 527 -24 c 0,3,4
 400 -24 400 -24 293.5 46 c 128,-1,5
 187 116 187 116 128.5 241.5 c 128,-1,6
 70 367 70 367 70 530 c 0,7,8
 70 689 70 689 123 818.5 c 128,-1,9
 176 948 176 948 282 1017 c 128,-1,10
 388 1086 388 1086 519 1086 c 0,11,12
 615 1086 615 1086 690 1045.5 c 128,-1,13
 765 1005 765 1005 812 940 c 1,14,-1
 812 1466 l 1,15,-1
 991 1466 l 1,16,-1
 991 0 l 1,17,-1
 824 0 l 1,0,-1
255 530 m 0,18,19
 255 326 255 326 341 225 c 128,-1,20
 427 124 427 124 544 124 c 0,21,22
 662 124 662 124 744.5 220.5 c 128,-1,23
 827 317 827 317 827 515 c 0,24,25
 827 733 827 733 743 835 c 128,-1,26
 659 937 659 937 536 937 c 0,27,28
 416 937 416 937 335.5 839 c 128,-1,29
 255 741 255 741 255 530 c 0,18,19
EndSplineSet
EndChar
StartChar: e
Encoding: 101 101 72
Width: 1139
Flags: W
LayerCount: 2
Fore
SplineSet
862 342 m 1,0,-1
 1048 319 l 1,1,2
 1004 156 1004 156 885 66 c 128,-1,3
 766 -24 766 -24 581 -24 c 0,4,5
 348 -24 348 -24 211.5 119.5 c 128,-1,6
 75 263 75 263 75 522 c 0,7,8
 75 790 75 790 213 938 c 128,-1,9
 351 1086 351 1086 571 1086 c 0,10,11
 784 1086 784 1086 919 941 c 128,-1,12
 1054 796 1054 796 1054 533 c 0,13,14
 1054 517 1054 517 1053 485 c 1,15,-1
 261 485 l 1,16,17
 271 310 271 310 360 217 c 128,-1,18
 449 124 449 124 582 124 c 0,19,20
 681 124 681 124 751 176 c 128,-1,21
 821 228 821 228 862 342 c 1,0,-1
271 633 m 1,22,-1
 864 633 l 1,23,24
 852 767 852 767 796 834 c 0,25,26
 710 938 710 938 573 938 c 0,27,28
 449 938 449 938 364.5 855 c 128,-1,29
 280 772 280 772 271 633 c 1,22,-1
EndSplineSet
EndChar
StartChar: f
Encoding: 102 102 73
Width: 569
Flags: W
LayerCount: 2
Fore
SplineSet
178 0 m 1,0,-1
 178 922 l 1,1,-1
 19 922 l 1,2,-1
 19 1062 l 1,3,-1
 178 1062 l 1,4,-1
 178 1175 l 2,5,6
 178 1282 178 1282 197 1334 c 0,7,8
 223 1404 223 1404 288.5 1447.5 c 128,-1,9
 354 1491 354 1491 472 1491 c 0,10,11
 548 1491 548 1491 640 1473 c 1,12,-1
 613 1316 l 1,13,14
 557 1326 557 1326 507 1326 c 0,15,16
 425 1326 425 1326 391 1291 c 128,-1,17
 357 1256 357 1256 357 1160 c 2,18,-1
 357 1062 l 1,19,-1
 564 1062 l 1,20,-1
 564 922 l 1,21,-1
 357 922 l 1,22,-1
 357 0 l 1,23,-1
 178 0 l 1,0,-1
EndSplineSet
EndChar
StartChar: g
Encoding: 103 103 74
Width: 1139
Flags: W
LayerCount: 2
Fore
SplineSet
102 -88 m 1,0,-1
 277 -114 l 1,1,2
 288 -195 288 -195 338 -232 c 0,3,4
 405 -282 405 -282 521 -282 c 0,5,6
 646 -282 646 -282 714 -232 c 128,-1,7
 782 -182 782 -182 806 -92 c 0,8,9
 820 -37 820 -37 819 139 c 1,10,11
 701 0 701 0 525 0 c 0,12,13
 306 0 306 0 186 158 c 128,-1,14
 66 316 66 316 66 537 c 0,15,16
 66 689 66 689 121 817.5 c 128,-1,17
 176 946 176 946 280.5 1016 c 128,-1,18
 385 1086 385 1086 526 1086 c 0,19,20
 714 1086 714 1086 836 934 c 1,21,-1
 836 1062 l 1,22,-1
 1002 1062 l 1,23,-1
 1002 144 l 2,24,25
 1002 -104 1002 -104 951.5 -207.5 c 128,-1,26
 901 -311 901 -311 791.5 -371 c 128,-1,27
 682 -431 682 -431 522 -431 c 0,28,29
 332 -431 332 -431 215 -345.5 c 128,-1,30
 98 -260 98 -260 102 -88 c 1,0,-1
251 550 m 0,31,32
 251 341 251 341 334 245 c 128,-1,33
 417 149 417 149 542 149 c 0,34,35
 666 149 666 149 750 244.5 c 128,-1,36
 834 340 834 340 834 544 c 0,37,38
 834 739 834 739 747.5 838 c 128,-1,39
 661 937 661 937 539 937 c 0,40,41
 419 937 419 937 335 839.5 c 128,-1,42
 251 742 251 742 251 550 c 0,31,32
EndSplineSet
EndChar
StartChar: h
Encoding: 104 104 75
Width: 1139
Flags: W
LayerCount: 2
Fore
SplineSet
135 0 m 1,0,-1
 135 1466 l 1,1,-1
 315 1466 l 1,2,-1
 315 940 l 1,3,4
 441 1086 441 1086 633 1086 c 0,5,6
 751 1086 751 1086 838 1039.5 c 128,-1,7
 925 993 925 993 962.5 911 c 128,-1,8
 1000 829 1000 829 1000 673 c 2,9,-1
 1000 0 l 1,10,-1
 820 0 l 1,11,-1
 820 673 l 2,12,13
 820 808 820 808 761.5 869.5 c 128,-1,14
 703 931 703 931 596 931 c 0,15,16
 516 931 516 931 445.5 889.5 c 128,-1,17
 375 848 375 848 345 777 c 128,-1,18
 315 706 315 706 315 581 c 2,19,-1
 315 0 l 1,20,-1
 135 0 l 1,0,-1
EndSplineSet
EndChar
StartChar: i
Encoding: 105 105 76
Width: 455
Flags: W
LayerCount: 2
Fore
SplineSet
136 1259 m 1,0,-1
 136 1466 l 1,1,-1
 316 1466 l 1,2,-1
 316 1259 l 1,3,-1
 136 1259 l 1,0,-1
136 0 m 1,4,-1
 136 1062 l 1,5,-1
 316 1062 l 1,6,-1
 316 0 l 1,7,-1
 136 0 l 1,4,-1
EndSplineSet
EndChar
StartChar: j
Encoding: 106 106 77
Width: 455
Flags: W
LayerCount: 2
Fore
SplineSet
134 1257 m 1,0,-1
 134 1466 l 1,1,-1
 314 1466 l 1,2,-1
 314 1257 l 1,3,-1
 134 1257 l 1,0,-1
-94 -412 m 1,4,-1
 -60 -259 l 1,5,6
 -6 -273 -6 -273 25 -273 c 0,7,8
 80 -273 80 -273 107 -236.5 c 128,-1,9
 134 -200 134 -200 134 -54 c 2,10,-1
 134 1062 l 1,11,-1
 314 1062 l 1,12,-1
 314 -58 l 2,13,14
 314 -254 314 -254 263 -331 c 0,15,16
 198 -431 198 -431 47 -431 c 0,17,18
 -26 -431 -26 -431 -94 -412 c 1,4,-1
EndSplineSet
EndChar
StartChar: k
Encoding: 107 107 78
Width: 1024
Flags: W
LayerCount: 2
Fore
SplineSet
136 0 m 1,0,-1
 136 1466 l 1,1,-1
 316 1466 l 1,2,-1
 316 630 l 1,3,-1
 742 1062 l 1,4,-1
 975 1062 l 1,5,-1
 569 668 l 1,6,-1
 1016 0 l 1,7,-1
 794 0 l 1,8,-1
 443 543 l 1,9,-1
 316 421 l 1,10,-1
 316 0 l 1,11,-1
 136 0 l 1,0,-1
EndSplineSet
EndChar
StartChar: l
Encoding: 108 108 79
Width: 455
Flags: W
LayerCount: 2
Fore
SplineSet
131 0 m 1,0,-1
 131 1466 l 1,1,-1
 311 1466 l 1,2,-1
 311 0 l 1,3,-1
 131 0 l 1,0,-1
EndSplineSet
EndChar
StartChar: m
Encoding: 109 109 80
Width: 1706
Flags: W
LayerCount: 2
Fore
SplineSet
135 0 m 1,0,-1
 135 1062 l 1,1,-1
 296 1062 l 1,2,-1
 296 913 l 1,3,4
 346 991 346 991 429 1038.5 c 128,-1,5
 512 1086 512 1086 618 1086 c 0,6,7
 736 1086 736 1086 811.5 1037 c 128,-1,8
 887 988 887 988 918 900 c 1,9,10
 1044 1086 1044 1086 1246 1086 c 0,11,12
 1404 1086 1404 1086 1489 998.5 c 128,-1,13
 1574 911 1574 911 1574 729 c 2,14,-1
 1574 0 l 1,15,-1
 1395 0 l 1,16,-1
 1395 669 l 2,17,18
 1395 777 1395 777 1377.5 824.5 c 128,-1,19
 1360 872 1360 872 1314 901 c 128,-1,20
 1268 930 1268 930 1206 930 c 0,21,22
 1094 930 1094 930 1020 855.5 c 128,-1,23
 946 781 946 781 946 617 c 2,24,-1
 946 0 l 1,25,-1
 766 0 l 1,26,-1
 766 690 l 2,27,28
 766 810 766 810 722 870 c 128,-1,29
 678 930 678 930 578 930 c 0,30,31
 502 930 502 930 437.5 890 c 128,-1,32
 373 850 373 850 344 773 c 128,-1,33
 315 696 315 696 315 551 c 2,34,-1
 315 0 l 1,35,-1
 135 0 l 1,0,-1
EndSplineSet
EndChar
StartChar: n
Encoding: 110 110 81
Width: 1139
Flags: W
LayerCount: 2
Fore
SplineSet
135 0 m 1,0,-1
 135 1062 l 1,1,-1
 297 1062 l 1,2,-1
 297 911 l 1,3,4
 414 1086 414 1086 635 1086 c 0,5,6
 731 1086 731 1086 811.5 1051.5 c 128,-1,7
 892 1017 892 1017 932 961 c 128,-1,8
 972 905 972 905 988 828 c 0,9,10
 998 778 998 778 998 653 c 2,11,-1
 998 0 l 1,12,-1
 818 0 l 1,13,-1
 818 646 l 2,14,15
 818 756 818 756 797 810.5 c 128,-1,16
 776 865 776 865 722.5 897.5 c 128,-1,17
 669 930 669 930 597 930 c 0,18,19
 482 930 482 930 398.5 857 c 128,-1,20
 315 784 315 784 315 580 c 2,21,-1
 315 0 l 1,22,-1
 135 0 l 1,0,-1
EndSplineSet
EndChar
StartChar: o
Encoding: 111 111 82
Width: 1139
Flags: W
LayerCount: 2
Fore
SplineSet
68 531 m 0,0,1
 68 826 68 826 232 968 c 0,2,3
 369 1086 369 1086 566 1086 c 0,4,5
 785 1086 785 1086 924 942.5 c 128,-1,6
 1063 799 1063 799 1063 546 c 0,7,8
 1063 341 1063 341 1001.5 223.5 c 128,-1,9
 940 106 940 106 822.5 41 c 128,-1,10
 705 -24 705 -24 566 -24 c 0,11,12
 343 -24 343 -24 205.5 119 c 128,-1,13
 68 262 68 262 68 531 c 0,0,1
253 531 m 256,14,15
 253 327 253 327 342 225.5 c 128,-1,16
 431 124 431 124 566 124 c 0,17,18
 700 124 700 124 789 226 c 128,-1,19
 878 328 878 328 878 537 c 0,20,21
 878 734 878 734 788.5 835.5 c 128,-1,22
 699 937 699 937 566 937 c 0,23,24
 431 937 431 937 342 836 c 128,-1,25
 253 735 253 735 253 531 c 256,14,15
EndSplineSet
EndChar
StartChar: p
Encoding: 112 112 83
Width: 1139
Flags: W
LayerCount: 2
Fore
SplineSet
135 -407 m 1,0,-1
 135 1062 l 1,1,-1
 299 1062 l 1,2,-1
 299 924 l 1,3,4
 357 1005 357 1005 430 1045.5 c 128,-1,5
 503 1086 503 1086 607 1086 c 0,6,7
 743 1086 743 1086 847 1016 c 128,-1,8
 951 946 951 946 1004 818.5 c 128,-1,9
 1057 691 1057 691 1057 539 c 0,10,11
 1057 376 1057 376 998.5 245.5 c 128,-1,12
 940 115 940 115 828.5 45.5 c 128,-1,13
 717 -24 717 -24 594 -24 c 0,14,15
 504 -24 504 -24 432.5 14 c 128,-1,16
 361 52 361 52 315 110 c 1,17,-1
 315 -407 l 1,18,-1
 135 -407 l 1,0,-1
298 525 m 256,19,20
 298 320 298 320 381 222 c 128,-1,21
 464 124 464 124 582 124 c 0,22,23
 702 124 702 124 787.5 225.5 c 128,-1,24
 873 327 873 327 873 540 c 0,25,26
 873 743 873 743 789.5 844 c 128,-1,27
 706 945 706 945 590 945 c 0,28,29
 475 945 475 945 386.5 837.5 c 128,-1,30
 298 730 298 730 298 525 c 256,19,20
EndSplineSet
EndChar
StartChar: q
Encoding: 113 113 84
Width: 1139
Flags: W
LayerCount: 2
Fore
SplineSet
812 -407 m 1,0,-1
 812 113 l 1,1,2
 770 54 770 54 694.5 15 c 128,-1,3
 619 -24 619 -24 534 -24 c 0,4,5
 345 -24 345 -24 208.5 127 c 128,-1,6
 72 278 72 278 72 541 c 0,7,8
 72 701 72 701 127.5 828 c 128,-1,9
 183 955 183 955 288.5 1020.5 c 128,-1,10
 394 1086 394 1086 520 1086 c 0,11,12
 717 1086 717 1086 830 920 c 1,13,-1
 830 1062 l 1,14,-1
 992 1062 l 1,15,-1
 992 -407 l 1,16,-1
 812 -407 l 1,0,-1
257 534 m 0,17,18
 257 329 257 329 343 226.5 c 128,-1,19
 429 124 429 124 549 124 c 0,20,21
 664 124 664 124 747 221.5 c 128,-1,22
 830 319 830 319 830 518 c 0,23,24
 830 730 830 730 742.5 837 c 128,-1,25
 655 944 655 944 537 944 c 0,26,27
 420 944 420 944 338.5 844.5 c 128,-1,28
 257 745 257 745 257 534 c 0,17,18
EndSplineSet
EndChar
StartChar: r
Encoding: 114 114 85
Width: 682
Flags: W
LayerCount: 2
Fore
SplineSet
133 0 m 1,0,-1
 133 1062 l 1,1,-1
 295 1062 l 1,2,-1
 295 901 l 1,3,4
 357 1014 357 1014 409.5 1050 c 128,-1,5
 462 1086 462 1086 525 1086 c 0,6,7
 616 1086 616 1086 710 1028 c 1,8,-1
 648 861 l 1,9,10
 582 900 582 900 516 900 c 0,11,12
 457 900 457 900 410 864.5 c 128,-1,13
 363 829 363 829 343 766 c 0,14,15
 313 670 313 670 313 556 c 2,16,-1
 313 0 l 1,17,-1
 133 0 l 1,0,-1
EndSplineSet
EndChar
StartChar: s
Encoding: 115 115 86
Width: 1024
Flags: W
LayerCount: 2
Fore
SplineSet
63 317 m 1,0,-1
 241 345 l 1,1,2
 256 238 256 238 324.5 181 c 128,-1,3
 393 124 393 124 516 124 c 0,4,5
 640 124 640 124 700 174.5 c 128,-1,6
 760 225 760 225 760 293 c 0,7,8
 760 354 760 354 707 389 c 0,9,10
 670 413 670 413 523 450 c 0,11,12
 325 500 325 500 248.5 536.5 c 128,-1,13
 172 573 172 573 132.5 637.5 c 128,-1,14
 93 702 93 702 93 780 c 0,15,16
 93 851 93 851 125.5 911.5 c 128,-1,17
 158 972 158 972 214 1012 c 0,18,19
 256 1043 256 1043 328.5 1064.5 c 128,-1,20
 401 1086 401 1086 484 1086 c 0,21,22
 609 1086 609 1086 703.5 1050 c 128,-1,23
 798 1014 798 1014 843 952.5 c 128,-1,24
 888 891 888 891 905 788 c 1,25,-1
 729 764 l 1,26,27
 717 846 717 846 659.5 892 c 128,-1,28
 602 938 602 938 497 938 c 0,29,30
 373 938 373 938 320 897 c 128,-1,31
 267 856 267 856 267 801 c 0,32,33
 267 766 267 766 289 738 c 0,34,35
 311 709 311 709 358 690 c 0,36,37
 385 680 385 680 517 644 c 0,38,39
 708 593 708 593 783.5 560.5 c 128,-1,40
 859 528 859 528 902 466 c 128,-1,41
 945 404 945 404 945 312 c 0,42,43
 945 222 945 222 892.5 142.5 c 128,-1,44
 840 63 840 63 741 19.5 c 128,-1,45
 642 -24 642 -24 517 -24 c 0,46,47
 310 -24 310 -24 201.5 62 c 128,-1,48
 93 148 93 148 63 317 c 1,0,-1
EndSplineSet
EndChar
StartChar: t
Encoding: 116 116 87
Width: 569
Flags: W
LayerCount: 2
Fore
SplineSet
528 161 m 1,0,-1
 554 2 l 1,1,2
 478 -14 478 -14 418 -14 c 0,3,4
 320 -14 320 -14 266 17 c 128,-1,5
 212 48 212 48 190 98.5 c 128,-1,6
 168 149 168 149 168 311 c 2,7,-1
 168 922 l 1,8,-1
 36 922 l 1,9,-1
 36 1062 l 1,10,-1
 168 1062 l 1,11,-1
 168 1325 l 1,12,-1
 347 1433 l 1,13,-1
 347 1062 l 1,14,-1
 528 1062 l 1,15,-1
 528 922 l 1,16,-1
 347 922 l 1,17,-1
 347 301 l 2,18,19
 347 224 347 224 356.5 202 c 128,-1,20
 366 180 366 180 387.5 167 c 128,-1,21
 409 154 409 154 449 154 c 0,22,23
 479 154 479 154 528 161 c 1,0,-1
EndSplineSet
EndChar
StartChar: u
Encoding: 117 117 88
Width: 1139
Flags: W
LayerCount: 2
Fore
SplineSet
831 0 m 1,0,-1
 831 156 l 1,1,2
 707 -24 707 -24 494 -24 c 0,3,4
 400 -24 400 -24 318.5 12 c 128,-1,5
 237 48 237 48 197.5 102.5 c 128,-1,6
 158 157 158 157 142 236 c 0,7,8
 131 289 131 289 131 404 c 2,9,-1
 131 1062 l 1,10,-1
 311 1062 l 1,11,-1
 311 473 l 2,12,13
 311 332 311 332 322 283 c 0,14,15
 339 212 339 212 394 171.5 c 128,-1,16
 449 131 449 131 530 131 c 256,17,18
 611 131 611 131 682 172.5 c 128,-1,19
 753 214 753 214 782.5 285.5 c 128,-1,20
 812 357 812 357 812 493 c 2,21,-1
 812 1062 l 1,22,-1
 992 1062 l 1,23,-1
 992 0 l 1,24,-1
 831 0 l 1,0,-1
EndSplineSet
EndChar
StartChar: v
Encoding: 118 118 89
Width: 1024
Flags: W
LayerCount: 2
Fore
SplineSet
430 0 m 1,0,-1
 26 1062 l 1,1,-1
 216 1062 l 1,2,-1
 444 426 l 2,3,4
 481 323 481 323 512 212 c 1,5,6
 536 296 536 296 579 414 c 2,7,-1
 815 1062 l 1,8,-1
 1000 1062 l 1,9,-1
 598 0 l 1,10,-1
 430 0 l 1,0,-1
EndSplineSet
EndChar
StartChar: w
Encoding: 119 119 90
Width: 1479
Flags: W
LayerCount: 2
Fore
SplineSet
331 0 m 1,0,-1
 6 1062 l 1,1,-1
 192 1062 l 1,2,-1
 361 449 l 1,3,-1
 424 221 l 1,4,5
 428 238 428 238 479 440 c 2,6,-1
 648 1062 l 1,7,-1
 833 1062 l 1,8,-1
 992 446 l 1,9,-1
 1045 243 l 1,10,-1
 1106 448 l 1,11,-1
 1288 1062 l 1,12,-1
 1463 1062 l 1,13,-1
 1131 0 l 1,14,-1
 944 0 l 1,15,-1
 775 636 l 1,16,-1
 734 817 l 1,17,-1
 519 0 l 1,18,-1
 331 0 l 1,0,-1
EndSplineSet
EndChar
StartChar: x
Encoding: 120 120 91
Width: 1024
Flags: W
LayerCount: 2
Fore
SplineSet
15 0 m 1,0,-1
 403 552 l 1,1,-1
 44 1062 l 1,2,-1
 269 1062 l 1,3,-1
 432 813 l 2,4,5
 478 742 478 742 506 694 c 1,6,7
 550 760 550 760 587 811 c 2,8,-1
 766 1062 l 1,9,-1
 981 1062 l 1,10,-1
 614 562 l 1,11,-1
 1009 0 l 1,12,-1
 788 0 l 1,13,-1
 570 330 l 1,14,-1
 512 419 l 1,15,-1
 233 0 l 1,16,-1
 15 0 l 1,0,-1
EndSplineSet
EndChar
StartChar: y
Encoding: 121 121 92
Width: 1024
Flags: W
LayerCount: 2
Fore
SplineSet
127 -409 m 1,0,-1
 107 -240 l 1,1,2
 166 -256 166 -256 210 -256 c 0,3,4
 270 -256 270 -256 306 -236 c 128,-1,5
 342 -216 342 -216 365 -180 c 0,6,7
 382 -153 382 -153 420 -46 c 0,8,9
 425 -31 425 -31 436 -2 c 1,10,-1
 33 1062 l 1,11,-1
 227 1062 l 1,12,-1
 448 447 l 2,13,14
 491 330 491 330 525 201 c 1,15,16
 556 325 556 325 599 443 c 2,17,-1
 826 1062 l 1,18,-1
 1006 1062 l 1,19,-1
 602 -18 l 2,20,21
 537 -193 537 -193 501 -259 c 0,22,23
 453 -348 453 -348 391 -389.5 c 128,-1,24
 329 -431 329 -431 243 -431 c 0,25,26
 191 -431 191 -431 127 -409 c 1,0,-1
EndSplineSet
EndChar
StartChar: z
Encoding: 122 122 93
Width: 1024
Flags: W
LayerCount: 2
Fore
SplineSet
40 0 m 1,0,-1
 40 146 l 1,1,-1
 716 922 l 1,2,3
 601 916 601 916 513 916 c 2,4,-1
 80 916 l 1,5,-1
 80 1062 l 1,6,-1
 948 1062 l 1,7,-1
 948 943 l 1,8,-1
 373 269 l 1,9,-1
 262 146 l 1,10,11
 383 155 383 155 489 155 c 2,12,-1
 980 155 l 1,13,-1
 980 0 l 1,14,-1
 40 0 l 1,0,-1
EndSplineSet
EndChar
StartChar: braceleft
Encoding: 123 123 94
Width: 684
Flags: W
LayerCount: 2
Fore
SplineSet
57 612 m 1,0,1
 134 614 134 614 182.5 653.5 c 128,-1,2
 231 693 231 693 247 762 c 128,-1,3
 263 831 263 831 264 998 c 128,-1,4
 265 1165 265 1165 270 1218 c 0,5,6
 279 1302 279 1302 303.5 1353 c 128,-1,7
 328 1404 328 1404 364 1434.5 c 128,-1,8
 400 1465 400 1465 456 1481 c 0,9,10
 494 1491 494 1491 580 1491 c 2,11,-1
 636 1491 l 1,12,-1
 636 1334 l 1,13,-1
 605 1334 l 2,14,15
 501 1334 501 1334 467 1296.5 c 128,-1,16
 433 1259 433 1259 433 1129 c 0,17,18
 433 867 433 867 422 798 c 0,19,20
 404 691 404 691 360.5 633 c 128,-1,21
 317 575 317 575 224 530 c 1,22,23
 334 484 334 484 383.5 389.5 c 128,-1,24
 433 295 433 295 433 80 c 0,25,26
 433 -115 433 -115 437 -152 c 0,27,28
 445 -220 445 -220 477.5 -247 c 128,-1,29
 510 -274 510 -274 605 -274 c 2,30,-1
 636 -274 l 1,31,-1
 636 -431 l 1,32,-1
 580 -431 l 2,33,34
 482 -431 482 -431 438 -415 c 0,35,36
 374 -392 374 -392 332 -340.5 c 128,-1,37
 290 -289 290 -289 277.5 -210 c 128,-1,38
 265 -131 265 -131 264 49 c 128,-1,39
 263 229 263 229 247 298 c 128,-1,40
 231 367 231 367 182.5 407 c 128,-1,41
 134 447 134 447 57 449 c 1,42,-1
 57 612 l 1,0,1
EndSplineSet
EndChar
StartChar: bar
Encoding: 124 124 95
Width: 532
Flags: W
LayerCount: 2
Fore
SplineSet
188 -431 m 1,0,-1
 188 1491 l 1,1,-1
 345 1491 l 1,2,-1
 345 -431 l 1,3,-1
 188 -431 l 1,0,-1
EndSplineSet
EndChar
StartChar: braceright
Encoding: 125 125 96
Width: 684
Flags: W
LayerCount: 2
Fore
SplineSet
626 612 m 1,0,-1
 626 449 l 1,1,2
 549 447 549 447 500.5 407 c 128,-1,3
 452 367 452 367 436 298.5 c 128,-1,4
 420 230 420 230 419 63 c 128,-1,5
 418 -104 418 -104 413 -157 c 0,6,7
 404 -242 404 -242 379.5 -292.5 c 128,-1,8
 355 -343 355 -343 319 -373.5 c 128,-1,9
 283 -404 283 -404 227 -420 c 0,10,11
 189 -431 189 -431 103 -431 c 2,12,-1
 47 -431 l 1,13,-1
 47 -274 l 1,14,-1
 78 -274 l 2,15,16
 182 -274 182 -274 216 -236.5 c 128,-1,17
 250 -199 250 -199 250 -68 c 0,18,19
 250 182 250 182 259 249 c 0,20,21
 275 360 275 360 323 426.5 c 128,-1,22
 371 493 371 493 459 530 c 1,23,24
 344 585 344 585 297 675.5 c 128,-1,25
 250 766 250 766 250 981 c 0,26,27
 250 1176 250 1176 245 1214 c 0,28,29
 238 1281 238 1281 205.5 1307.5 c 128,-1,30
 173 1334 173 1334 78 1334 c 2,31,-1
 47 1334 l 1,32,-1
 47 1491 l 1,33,-1
 103 1491 l 2,34,35
 201 1491 201 1491 245 1475 c 0,36,37
 309 1453 309 1453 351 1401 c 128,-1,38
 393 1349 393 1349 405.5 1270 c 128,-1,39
 418 1191 418 1191 419 1011 c 128,-1,40
 420 831 420 831 436 762.5 c 128,-1,41
 452 694 452 694 500.5 654 c 128,-1,42
 549 614 549 614 626 612 c 1,0,-1
EndSplineSet
EndChar
StartChar: asciitilde
Encoding: 126 126 97
Width: 1196
Flags: W
LayerCount: 2
Fore
SplineSet
87 557 m 1,0,-1
 87 762 l 1,1,2
 193 882 193 882 365 882 c 0,3,4
 425 882 425 882 491 864.5 c 128,-1,5
 557 847 557 847 679 795 c 0,6,7
 748 766 748 766 782.5 757 c 128,-1,8
 817 748 817 748 852 748 c 0,9,10
 917 748 917 748 986.5 787 c 128,-1,11
 1056 826 1056 826 1110 885 c 1,12,-1
 1110 673 l 1,13,14
 1046 613 1046 613 980.5 586 c 128,-1,15
 915 559 915 559 833 559 c 0,16,17
 773 559 773 559 718.5 573 c 128,-1,18
 664 587 664 587 545.5 640 c 128,-1,19
 427 693 427 693 348 693 c 0,20,21
 284 693 284 693 227.5 665.5 c 128,-1,22
 171 638 171 638 87 557 c 1,0,-1
EndSplineSet
EndChar
StartChar: exclamdown
Encoding: 161 161 163
Width: 682
Flags: W
LayerCount: 2
Fore
SplineSet
447 1062 m 1,0,-1
 447 857 l 1,1,-1
 240 857 l 1,2,-1
 240 1062 l 1,3,-1
 447 1062 l 1,0,-1
400 697 m 1,4,-1
 455 -79 l 1,5,-1
 455 -404 l 1,6,-1
 232 -404 l 1,7,-1
 232 -79 l 1,8,-1
 284 697 l 1,9,-1
 400 697 l 1,4,-1
EndSplineSet
EndChar
StartChar: cent
Encoding: 162 162 132
Width: 1139
Flags: W
LayerCount: 2
Fore
SplineSet
744 894 m 1,0,-1
 522 128 l 1,1,2
 555 119 555 119 583 119 c 0,3,4
 687 119 687 119 762.5 190 c 128,-1,5
 838 261 838 261 855 389 c 1,6,-1
 1034 369 l 1,7,8
 1001 184 1001 184 877.5 78 c 128,-1,9
 754 -28 754 -28 586 -28 c 0,10,11
 537 -28 537 -28 483 -14 c 1,12,-1
 365 -409 l 1,13,-1
 253 -377 l 1,14,-1
 368 21 l 1,15,16
 253 76 253 76 180 204.5 c 128,-1,17
 107 333 107 333 107 526 c 0,18,19
 107 704 107 704 165.5 831.5 c 128,-1,20
 224 959 224 959 340.5 1023 c 128,-1,21
 457 1087 457 1087 578 1087 c 0,22,23
 614 1087 614 1087 678 1079 c 1,24,-1
 791 1466 l 1,25,-1
 901 1434 l 1,26,-1
 789 1047 l 1,27,28
 888 1004 888 1004 941 931.5 c 128,-1,29
 994 859 994 859 1015 750 c 1,30,-1
 840 723 l 1,31,32
 814 835 814 835 744 894 c 1,0,-1
638 940 m 1,33,34
 606 943 606 943 588 943 c 0,35,36
 506 943 506 943 434.5 897.5 c 128,-1,37
 363 852 363 852 327.5 756.5 c 128,-1,38
 292 661 292 661 292 535 c 0,39,40
 292 403 292 403 324 312 c 128,-1,41
 356 221 356 221 415 177 c 1,42,-1
 638 940 l 1,33,34
EndSplineSet
EndChar
StartChar: sterling
Encoding: 163 163 133
Width: 1139
Flags: W
LayerCount: 2
Fore
SplineSet
396 809 m 1,0,-1
 711 809 l 1,1,-1
 711 661 l 1,2,-1
 427 661 l 1,3,4
 446 617 446 617 446 573 c 0,5,6
 446 486 446 486 404.5 389 c 128,-1,7
 363 292 363 292 268 191 c 1,8,9
 347 213 347 213 412 213 c 0,10,11
 495 213 495 213 599 188 c 0,12,13
 771 147 771 147 832 147 c 0,14,15
 906 147 906 147 1024 203 c 1,16,-1
 1082 38 l 1,17,18
 990 -1 990 -1 939.5 -13 c 128,-1,19
 889 -25 889 -25 839 -25 c 0,20,21
 797 -25 797 -25 754 -17 c 0,22,23
 727 -12 727 -12 624.5 19.5 c 128,-1,24
 522 51 522 51 492 57 c 0,25,26
 445 65 445 65 398 65 c 0,27,28
 326 65 326 65 244.5 40 c 128,-1,29
 163 15 163 15 96 -28 c 1,30,-1
 27 145 l 1,31,32
 123 198 123 198 190 296.5 c 128,-1,33
 257 395 257 395 257 537 c 0,34,35
 257 598 257 598 240 661 c 1,36,-1
 44 661 l 1,37,-1
 44 809 l 1,38,-1
 198 809 l 1,39,40
 165 921 165 921 156 972.5 c 128,-1,41
 147 1024 147 1024 147 1073 c 0,42,43
 147 1281 147 1281 301 1398 c 0,44,45
 425 1491 425 1491 601 1491 c 0,46,47
 782 1491 782 1491 899.5 1391.5 c 128,-1,48
 1017 1292 1017 1292 1044 1112 c 1,49,-1
 865 1085 l 1,50,51
 850 1205 850 1205 775.5 1274 c 128,-1,52
 701 1343 701 1343 597 1343 c 0,53,54
 486 1343 486 1343 412.5 1271.5 c 128,-1,55
 339 1200 339 1200 339 1099 c 0,56,57
 339 988 339 988 396 809 c 1,0,-1
EndSplineSet
EndChar
StartChar: currency
Encoding: 164 164 862
Width: 1139
Flags: W
LayerCount: 2
Fore
SplineSet
213 961 m 1,0,-1
 74 1097 l 1,1,-1
 189 1216 l 1,2,-1
 328 1077 l 1,3,4
 434 1149 434 1149 565 1149 c 0,5,6
 697 1149 697 1149 802 1077 c 1,7,-1
 941 1216 l 1,8,-1
 1057 1097 l 1,9,-1
 918 961 l 1,10,11
 989 851 989 851 989 726 c 0,12,13
 989 600 989 600 918 490 c 1,14,-1
 1057 354 l 1,15,-1
 941 235 l 1,16,-1
 802 375 l 1,17,18
 697 302 697 302 565 302 c 0,19,20
 434 302 434 302 328 375 c 1,21,-1
 189 235 l 1,22,-1
 74 354 l 1,23,-1
 213 490 l 1,24,25
 142 600 142 600 142 726 c 0,26,27
 142 851 142 851 213 961 c 1,0,-1
305 726 m 0,28,29
 305 618 305 618 381 542 c 128,-1,30
 457 466 457 466 564 466 c 256,31,32
 671 466 671 466 747 542 c 128,-1,33
 823 618 823 618 823 726 c 0,34,35
 823 833 823 833 747.5 909 c 128,-1,36
 672 985 672 985 564 985 c 0,37,38
 457 985 457 985 381 909 c 128,-1,39
 305 833 305 833 305 726 c 0,28,29
EndSplineSet
EndChar
StartChar: yen
Encoding: 165 165 150
Width: 1139
Flags: W
LayerCount: 2
Fore
SplineSet
477 0 m 1,0,-1
 477 325 l 1,1,-1
 62 325 l 1,2,-1
 62 464 l 1,3,-1
 477 464 l 1,4,-1
 477 607 l 1,5,-1
 62 607 l 1,6,-1
 62 755 l 1,7,-1
 403 755 l 1,8,-1
 -3 1466 l 1,9,-1
 197 1466 l 1,10,-1
 487 950 l 2,11,12
 536 862 536 862 563 796 c 1,13,14
 586 849 586 849 645 959 c 2,15,-1
 919 1466 l 1,16,-1
 1133 1466 l 1,17,-1
 728 755 l 1,18,-1
 1069 755 l 1,19,-1
 1069 607 l 1,20,-1
 657 607 l 1,21,-1
 657 464 l 1,22,-1
 1069 464 l 1,23,-1
 1069 325 l 1,24,-1
 657 325 l 1,25,-1
 657 0 l 1,26,-1
 477 0 l 1,0,-1
EndSplineSet
EndChar
StartChar: brokenbar
Encoding: 166 166 230
Width: 532
Flags: W
LayerCount: 2
Fore
SplineSet
345 1491 m 1,0,-1
 345 701 l 1,1,-1
 188 701 l 1,2,-1
 188 1491 l 1,3,-1
 345 1491 l 1,0,-1
345 360 m 1,4,-1
 345 -431 l 1,5,-1
 188 -431 l 1,6,-1
 188 360 l 1,7,-1
 345 360 l 1,4,-1
EndSplineSet
EndChar
StartChar: section
Encoding: 167 167 134
Width: 1139
Flags: W
LayerCount: 2
Fore
SplineSet
143 -70 m 1,0,-1
 324 -44 l 1,1,2
 352 -174 352 -174 413 -226.5 c 128,-1,3
 474 -279 474 -279 579 -279 c 0,4,5
 681 -279 681 -279 738.5 -227 c 128,-1,6
 796 -175 796 -175 796 -105 c 0,7,8
 796 -54 796 -54 760 -11 c 0,9,10
 698 64 698 64 420 234 c 0,11,12
 272 325 272 325 213.5 376.5 c 128,-1,13
 155 428 155 428 118 498 c 128,-1,14
 81 568 81 568 81 644 c 0,15,16
 81 740 81 740 141 818 c 128,-1,17
 201 896 201 896 306 927 c 1,18,19
 235 995 235 995 206 1052.5 c 128,-1,20
 177 1110 177 1110 177 1175 c 0,21,22
 177 1303 177 1303 277 1397 c 128,-1,23
 377 1491 377 1491 542 1491 c 0,24,25
 729 1491 729 1491 834 1402 c 128,-1,26
 939 1313 939 1313 960 1144 c 1,27,-1
 773 1125 l 1,28,29
 752 1247 752 1247 699.5 1295 c 128,-1,30
 647 1343 647 1343 558 1343 c 0,31,32
 466 1343 466 1343 409.5 1293.5 c 128,-1,33
 353 1244 353 1244 353 1184 c 0,34,35
 353 1132 353 1132 389 1088 c 0,36,37
 445 1020 445 1020 695 868 c 0,38,39
 852 772 852 772 907 727 c 0,40,41
 978 667 978 667 1011.5 603 c 128,-1,42
 1045 539 1045 539 1045 464 c 0,43,44
 1045 351 1045 351 972 271 c 0,45,46
 930 225 930 225 818 178 c 1,47,48
 898 117 898 117 937.5 47 c 128,-1,49
 977 -23 977 -23 977 -103 c 0,50,51
 977 -191 977 -191 927 -269.5 c 128,-1,52
 877 -348 877 -348 783 -389.5 c 128,-1,53
 689 -431 689 -431 580 -431 c 0,54,55
 389 -431 389 -431 277 -335.5 c 128,-1,56
 165 -240 165 -240 143 -70 c 1,0,-1
728 244 m 1,57,58
 802 282 802 282 838.5 332.5 c 128,-1,59
 875 383 875 383 875 431 c 0,60,61
 875 488 875 488 823 551 c 0,62,63
 770 614 770 614 598 720 c 0,64,65
 461 804 461 804 394 858 c 1,66,67
 313 812 313 812 278.5 766 c 128,-1,68
 244 720 244 720 244 664 c 0,69,70
 244 601 244 601 290 544 c 256,71,72
 336 487 336 487 497 392 c 0,73,74
 631 313 631 313 728 244 c 1,57,58
EndSplineSet
EndChar
StartChar: dieresis
Encoding: 168 168 142
Width: 682
Flags: W
LayerCount: 2
Fore
SplineSet
61 1270 m 1,0,-1
 61 1475 l 1,1,-1
 249 1475 l 1,2,-1
 249 1270 l 1,3,-1
 61 1270 l 1,0,-1
434 1270 m 1,4,-1
 434 1475 l 1,5,-1
 622 1475 l 1,6,-1
 622 1270 l 1,7,-1
 434 1270 l 1,4,-1
EndSplineSet
EndChar
StartChar: copyright
Encoding: 169 169 139
Width: 1509
Flags: W
LayerCount: 2
Fore
SplineSet
758 1491 m 256,0,1
 948 1491 948 1491 1129 1393.5 c 128,-1,2
 1310 1296 1310 1296 1411 1114.5 c 128,-1,3
 1512 933 1512 933 1512 736 c 0,4,5
 1512 541 1512 541 1412.5 361 c 128,-1,6
 1313 181 1313 181 1133.5 81.5 c 128,-1,7
 954 -18 954 -18 758 -18 c 256,8,9
 562 -18 562 -18 382.5 81.5 c 128,-1,10
 203 181 203 181 103 361 c 128,-1,11
 3 541 3 541 3 736 c 0,12,13
 3 933 3 933 104.5 1114.5 c 128,-1,14
 206 1296 206 1296 387 1393.5 c 128,-1,15
 568 1491 568 1491 758 1491 c 256,0,1
758 1366 m 0,16,17
 599 1366 599 1366 448.5 1284.5 c 128,-1,18
 298 1203 298 1203 213 1051.5 c 128,-1,19
 128 900 128 900 128 736 c 0,20,21
 128 573 128 573 211.5 423.5 c 128,-1,22
 295 274 295 274 445 190.5 c 128,-1,23
 595 107 595 107 758 107 c 256,24,25
 921 107 921 107 1071 190.5 c 128,-1,26
 1221 274 1221 274 1304 423.5 c 128,-1,27
 1387 573 1387 573 1387 736 c 0,28,29
 1387 900 1387 900 1302.5 1051.5 c 128,-1,30
 1218 1203 1218 1203 1067 1284.5 c 128,-1,31
 916 1366 916 1366 758 1366 c 0,16,17
1000 614 m 1,32,-1
 1123 578 l 1,33,34
 1093 453 1093 453 995.5 378.5 c 128,-1,35
 898 304 898 304 759 304 c 0,36,37
 583 304 583 304 473 418 c 128,-1,38
 363 532 363 532 363 734 c 0,39,40
 363 866 363 866 413 963.5 c 128,-1,41
 463 1061 463 1061 555.5 1110.5 c 128,-1,42
 648 1160 648 1160 767 1160 c 0,43,44
 900 1160 900 1160 988 1096.5 c 128,-1,45
 1076 1033 1076 1033 1108 924 c 1,46,-1
 989 895 l 1,47,48
 959 969 959 969 900.5 1008.5 c 128,-1,49
 842 1048 842 1048 763 1048 c 0,50,51
 648 1048 648 1048 573.5 966 c 128,-1,52
 499 884 499 884 499 731 c 256,53,54
 499 578 499 578 569.5 499.5 c 128,-1,55
 640 421 640 421 752 421 c 0,56,57
 842 421 842 421 910 473 c 128,-1,58
 978 525 978 525 1000 614 c 1,32,-1
EndSplineSet
EndChar
StartChar: ordfeminine
Encoding: 170 170 157
Width: 758
Flags: W
LayerCount: 2
Fore
SplineSet
548 853 m 1,0,1
 426 746 426 746 292 746 c 0,2,3
 179 746 179 746 113 807.5 c 128,-1,4
 47 869 47 869 47 965 c 0,5,6
 47 1013 47 1013 63 1049 c 128,-1,7
 79 1085 79 1085 110.5 1113 c 128,-1,8
 142 1141 142 1141 192 1158 c 0,9,10
 227 1169 227 1169 291 1179 c 2,11,-1
 438 1201 l 2,12,13
 510 1215 510 1215 534 1221 c 1,14,15
 533 1291 533 1291 520 1315 c 128,-1,16
 507 1339 507 1339 471.5 1356.5 c 128,-1,17
 436 1374 436 1374 377 1374 c 0,18,19
 298 1374 298 1374 259 1341.5 c 128,-1,20
 220 1309 220 1309 211 1249 c 1,21,-1
 74 1283 l 1,22,23
 86 1372 86 1372 162 1431.5 c 128,-1,24
 238 1491 238 1491 379 1491 c 0,25,26
 543 1491 543 1491 611 1430 c 0,27,28
 678 1368 678 1368 678 1249 c 2,29,-1
 678 1009 l 1,30,-1
 677 948 l 2,31,32
 677 814 677 814 718 764 c 1,33,-1
 570 764 l 1,34,35
 550 804 550 804 548 853 c 1,0,1
533 1104 m 1,36,37
 480 1090 480 1090 341 1068 c 0,38,39
 251 1054 251 1054 224 1029 c 0,40,41
 196 1003 196 1003 196 965 c 0,42,43
 196 924 196 924 230 895 c 128,-1,44
 264 866 264 866 326 866 c 0,45,46
 399 866 399 866 453 905 c 128,-1,47
 507 944 507 944 525 1001 c 0,48,49
 532 1021 532 1021 533 1104 c 1,36,37
EndSplineSet
EndChar
StartChar: guillemotleft
Encoding: 171 171 169
Width: 1139
Flags: W
LayerCount: 2
Fore
SplineSet
340 528 m 1,0,-1
 599 72 l 1,1,-1
 453 72 l 1,2,-1
 134 528 l 1,3,-1
 453 984 l 1,4,-1
 601 984 l 1,5,-1
 340 528 l 1,0,-1
727 528 m 1,6,-1
 991 72 l 1,7,-1
 839 72 l 1,8,-1
 526 528 l 1,9,-1
 839 984 l 1,10,-1
 991 984 l 1,11,-1
 727 528 l 1,6,-1
EndSplineSet
EndChar
StartChar: logicalnot
Encoding: 172 172 164
Width: 1196
Flags: W
LayerCount: 2
Fore
SplineSet
1082 424 m 1,0,-1
 912 424 l 1,1,-1
 912 862 l 1,2,-1
 114 862 l 1,3,-1
 114 1030 l 1,4,-1
 1082 1030 l 1,5,-1
 1082 424 l 1,0,-1
EndSplineSet
EndChar
StartChar: registered
Encoding: 174 174 138
Width: 1509
Flags: W
LayerCount: 2
Fore
SplineSet
758 1491 m 256,0,1
 948 1491 948 1491 1129 1393.5 c 128,-1,2
 1310 1296 1310 1296 1411 1114.5 c 128,-1,3
 1512 933 1512 933 1512 736 c 0,4,5
 1512 541 1512 541 1412.5 361 c 128,-1,6
 1313 181 1313 181 1133.5 81.5 c 128,-1,7
 954 -18 954 -18 758 -18 c 256,8,9
 562 -18 562 -18 382.5 81.5 c 128,-1,10
 203 181 203 181 103 361 c 128,-1,11
 3 541 3 541 3 736 c 0,12,13
 3 933 3 933 104.5 1114.5 c 128,-1,14
 206 1296 206 1296 387 1393.5 c 128,-1,15
 568 1491 568 1491 758 1491 c 256,0,1
758 1366 m 0,16,17
 599 1366 599 1366 448.5 1284.5 c 128,-1,18
 298 1203 298 1203 213 1051.5 c 128,-1,19
 128 900 128 900 128 736 c 0,20,21
 128 573 128 573 211.5 423.5 c 128,-1,22
 295 274 295 274 445 190.5 c 128,-1,23
 595 107 595 107 758 107 c 256,24,25
 921 107 921 107 1071 190.5 c 128,-1,26
 1221 274 1221 274 1304 423.5 c 128,-1,27
 1387 573 1387 573 1387 736 c 0,28,29
 1387 900 1387 900 1302.5 1051.5 c 128,-1,30
 1218 1203 1218 1203 1067 1284.5 c 128,-1,31
 916 1366 916 1366 758 1366 c 0,16,17
427 319 m 1,32,-1
 427 1131 l 1,33,-1
 706 1131 l 2,34,35
 849 1131 849 1131 913 1108.5 c 128,-1,36
 977 1086 977 1086 1015 1030 c 128,-1,37
 1053 974 1053 974 1053 911 c 0,38,39
 1053 822 1053 822 989.5 756 c 128,-1,40
 926 690 926 690 821 682 c 1,41,42
 864 664 864 664 890 639 c 0,43,44
 939 591 939 591 1010 478 c 2,45,-1
 1109 319 l 1,46,-1
 949 319 l 1,47,-1
 877 447 l 2,48,49
 792 598 792 598 740 636 c 0,50,51
 704 664 704 664 635 664 c 2,52,-1
 558 664 l 1,53,-1
 558 319 l 1,54,-1
 427 319 l 1,32,-1
558 776 m 1,55,-1
 717 776 l 2,56,57
 831 776 831 776 872.5 810 c 128,-1,58
 914 844 914 844 914 900 c 0,59,60
 914 936 914 936 894 964.5 c 128,-1,61
 874 993 874 993 838.5 1007 c 128,-1,62
 803 1021 803 1021 707 1021 c 2,63,-1
 558 1021 l 1,64,-1
 558 776 l 1,55,-1
EndSplineSet
EndChar
StartChar: overscore
Encoding: 175 175 256
Width: 1131
Flags: W
LayerCount: 2
Fore
SplineSet
-31 1566 m 1,0,-1
 -31 1695 l 1,1,-1
 1162 1695 l 1,2,-1
 1162 1566 l 1,3,-1
 -31 1566 l 1,0,-1
EndSplineSet
EndChar
StartChar: degree
Encoding: 176 176 131
Width: 819
Flags: W
LayerCount: 2
Fore
SplineSet
128 1214 m 0,0,1
 128 1329 128 1329 209.5 1410 c 128,-1,2
 291 1491 291 1491 405 1491 c 0,3,4
 521 1491 521 1491 602 1410 c 128,-1,5
 683 1329 683 1329 683 1214 c 256,6,7
 683 1099 683 1099 601.5 1017.5 c 128,-1,8
 520 936 520 936 405 936 c 0,9,10
 291 936 291 936 209.5 1017 c 128,-1,11
 128 1098 128 1098 128 1214 c 0,0,1
237 1214 m 256,12,13
 237 1144 237 1144 286.5 1094.5 c 128,-1,14
 336 1045 336 1045 406 1045 c 0,15,16
 475 1045 475 1045 524.5 1094.5 c 128,-1,17
 574 1144 574 1144 574 1214 c 256,18,19
 574 1284 574 1284 524.5 1333.5 c 128,-1,20
 475 1383 475 1383 406 1383 c 0,21,22
 336 1383 336 1383 286.5 1333.5 c 128,-1,23
 237 1284 237 1284 237 1214 c 256,12,13
EndSplineSet
EndChar
StartChar: plusminus
Encoding: 177 177 147
Width: 1124
Flags: W
LayerCount: 2
Fore
SplineSet
477 260 m 1,0,-1
 477 663 l 1,1,-1
 78 663 l 1,2,-1
 78 830 l 1,3,-1
 477 830 l 1,4,-1
 477 1229 l 1,5,-1
 647 1229 l 1,6,-1
 647 830 l 1,7,-1
 1046 830 l 1,8,-1
 1046 663 l 1,9,-1
 647 663 l 1,10,-1
 647 260 l 1,11,-1
 477 260 l 1,0,-1
1046 0 m 1,12,-1
 78 0 l 1,13,-1
 78 168 l 1,14,-1
 1046 168 l 1,15,-1
 1046 0 l 1,12,-1
EndSplineSet
EndChar
StartChar: twosuperior
Encoding: 178 178 240
Width: 682
Flags: W
LayerCount: 2
Fore
SplineSet
25 733 m 1,0,1
 31 790 31 790 72 847 c 0,2,3
 135 933 135 933 279 1037.5 c 128,-1,4
 423 1142 423 1142 450 1172 c 0,5,6
 487 1213 487 1213 487 1256 c 0,7,8
 487 1304 487 1304 452 1335 c 128,-1,9
 417 1366 417 1366 349 1366 c 0,10,11
 283 1366 283 1366 250.5 1342.5 c 128,-1,12
 218 1319 218 1319 197 1252 c 1,13,-1
 46 1268 l 1,14,15
 75 1379 75 1379 146.5 1431.5 c 128,-1,16
 218 1484 218 1484 352 1484 c 0,17,18
 503 1484 503 1484 573.5 1425 c 128,-1,19
 644 1366 644 1366 644 1281 c 0,20,21
 644 1197 644 1197 585 1122 c 0,22,23
 540 1066 540 1066 380 951 c 0,24,25
 297 890 297 890 262 854 c 1,26,-1
 648 854 l 1,27,-1
 648 733 l 1,28,-1
 25 733 l 1,0,1
EndSplineSet
EndChar
StartChar: threesuperior
Encoding: 179 179 241
Width: 682
Flags: W
LayerCount: 2
Fore
SplineSet
33 929 m 1,0,-1
 179 944 l 1,1,2
 199 884 199 884 231 862 c 0,3,4
 274 832 274 832 333 832 c 0,5,6
 404 832 404 832 447 871 c 128,-1,7
 490 910 490 910 490 965 c 0,8,9
 490 1015 490 1015 454 1045 c 128,-1,10
 418 1075 418 1075 331 1075 c 0,11,12
 319 1075 319 1075 298 1073 c 0,13,14
 284 1072 284 1072 276 1072 c 1,15,-1
 298 1182 l 1,16,17
 379 1181 379 1181 416.5 1211 c 128,-1,18
 454 1241 454 1241 454 1284 c 0,19,20
 454 1321 454 1321 424 1347 c 128,-1,21
 394 1373 394 1373 335 1373 c 0,22,23
 279 1373 279 1373 247.5 1351 c 128,-1,24
 216 1329 216 1329 193 1271 c 1,25,-1
 50 1294 l 1,26,27
 91 1400 91 1400 153.5 1442 c 128,-1,28
 216 1484 216 1484 336 1484 c 0,29,30
 480 1484 480 1484 545.5 1430.5 c 128,-1,31
 611 1377 611 1377 611 1297 c 0,32,33
 611 1242 611 1242 575.5 1199 c 128,-1,34
 540 1156 540 1156 473 1137 c 1,35,36
 562 1115 562 1115 604 1064.5 c 128,-1,37
 646 1014 646 1014 646 946 c 0,38,39
 646 853 646 853 567 784 c 128,-1,40
 488 715 488 715 342 715 c 0,41,42
 202 715 202 715 128 770.5 c 128,-1,43
 54 826 54 826 33 929 c 1,0,-1
EndSplineSet
EndChar
StartChar: acute
Encoding: 180 180 141
Width: 682
Flags: W
LayerCount: 2
Fore
SplineSet
222 1194 m 1,0,-1
 355 1474 l 1,1,-1
 591 1474 l 1,2,-1
 371 1194 l 1,3,-1
 222 1194 l 1,0,-1
EndSplineSet
EndChar
StartChar: mu1
Encoding: 181 181 151
Width: 1180
Flags: W
LayerCount: 2
Fore
SplineSet
1018 1062 m 1,0,-1
 1018 0 l 1,1,-1
 857 0 l 1,2,-1
 857 126 l 1,3,4
 805 46 805 46 754 16 c 0,5,6
 684 -25 684 -25 591 -25 c 0,7,8
 508 -25 508 -25 444 8 c 0,9,10
 396 33 396 33 338 107 c 1,11,-1
 338 -407 l 1,12,-1
 160 -407 l 1,13,-1
 160 1062 l 1,14,-1
 338 1062 l 1,15,-1
 338 612 l 2,16,17
 338 367 338 367 364 294.5 c 128,-1,18
 390 222 390 222 448.5 180 c 128,-1,19
 507 138 507 138 583 138 c 0,20,21
 663 138 663 138 726 182 c 128,-1,22
 789 226 789 226 815 295.5 c 128,-1,23
 841 365 841 365 841 609 c 2,24,-1
 841 1062 l 1,25,-1
 1018 1062 l 1,0,-1
EndSplineSet
EndChar
StartChar: paragraph
Encoding: 182 182 136
Width: 1100
Flags: W
LayerCount: 2
Fore
SplineSet
405 -407 m 1,0,-1
 405 638 l 1,1,2
 218 648 218 648 109.5 759.5 c 128,-1,3
 1 871 1 871 1 1044 c 0,4,5
 1 1237 1 1237 121.5 1351.5 c 128,-1,6
 242 1466 242 1466 474 1466 c 2,7,-1
 1107 1466 l 1,8,-1
 1107 1293 l 1,9,-1
 963 1293 l 1,10,-1
 963 -407 l 1,11,-1
 793 -407 l 1,12,-1
 793 1293 l 1,13,-1
 570 1293 l 1,14,-1
 570 -407 l 1,15,-1
 405 -407 l 1,0,-1
EndSplineSet
EndChar
StartChar: periodcentered
Encoding: 183 183 194
AltUni2: 002219.ffffffff.0
Width: 569
Flags: W
LayerCount: 2
Fore
SplineSet
185 619 m 1,0,-1
 185 824 l 1,1,-1
 390 824 l 1,2,-1
 390 619 l 1,3,-1
 185 619 l 1,0,-1
EndSplineSet
EndChar
StartChar: cedilla
Encoding: 184 184 220
Width: 682
Flags: W
LayerCount: 2
Fore
SplineSet
216 -154 m 1,0,-1
 268 23 l 1,1,-1
 402 23 l 1,2,-1
 369 -84 l 1,3,4
 454 -94 454 -94 497 -136.5 c 128,-1,5
 540 -179 540 -179 540 -231 c 0,6,7
 540 -306 540 -306 468 -363.5 c 128,-1,8
 396 -421 396 -421 251 -421 c 0,9,10
 169 -421 169 -421 107 -409 c 1,11,-1
 118 -292 l 1,12,13
 182 -296 182 -296 212 -296 c 0,14,15
 306 -296 306 -296 344 -270 c 0,16,17
 373 -250 373 -250 373 -221 c 0,18,19
 373 -203 373 -203 361.5 -189 c 128,-1,20
 350 -175 350 -175 319 -165 c 128,-1,21
 288 -155 288 -155 216 -154 c 1,0,-1
EndSplineSet
EndChar
StartChar: onesuperior
Encoding: 185 185 239
Width: 682
Flags: W
LayerCount: 2
Fore
SplineSet
331 733 m 1,0,-1
 331 1287 l 1,1,2
 229 1206 229 1206 107 1174 c 1,3,-1
 107 1297 l 1,4,5
 169 1317 169 1317 245 1370 c 128,-1,6
 321 1423 321 1423 368 1484 c 1,7,-1
 476 1484 l 1,8,-1
 476 733 l 1,9,-1
 331 733 l 1,0,-1
EndSplineSet
EndChar
StartChar: ordmasculine
Encoding: 186 186 158
Width: 748
Flags: W
LayerCount: 2
Fore
SplineSet
373 1491 m 256,0,1
 518 1491 518 1491 609.5 1391 c 128,-1,2
 701 1291 701 1291 701 1115 c 0,3,4
 701 940 701 940 609 840 c 128,-1,5
 517 740 517 740 374 740 c 0,6,7
 229 740 229 740 137 838 c 128,-1,8
 45 936 45 936 45 1111 c 0,9,10
 45 1291 45 1291 136.5 1391 c 128,-1,11
 228 1491 228 1491 373 1491 c 256,0,1
373 1358 m 0,12,13
 292 1358 292 1358 242.5 1301 c 128,-1,14
 193 1244 193 1244 193 1115 c 0,15,16
 193 989 193 989 243.5 930.5 c 128,-1,17
 294 872 294 872 373 872 c 0,18,19
 453 872 453 872 503 930.5 c 128,-1,20
 553 989 553 989 553 1120 c 0,21,22
 553 1242 553 1242 502.5 1300 c 128,-1,23
 452 1358 452 1358 373 1358 c 0,12,13
EndSplineSet
EndChar
StartChar: guillemotright
Encoding: 187 187 170
Width: 1139
Flags: W
LayerCount: 2
Fore
SplineSet
791 528 m 1,0,-1
 530 984 l 1,1,-1
 678 984 l 1,2,-1
 997 528 l 1,3,-1
 678 72 l 1,4,-1
 531 72 l 1,5,-1
 791 528 l 1,0,-1
404 528 m 1,6,-1
 140 984 l 1,7,-1
 291 984 l 1,8,-1
 605 528 l 1,9,-1
 291 72 l 1,10,-1
 140 72 l 1,11,-1
 404 528 l 1,6,-1
EndSplineSet
EndChar
StartChar: onequarter
Encoding: 188 188 243
Width: 1708
Flags: W
LayerCount: 2
Fore
SplineSet
252 -57 m 1,0,-1
 1354 1491 l 1,1,-1
 1510 1491 l 1,2,-1
 409 -57 l 1,3,-1
 252 -57 l 1,0,-1
331 733 m 1,4,-1
 331 1287 l 1,5,6
 229 1206 229 1206 107 1174 c 1,7,-1
 107 1297 l 1,8,9
 169 1317 169 1317 245 1370 c 128,-1,10
 321 1423 321 1423 368 1484 c 1,11,-1
 476 1484 l 1,12,-1
 476 733 l 1,13,-1
 331 733 l 1,4,-1
1430 -31 m 1,14,-1
 1430 123 l 1,15,-1
 1047 123 l 1,16,-1
 1047 246 l 1,17,-1
 1452 720 l 1,18,-1
 1574 720 l 1,19,-1
 1574 231 l 1,20,-1
 1678 231 l 1,21,-1
 1678 123 l 1,22,-1
 1574 123 l 1,23,-1
 1574 -31 l 1,24,-1
 1430 -31 l 1,14,-1
1430 231 m 1,25,-1
 1430 494 l 1,26,-1
 1200 231 l 1,27,-1
 1430 231 l 1,25,-1
EndSplineSet
EndChar
StartChar: onehalf
Encoding: 189 189 242
Width: 1708
Flags: W
LayerCount: 2
Fore
SplineSet
228 -57 m 1,0,-1
 1329 1491 l 1,1,-1
 1486 1491 l 1,2,-1
 385 -57 l 1,3,-1
 228 -57 l 1,0,-1
331 733 m 1,4,-1
 331 1287 l 1,5,6
 229 1206 229 1206 107 1174 c 1,7,-1
 107 1297 l 1,8,9
 169 1317 169 1317 245 1370 c 128,-1,10
 321 1423 321 1423 368 1484 c 1,11,-1
 476 1484 l 1,12,-1
 476 733 l 1,13,-1
 331 733 l 1,4,-1
1049 -31 m 1,14,15
 1055 25 1055 25 1097 82 c 0,16,17
 1159 169 1159 169 1303 273 c 128,-1,18
 1447 377 1447 377 1474 408 c 0,19,20
 1511 449 1511 449 1511 492 c 0,21,22
 1511 540 1511 540 1476.5 570.5 c 128,-1,23
 1442 601 1442 601 1373 601 c 0,24,25
 1307 601 1307 601 1274.5 577.5 c 128,-1,26
 1242 554 1242 554 1221 488 c 1,27,-1
 1070 503 l 1,28,29
 1099 615 1099 615 1171 667.5 c 128,-1,30
 1243 720 1243 720 1376 720 c 0,31,32
 1527 720 1527 720 1597.5 661 c 128,-1,33
 1668 602 1668 602 1668 517 c 0,34,35
 1668 433 1668 433 1609 358 c 0,36,37
 1564 302 1564 302 1405 186 c 0,38,39
 1321 125 1321 125 1286 90 c 1,40,-1
 1672 90 l 1,41,-1
 1672 -31 l 1,42,-1
 1049 -31 l 1,14,15
EndSplineSet
EndChar
StartChar: threequarters
Encoding: 190 190 244
Width: 1708
Flags: W
LayerCount: 2
Fore
SplineSet
252 -57 m 1,0,-1
 1353 1491 l 1,1,-1
 1510 1491 l 1,2,-1
 409 -57 l 1,3,-1
 252 -57 l 1,0,-1
33 929 m 1,4,-1
 179 944 l 1,5,6
 199 884 199 884 231 862 c 0,7,8
 274 832 274 832 333 832 c 0,9,10
 404 832 404 832 447 871 c 128,-1,11
 490 910 490 910 490 965 c 0,12,13
 490 1015 490 1015 454 1045 c 128,-1,14
 418 1075 418 1075 334 1075 c 0,15,16
 284 1072 284 1072 276 1072 c 1,17,-1
 298 1182 l 1,18,19
 379 1181 379 1181 416.5 1211 c 128,-1,20
 454 1241 454 1241 454 1284 c 0,21,22
 454 1321 454 1321 424 1347 c 128,-1,23
 394 1373 394 1373 335 1373 c 0,24,25
 279 1373 279 1373 247.5 1351 c 128,-1,26
 216 1329 216 1329 193 1271 c 1,27,-1
 50 1294 l 1,28,29
 91 1400 91 1400 153.5 1442 c 128,-1,30
 216 1484 216 1484 336 1484 c 0,31,32
 480 1484 480 1484 545.5 1430.5 c 128,-1,33
 611 1377 611 1377 611 1297 c 0,34,35
 611 1242 611 1242 575.5 1199 c 128,-1,36
 540 1156 540 1156 473 1137 c 1,37,38
 562 1115 562 1115 604 1064.5 c 128,-1,39
 646 1014 646 1014 646 946 c 0,40,41
 646 853 646 853 567 784 c 128,-1,42
 488 715 488 715 342 715 c 0,43,44
 202 715 202 715 128 770.5 c 128,-1,45
 54 826 54 826 33 929 c 1,4,-1
1429 -31 m 1,46,-1
 1429 123 l 1,47,-1
 1047 123 l 1,48,-1
 1047 246 l 1,49,-1
 1451 720 l 1,50,-1
 1574 720 l 1,51,-1
 1574 231 l 1,52,-1
 1678 231 l 1,53,-1
 1678 123 l 1,54,-1
 1574 123 l 1,55,-1
 1574 -31 l 1,56,-1
 1429 -31 l 1,46,-1
1429 231 m 1,57,-1
 1429 494 l 1,58,-1
 1200 231 l 1,59,-1
 1429 231 l 1,57,-1
EndSplineSet
EndChar
StartChar: questiondown
Encoding: 191 191 162
Width: 1251
Flags: W
LayerCount: 2
Fore
SplineSet
733 1062 m 1,0,-1
 733 857 l 1,1,-1
 528 857 l 1,2,-1
 528 1062 l 1,3,-1
 733 1062 l 1,0,-1
721 701 m 1,4,5
 722 667 722 667 722 650 c 0,6,7
 722 540 722 540 692 463 c 0,8,9
 670 405 670 405 621 346 c 0,10,11
 585 303 585 303 491.5 221 c 128,-1,12
 398 139 398 139 370.5 90 c 128,-1,13
 343 41 343 41 343 -17 c 0,14,15
 343 -123 343 -123 425 -202 c 128,-1,16
 507 -281 507 -281 626 -281 c 0,17,18
 740 -281 740 -281 817.5 -209 c 128,-1,19
 895 -137 895 -137 919 15 c 1,20,-1
 1103 -6 l 1,21,22
 1078 -209 1078 -209 954.5 -319 c 128,-1,23
 831 -429 831 -429 629 -429 c 0,24,25
 413 -429 413 -429 285.5 -312 c 128,-1,26
 158 -195 158 -195 158 -29 c 0,27,28
 158 68 158 68 202.5 148 c 128,-1,29
 247 228 247 228 378 344 c 0,30,31
 467 423 467 423 494 460 c 128,-1,32
 521 497 521 497 533.5 545 c 128,-1,33
 546 593 546 593 548 701 c 1,34,-1
 721 701 l 1,4,5
EndSplineSet
EndChar
StartChar: AE
Encoding: 198 198 144
Width: 2048
Flags: W
LayerCount: 2
Fore
SplineSet
1 0 m 1,0,-1
 706 1466 l 1,1,-1
 1909 1466 l 1,2,-1
 1909 1293 l 1,3,-1
 1172 1293 l 1,4,-1
 1172 842 l 1,5,-1
 1857 842 l 1,6,-1
 1857 670 l 1,7,-1
 1172 670 l 1,8,-1
 1172 173 l 1,9,-1
 1936 173 l 1,10,-1
 1936 0 l 1,11,-1
 977 0 l 1,12,-1
 977 423 l 1,13,-1
 411 423 l 1,14,-1
 211 0 l 1,15,-1
 1 0 l 1,0,-1
493 595 m 1,16,-1
 977 595 l 1,17,-1
 977 1293 l 1,18,-1
 832 1293 l 1,19,-1
 493 595 l 1,16,-1
EndSplineSet
EndChar
StartChar: multiply
Encoding: 215 215 238
Width: 1196
Flags: W
LayerCount: 2
Fore
SplineSet
161 409 m 1,0,-1
 476 724 l 1,1,-1
 162 1038 l 1,2,-1
 284 1160 l 1,3,-1
 598 846 l 1,4,-1
 911 1159 l 1,5,-1
 1031 1038 l 1,6,-1
 719 725 l 1,7,-1
 1033 411 l 1,8,-1
 911 289 l 1,9,-1
 597 603 l 1,10,-1
 282 288 l 1,11,-1
 161 409 l 1,0,-1
EndSplineSet
EndChar
StartChar: Oslash
Encoding: 216 216 145
Width: 1593
Flags: W
LayerCount: 2
Fore
SplineSet
1250 1332 m 1,0,-1
 1418 1520 l 1,1,-1
 1517 1436 l 1,2,-1
 1341 1238 l 1,3,4
 1427 1110 1427 1110 1457 1014 c 0,5,6
 1497 888 1497 888 1497 732 c 0,7,8
 1497 507 1497 507 1406 331 c 128,-1,9
 1315 155 1315 155 1150.5 65 c 128,-1,10
 986 -25 986 -25 801 -25 c 0,11,12
 663 -25 663 -25 551 14 c 0,13,14
 465 44 465 44 350 129 c 1,15,-1
 182 -59 l 1,16,-1
 83 25 l 1,17,-1
 259 222 l 1,18,19
 161 371 161 371 128 476.5 c 128,-1,20
 95 582 95 582 95 730 c 0,21,22
 95 956 95 956 185 1132.5 c 128,-1,23
 275 1309 275 1309 437.5 1400 c 128,-1,24
 600 1491 600 1491 799 1491 c 0,25,26
 933 1491 933 1491 1033.5 1455.5 c 128,-1,27
 1134 1420 1134 1420 1250 1332 c 1,0,-1
1130 1197 m 1,28,29
 1036 1271 1036 1271 965.5 1298 c 128,-1,30
 895 1325 895 1325 800 1325 c 0,31,32
 581 1325 581 1325 438 1176.5 c 128,-1,33
 295 1028 295 1028 295 733 c 0,34,35
 295 617 295 617 317 527 c 0,36,37
 333 460 333 460 384 362 c 1,38,-1
 1130 1197 l 1,28,29
1212 1094 m 1,39,-1
 469 262 l 1,40,41
 546 199 546 199 611 174 c 0,42,43
 696 141 696 141 795 141 c 0,44,45
 1013 141 1013 141 1155 295 c 128,-1,46
 1297 449 1297 449 1297 727 c 0,47,48
 1297 935 1297 935 1212 1094 c 1,39,-1
EndSplineSet
EndChar
StartChar: Thorn
Encoding: 222 222 235
Width: 1366
Flags: W
LayerCount: 2
Fore
SplineSet
158 0 m 1,0,-1
 158 1466 l 1,1,-1
 352 1466 l 1,2,-1
 352 1168 l 1,3,-1
 711 1168 l 2,4,5
 857 1168 857 1168 935 1154 c 0,6,7
 1043 1135 1043 1135 1116 1084.5 c 128,-1,8
 1189 1034 1189 1034 1233 943 c 128,-1,9
 1277 852 1277 852 1277 743 c 0,10,11
 1277 557 1277 557 1158 427.5 c 128,-1,12
 1039 298 1039 298 728 298 c 2,13,-1
 352 298 l 1,14,-1
 352 0 l 1,15,-1
 158 0 l 1,0,-1
352 471 m 1,16,-1
 731 471 l 2,17,18
 919 471 919 471 998 541 c 128,-1,19
 1077 611 1077 611 1077 737 c 0,20,21
 1077 828 1077 828 1031 894 c 128,-1,22
 985 960 985 960 909 981 c 0,23,24
 860 995 860 995 727 995 c 2,25,-1
 352 995 l 1,26,-1
 352 471 l 1,16,-1
EndSplineSet
EndChar
StartChar: germandbls
Encoding: 223 223 137
Width: 1251
Flags: W
LayerCount: 2
Fore
SplineSet
153 0 m 1,0,-1
 153 999 l 2,1,2
 153 1182 153 1182 197.5 1280.5 c 128,-1,3
 242 1379 242 1379 346 1435 c 128,-1,4
 450 1491 450 1491 580 1491 c 0,5,6
 753 1491 753 1491 852 1404.5 c 128,-1,7
 951 1318 951 1318 951 1204 c 0,8,9
 951 1153 951 1153 933 1099 c 128,-1,10
 915 1045 915 1045 869 964.5 c 128,-1,11
 823 884 823 884 811 852.5 c 128,-1,12
 799 821 799 821 799 797 c 0,13,14
 799 765 799 765 821 734 c 0,15,16
 842 702 842 702 942 637 c 0,17,18
 1078 548 1078 548 1123 494 c 0,19,20
 1187 417 1187 417 1187 312 c 0,21,22
 1187 173 1187 173 1084.5 74 c 128,-1,23
 982 -25 982 -25 822 -25 c 0,24,25
 696 -25 696 -25 601 42.5 c 128,-1,26
 506 110 506 110 459 216 c 1,27,-1
 614 288 l 1,28,29
 664 195 664 195 714 159 c 128,-1,30
 764 123 764 123 819 123 c 0,31,32
 895 123 895 123 949 175 c 128,-1,33
 1003 227 1003 227 1003 297 c 0,34,35
 1003 353 1003 353 971 393 c 0,36,37
 950 419 950 419 859 481 c 0,38,39
 693 595 693 595 654 652 c 0,40,41
 614 709 614 709 614 769 c 0,42,43
 614 808 614 808 627.5 848 c 128,-1,44
 641 888 641 888 692.5 976 c 128,-1,45
 744 1064 744 1064 760 1108 c 128,-1,46
 776 1152 776 1152 776 1186 c 0,47,48
 776 1248 776 1248 721.5 1295.5 c 128,-1,49
 667 1343 667 1343 576 1343 c 0,50,51
 469 1343 469 1343 401 1277 c 128,-1,52
 333 1211 333 1211 333 991 c 2,53,-1
 333 0 l 1,54,-1
 153 0 l 1,0,-1
EndSplineSet
EndChar
StartChar: ae
Encoding: 230 230 160
Width: 1821
Flags: W
LayerCount: 2
Fore
SplineSet
1734 325 m 1,0,1
 1684 158 1684 158 1564 67 c 128,-1,2
 1444 -24 1444 -24 1266 -24 c 0,3,4
 1139 -24 1139 -24 1043.5 24 c 128,-1,5
 948 72 948 72 871 174 c 1,6,7
 767 72 767 72 660.5 24 c 128,-1,8
 554 -24 554 -24 431 -24 c 0,9,10
 259 -24 259 -24 163.5 64.5 c 128,-1,11
 68 153 68 153 68 280 c 0,12,13
 68 366 68 366 117.5 441.5 c 128,-1,14
 167 517 167 517 255.5 556 c 128,-1,15
 344 595 344 595 538 620 c 0,16,17
 688 640 688 640 790 669 c 1,18,19
 791 694 791 694 791 710 c 0,20,21
 791 836 791 836 738.5 886.5 c 128,-1,22
 686 937 686 937 555 937 c 0,23,24
 468 937 468 937 408 916 c 128,-1,25
 348 895 348 895 319.5 856.5 c 128,-1,26
 291 818 291 818 272 733 c 1,27,-1
 97 754 l 1,28,29
 125 871 125 871 177.5 939.5 c 128,-1,30
 230 1008 230 1008 328 1047 c 128,-1,31
 426 1086 426 1086 557 1086 c 0,32,33
 724 1086 724 1086 826 1036 c 0,34,35
 885 1007 885 1007 925 943 c 1,36,37
 989 1013 989 1013 1070 1049.5 c 128,-1,38
 1151 1086 1151 1086 1266 1086 c 0,39,40
 1428 1086 1428 1086 1534 1007.5 c 128,-1,41
 1640 929 1640 929 1689 800 c 128,-1,42
 1738 671 1738 671 1738 546 c 0,43,44
 1738 527 1738 527 1736 485 c 1,45,-1
 969 485 l 1,46,47
 971 341 971 341 1004.5 276 c 128,-1,48
 1038 211 1038 211 1111.5 167.5 c 128,-1,49
 1185 124 1185 124 1273 124 c 0,50,51
 1376 124 1376 124 1447.5 183 c 128,-1,52
 1519 242 1519 242 1546 349 c 1,53,-1
 1734 325 l 1,0,1
969 633 m 1,54,-1
 1553 633 l 1,55,56
 1539 791 1539 791 1463 864 c 128,-1,57
 1387 937 1387 937 1265 937 c 0,58,59
 1139 937 1139 937 1058.5 857 c 128,-1,60
 978 777 978 777 969 633 c 1,54,-1
793 533 m 1,61,62
 714 499 714 499 471 460 c 0,63,64
 362 443 362 443 318 409 c 0,65,66
 259 362 259 362 259 286 c 0,67,68
 259 215 259 215 312 166.5 c 128,-1,69
 365 118 365 118 466 118 c 0,70,71
 581 118 581 118 666.5 175 c 128,-1,72
 752 232 752 232 778 317 c 0,73,74
 793 369 793 369 793 533 c 1,61,62
EndSplineSet
EndChar
StartChar: eth
Encoding: 240 240 232
Width: 1139
Flags: W
LayerCount: 2
Fore
SplineSet
308 1466 m 1,0,-1
 525 1466 l 1,1,2
 597 1412 597 1412 650 1364 c 1,3,-1
 864 1466 l 1,4,-1
 909 1364 l 1,5,-1
 737 1281 l 1,6,7
 1057 913 1057 913 1057 521 c 0,8,9
 1057 268 1057 268 918 121.5 c 128,-1,10
 779 -25 779 -25 564 -25 c 0,11,12
 309 -25 309 -25 166 169 c 0,13,14
 73 296 73 296 73 517 c 0,15,16
 73 778 73 778 202 920 c 128,-1,17
 331 1062 331 1062 525 1062 c 0,18,19
 583 1062 583 1062 627 1050 c 128,-1,20
 671 1038 671 1038 737 1003 c 1,21,22
 701 1076 701 1076 674 1116.5 c 128,-1,23
 647 1157 647 1157 595 1216 c 1,24,-1
 320 1089 l 1,25,-1
 276 1192 l 1,26,-1
 515 1301 l 1,27,28
 418 1391 418 1391 308 1466 c 1,0,-1
870 529 m 0,29,30
 870 721 870 721 779.5 822.5 c 128,-1,31
 689 924 689 924 557 924 c 0,32,33
 427 924 427 924 342 822.5 c 128,-1,34
 257 721 257 721 257 512 c 0,35,36
 257 318 257 318 344.5 220 c 128,-1,37
 432 122 432 122 563 122 c 0,38,39
 691 122 691 122 780.5 225.5 c 128,-1,40
 870 329 870 329 870 529 c 0,29,30
EndSplineSet
EndChar
StartChar: divide
Encoding: 247 247 183
Width: 1124
Flags: W
LayerCount: 2
Fore
SplineSet
459 922 m 1,0,-1
 459 1127 l 1,1,-1
 664 1127 l 1,2,-1
 664 922 l 1,3,-1
 459 922 l 1,0,-1
1046 639 m 1,4,-1
 78 639 l 1,5,-1
 78 807 l 1,6,-1
 1046 807 l 1,7,-1
 1046 639 l 1,4,-1
459 319 m 1,8,-1
 459 524 l 1,9,-1
 664 524 l 1,10,-1
 664 319 l 1,11,-1
 459 319 l 1,8,-1
EndSplineSet
EndChar
StartChar: oslash
Encoding: 248 248 161
Width: 1251
Flags: W
LayerCount: 2
Fore
SplineSet
919 999 m 1,0,-1
 1018 1127 l 1,1,-1
 1114 1057 l 1,2,-1
 1007 919 l 1,3,4
 1070 833 1070 833 1093 763 c 0,5,6
 1124 663 1124 663 1124 530 c 0,7,8
 1124 230 1124 230 955 89 c 0,9,10
 818 -24 818 -24 625 -24 c 0,11,12
 466 -24 466 -24 344 56 c 1,13,-1
 239 -79 l 1,14,-1
 145 -8 l 1,15,-1
 253 133 l 1,16,17
 194 201 194 201 169 269 c 0,18,19
 129 378 129 378 129 516 c 0,20,21
 129 817 129 817 276 951.5 c 128,-1,22
 423 1086 423 1086 621 1086 c 0,23,24
 703 1086 703 1086 772 1065 c 128,-1,25
 841 1044 841 1044 919 999 c 1,0,-1
818 867 m 1,26,27
 727 937 727 937 627 937 c 0,28,29
 494 937 494 937 404 835 c 128,-1,30
 314 733 314 733 314 531 c 0,31,32
 314 381 314 381 366 280 c 1,33,-1
 818 867 l 1,26,27
893 770 m 1,34,-1
 444 187 l 1,35,36
 522 124 522 124 620 124 c 0,37,38
 759 124 759 124 849.5 226 c 128,-1,39
 940 328 940 328 940 532 c 0,40,41
 940 608 940 608 928 665 c 0,42,43
 920 707 920 707 893 770 c 1,34,-1
EndSplineSet
EndChar
StartChar: thorn
Encoding: 254 254 236
Width: 1139
Flags: W
LayerCount: 2
Fore
SplineSet
135 -407 m 1,0,-1
 135 1466 l 1,1,-1
 315 1466 l 1,2,-1
 315 950 l 1,3,4
 388 1027 388 1027 443 1052 c 0,5,6
 515 1086 515 1086 607 1086 c 0,7,8
 743 1086 743 1086 847 1016 c 128,-1,9
 951 946 951 946 1004 818.5 c 128,-1,10
 1057 691 1057 691 1057 539 c 0,11,12
 1057 375 1057 375 998.5 245 c 128,-1,13
 940 115 940 115 828.5 45.5 c 128,-1,14
 717 -24 717 -24 595 -24 c 0,15,16
 512 -24 512 -24 441 9 c 0,17,18
 387 35 387 35 315 110 c 1,19,-1
 315 -407 l 1,20,-1
 135 -407 l 1,0,-1
298 525 m 256,21,22
 298 320 298 320 381 222 c 128,-1,23
 464 124 464 124 582 124 c 0,24,25
 702 124 702 124 787.5 225.5 c 128,-1,26
 873 327 873 327 873 540 c 0,27,28
 873 743 873 743 789.5 844 c 128,-1,29
 706 945 706 945 590 945 c 0,30,31
 475 945 475 945 386.5 837.5 c 128,-1,32
 298 730 298 730 298 525 c 256,21,22
EndSplineSet
EndChar
StartChar: dcaron
Encoding: 271 271 263
Width: 1259
Flags: W
LayerCount: 2
Fore
SplineSet
1078 1281 m 1,0,-1
 1078 1466 l 1,1,-1
 1262 1466 l 1,2,-1
 1262 1281 l 2,3,4
 1262 1180 1262 1180 1226 1117.5 c 128,-1,5
 1190 1055 1190 1055 1112 1021 c 1,6,-1
 1067 1089 l 1,7,8
 1118 1112 1118 1112 1142.5 1155.5 c 128,-1,9
 1167 1199 1167 1199 1169 1281 c 1,10,-1
 1078 1281 l 1,0,-1
825 0 m 1,11,-1
 825 134 l 1,12,13
 724 -24 724 -24 528 -24 c 0,14,15
 401 -24 401 -24 294.5 46 c 128,-1,16
 188 116 188 116 129.5 241.5 c 128,-1,17
 71 367 71 367 71 530 c 0,18,19
 71 689 71 689 124 818.5 c 128,-1,20
 177 948 177 948 283 1017 c 128,-1,21
 389 1086 389 1086 520 1086 c 0,22,23
 616 1086 616 1086 691 1045.5 c 128,-1,24
 766 1005 766 1005 813 940 c 1,25,-1
 813 1466 l 1,26,-1
 992 1466 l 1,27,-1
 992 0 l 1,28,-1
 825 0 l 1,11,-1
256 530 m 0,29,30
 256 326 256 326 342 225 c 128,-1,31
 428 124 428 124 545 124 c 0,32,33
 663 124 663 124 745.5 220.5 c 128,-1,34
 828 317 828 317 828 515 c 0,35,36
 828 733 828 733 744 835 c 128,-1,37
 660 937 660 937 537 937 c 0,38,39
 417 937 417 937 336.5 839 c 128,-1,40
 256 741 256 741 256 530 c 0,29,30
EndSplineSet
EndChar
StartChar: Dslash
Encoding: 272 272 264
Width: 1479
Flags: W
LayerCount: 2
Fore
SplineSet
158 0 m 1,0,-1
 158 667 l 1,1,-1
 -3 667 l 1,2,-1
 -3 799 l 1,3,-1
 158 799 l 1,4,-1
 158 1466 l 1,5,-1
 664 1466 l 2,6,7
 834 1466 834 1466 924 1445 c 0,8,9
 1050 1416 1050 1416 1139 1340 c 0,10,11
 1255 1242 1255 1242 1312.5 1089.5 c 128,-1,12
 1370 937 1370 937 1370 741 c 0,13,14
 1370 517 1370 517 1299 355.5 c 128,-1,15
 1228 194 1228 194 1129 121 c 128,-1,16
 1030 48 1030 48 901 17 c 0,17,18
 830 0 830 0 687 0 c 2,19,-1
 158 0 l 1,0,-1
352 173 m 1,20,-1
 665 173 l 2,21,22
 811 173 811 173 893 200 c 128,-1,23
 975 227 975 227 1023 275 c 0,24,25
 1092 344 1092 344 1131 460 c 128,-1,26
 1170 576 1170 576 1170 743 c 0,27,28
 1170 915 1170 915 1131.5 1018 c 128,-1,29
 1093 1121 1093 1121 1031 1183 c 128,-1,30
 969 1245 969 1245 893 1269 c 128,-1,31
 817 1293 817 1293 660 1293 c 2,32,-1
 352 1293 l 1,33,-1
 352 799 l 1,34,-1
 756 799 l 1,35,-1
 756 667 l 1,36,-1
 352 667 l 1,37,-1
 352 173 l 1,20,-1
EndSplineSet
EndChar
StartChar: dmacron
Encoding: 273 273 255
Width: 1139
Flags: W
LayerCount: 2
Fore
SplineSet
812 1219 m 1,0,-1
 466 1219 l 1,1,-1
 466 1351 l 1,2,-1
 812 1351 l 1,3,-1
 812 1466 l 1,4,-1
 991 1466 l 1,5,-1
 991 1351 l 1,6,-1
 1136 1351 l 1,7,-1
 1136 1219 l 1,8,-1
 991 1219 l 1,9,-1
 991 0 l 1,10,-1
 824 0 l 1,11,-1
 824 134 l 1,12,13
 723 -24 723 -24 527 -24 c 0,14,15
 400 -24 400 -24 293.5 46 c 128,-1,16
 187 116 187 116 128.5 241.5 c 128,-1,17
 70 367 70 367 70 530 c 0,18,19
 70 689 70 689 123 818.5 c 128,-1,20
 176 948 176 948 282 1017 c 128,-1,21
 388 1086 388 1086 519 1086 c 0,22,23
 615 1086 615 1086 690 1045.5 c 128,-1,24
 765 1005 765 1005 812 940 c 1,25,-1
 812 1219 l 1,0,-1
255 530 m 0,26,27
 255 326 255 326 341 225 c 128,-1,28
 427 124 427 124 544 124 c 0,29,30
 662 124 662 124 744.5 220.5 c 128,-1,31
 827 317 827 317 827 515 c 0,32,33
 827 733 827 733 743 835 c 128,-1,34
 659 937 659 937 536 937 c 0,35,36
 416 937 416 937 335.5 839 c 128,-1,37
 255 741 255 741 255 530 c 0,26,27
EndSplineSet
EndChar
StartChar: gcedilla
Encoding: 291 291 423
Width: 1139
Flags: W
LayerCount: 2
Fore
SplineSet
632 1345 m 1,0,-1
 632 1170 l 1,1,-1
 423 1170 l 1,2,-1
 423 1287 l 2,3,4
 423 1399 423 1399 460 1469 c 128,-1,5
 497 1539 497 1539 591 1576 c 1,6,-1
 645 1493 l 1,7,8
 552 1454 552 1454 536 1345 c 1,9,-1
 632 1345 l 1,0,-1
102 -88 m 1,10,-1
 277 -114 l 1,11,12
 294 -282 294 -282 521 -282 c 0,13,14
 642 -282 642 -282 711.5 -234 c 128,-1,15
 781 -186 781 -186 800 -114 c 128,-1,16
 819 -42 819 -42 819 139 c 1,17,18
 702 0 702 0 528 0 c 0,19,20
 308 0 308 0 187 157.5 c 128,-1,21
 66 315 66 315 66 535 c 0,22,23
 66 776 66 776 187 931 c 128,-1,24
 308 1086 308 1086 528 1086 c 0,25,26
 714 1086 714 1086 836 934 c 1,27,-1
 836 1062 l 1,28,-1
 1002 1062 l 1,29,-1
 1002 144 l 2,30,31
 1002 -87 1002 -87 956 -196 c 128,-1,32
 910 -305 910 -305 795.5 -368 c 128,-1,33
 681 -431 681 -431 526 -431 c 0,34,35
 312 -431 312 -431 205 -337.5 c 128,-1,36
 98 -244 98 -244 102 -88 c 1,10,-1
251 550 m 0,37,38
 251 337 251 337 336 243 c 128,-1,39
 421 149 421 149 542 149 c 0,40,41
 671 149 671 149 752.5 247.5 c 128,-1,42
 834 346 834 346 834 548 c 0,43,44
 834 718 834 718 756.5 827.5 c 128,-1,45
 679 937 679 937 539 937 c 0,46,47
 409 937 409 937 330 833.5 c 128,-1,48
 251 730 251 730 251 550 c 0,37,38
EndSplineSet
EndChar
StartChar: Hbar
Encoding: 294 294 426
Width: 1479
Flags: W
LayerCount: 2
Fore
SplineSet
164 1099 m 1,0,-1
 31 1099 l 1,1,-1
 31 1247 l 1,2,-1
 164 1247 l 1,3,-1
 164 1466 l 1,4,-1
 358 1466 l 1,5,-1
 358 1247 l 1,6,-1
 1120 1247 l 1,7,-1
 1120 1466 l 1,8,-1
 1314 1466 l 1,9,-1
 1314 1247 l 1,10,-1
 1447 1247 l 1,11,-1
 1447 1099 l 1,12,-1
 1314 1099 l 1,13,-1
 1314 0 l 1,14,-1
 1120 0 l 1,15,-1
 1120 691 l 1,16,-1
 358 691 l 1,17,-1
 358 0 l 1,18,-1
 164 0 l 1,19,-1
 164 1099 l 1,0,-1
358 1099 m 1,20,-1
 358 864 l 1,21,-1
 1120 864 l 1,22,-1
 1120 1099 l 1,23,-1
 358 1099 l 1,20,-1
EndSplineSet
EndChar
StartChar: hbar
Encoding: 295 295 427
Width: 1139
Flags: W
LayerCount: 2
Fore
SplineSet
135 1199 m 1,0,-1
 6 1199 l 1,1,-1
 6 1333 l 1,2,-1
 135 1333 l 1,3,-1
 135 1466 l 1,4,-1
 315 1466 l 1,5,-1
 315 1333 l 1,6,-1
 682 1333 l 1,7,-1
 682 1199 l 1,8,-1
 315 1199 l 1,9,-1
 315 940 l 1,10,11
 437 1086 437 1086 635 1086 c 0,12,13
 772 1086 772 1086 886 1010 c 128,-1,14
 1000 934 1000 934 1000 673 c 2,15,-1
 1000 0 l 1,16,-1
 820 0 l 1,17,-1
 820 673 l 2,18,19
 820 931 820 931 595 931 c 0,20,21
 472 931 472 931 393.5 850.5 c 128,-1,22
 315 770 315 770 315 581 c 2,23,-1
 315 0 l 1,24,-1
 135 0 l 1,25,-1
 135 1199 l 1,0,-1
EndSplineSet
EndChar
StartChar: Iogonek
Encoding: 302 302 434
Width: 569
Flags: W
LayerCount: 2
Fore
SplineSet
318 0 m 1,0,1
 289 -78 289 -78 289 -140 c 0,2,3
 289 -207 289 -207 330 -249.5 c 128,-1,4
 371 -292 371 -292 433 -292 c 0,5,6
 510 -292 510 -292 601 -246 c 1,7,-1
 601 -365 l 1,8,9
 482 -426 482 -426 378 -426 c 0,10,11
 287 -426 287 -426 225 -367 c 128,-1,12
 163 -308 163 -308 163 -205 c 0,13,14
 163 -125 163 -125 198 1 c 1,15,-1
 198 1466 l 1,16,-1
 392 1466 l 1,17,-1
 392 0 l 1,18,-1
 318 0 l 1,0,1
EndSplineSet
EndChar
StartChar: iogonek
Encoding: 303 303 435
Width: 455
Flags: W
LayerCount: 2
Fore
SplineSet
136 1259 m 1,0,-1
 136 1466 l 1,1,-1
 316 1466 l 1,2,-1
 316 1259 l 1,3,-1
 136 1259 l 1,0,-1
257 0 m 1,4,5
 228 -78 228 -78 228 -140 c 0,6,7
 228 -207 228 -207 269 -249.5 c 128,-1,8
 310 -292 310 -292 372 -292 c 0,9,10
 449 -292 449 -292 540 -246 c 1,11,-1
 540 -365 l 1,12,13
 423 -425 423 -425 319 -425 c 0,14,15
 218 -425 218 -425 160 -364 c 128,-1,16
 102 -303 102 -303 102 -205 c 0,17,18
 102 -140 102 -140 136 0 c 1,19,-1
 136 1062 l 1,20,-1
 316 1062 l 1,21,-1
 316 0 l 1,22,-1
 257 0 l 1,4,5
EndSplineSet
EndChar
StartChar: dotlessi
Encoding: 305 305 213
Width: 569
Flags: W
LayerCount: 2
Fore
SplineSet
198 0 m 1,0,-1
 198 1062 l 1,1,-1
 378 1062 l 1,2,-1
 378 0 l 1,3,-1
 198 0 l 1,0,-1
EndSplineSet
EndChar
StartChar: jcircumflex
Encoding: 309 309 437
Width: 455
Flags: W
LayerCount: 2
Fore
SplineSet
230 1364 m 1,0,-1
 117 1194 l 1,1,-1
 -88 1194 l 1,2,-1
 128 1474 l 1,3,-1
 320 1474 l 1,4,-1
 544 1194 l 1,5,-1
 341 1194 l 1,6,-1
 230 1364 l 1,0,-1
-94 -412 m 1,7,-1
 -60 -259 l 1,8,9
 -8 -273 -8 -273 25 -273 c 0,10,11
 88 -273 88 -273 111 -231.5 c 128,-1,12
 134 -190 134 -190 134 -54 c 2,13,-1
 134 1062 l 1,14,-1
 314 1062 l 1,15,-1
 314 -58 l 2,16,17
 314 -255 314 -255 255.5 -343 c 128,-1,18
 197 -431 197 -431 47 -431 c 0,19,20
 -26 -431 -26 -431 -94 -412 c 1,7,-1
EndSplineSet
EndChar
StartChar: kgreenlandic
Encoding: 312 312 440
Width: 1024
Flags: W
LayerCount: 2
Fore
SplineSet
134 0 m 1,0,-1
 134 1062 l 1,1,-1
 314 1062 l 1,2,-1
 314 630 l 1,3,-1
 740 1062 l 1,4,-1
 973 1062 l 1,5,-1
 567 668 l 1,6,-1
 1014 0 l 1,7,-1
 792 0 l 1,8,-1
 441 543 l 1,9,-1
 314 421 l 1,10,-1
 314 0 l 1,11,-1
 134 0 l 1,0,-1
EndSplineSet
EndChar
StartChar: Lcaron
Encoding: 317 317 271
Width: 1139
Flags: W
LayerCount: 2
Fore
SplineSet
712 1261 m 1,0,-1
 712 1466 l 1,1,-1
 917 1466 l 1,2,-1
 917 1261 l 2,3,4
 917 1148 917 1148 877 1078.5 c 128,-1,5
 837 1009 837 1009 750 971 c 1,6,-1
 700 1048 l 1,7,8
 757 1073 757 1073 784.5 1121.5 c 128,-1,9
 812 1170 812 1170 814 1261 c 1,10,-1
 712 1261 l 1,0,-1
150 0 m 1,11,-1
 150 1466 l 1,12,-1
 344 1466 l 1,13,-1
 344 173 l 1,14,-1
 1066 173 l 1,15,-1
 1066 0 l 1,16,-1
 150 0 l 1,11,-1
EndSplineSet
EndChar
StartChar: lcaron
Encoding: 318 318 272
Width: 597
Flags: W
LayerCount: 2
Fore
SplineSet
412 1281 m 1,0,-1
 412 1466 l 1,1,-1
 596 1466 l 1,2,-1
 596 1281 l 2,3,4
 596 1180 596 1180 560 1117.5 c 128,-1,5
 524 1055 524 1055 446 1021 c 1,6,-1
 401 1089 l 1,7,8
 452 1112 452 1112 476.5 1155.5 c 128,-1,9
 501 1199 501 1199 503 1281 c 1,10,-1
 412 1281 l 1,0,-1
136 0 m 1,11,-1
 136 1466 l 1,12,-1
 316 1466 l 1,13,-1
 316 0 l 1,14,-1
 136 0 l 1,11,-1
EndSplineSet
EndChar
StartChar: Lslash
Encoding: 321 321 224
Width: 1139
Flags: W
LayerCount: 2
Fore
SplineSet
145 565 m 1,0,-1
 0 442 l 1,1,-1
 0 609 l 1,2,-1
 145 733 l 1,3,-1
 145 1466 l 1,4,-1
 339 1466 l 1,5,-1
 339 898 l 1,6,-1
 671 1179 l 1,7,-1
 671 1012 l 1,8,-1
 339 731 l 1,9,-1
 339 173 l 1,10,-1
 1067 173 l 1,11,-1
 1067 0 l 1,12,-1
 145 0 l 1,13,-1
 145 565 l 1,0,-1
EndSplineSet
EndChar
StartChar: lslash
Encoding: 322 322 225
Width: 455
Flags: W
LayerCount: 2
Fore
SplineSet
133 574 m 1,0,-1
 3 464 l 1,1,-1
 3 622 l 1,2,-1
 133 732 l 1,3,-1
 133 1466 l 1,4,-1
 312 1466 l 1,5,-1
 312 884 l 1,6,-1
 447 999 l 1,7,-1
 447 842 l 1,8,-1
 312 727 l 1,9,-1
 312 0 l 1,10,-1
 133 0 l 1,11,-1
 133 574 l 1,0,-1
EndSplineSet
EndChar
StartChar: Eng
Encoding: 330 330 445
Width: 1481
Flags: W
LayerCount: 2
Fore
SplineSet
165 1466 m 1,0,-1
 361 1466 l 1,1,-1
 361 1284 l 1,2,3
 476 1416 476 1416 589 1453.5 c 128,-1,4
 702 1491 702 1491 827 1491 c 0,5,6
 1008 1491 1008 1491 1122.5 1410 c 128,-1,7
 1237 1329 1237 1329 1305 1176.5 c 128,-1,8
 1373 1024 1373 1024 1373 754 c 0,9,10
 1373 360 1373 360 1243 167.5 c 128,-1,11
 1113 -25 1113 -25 893 -25 c 0,12,13
 766 -25 766 -25 645 47 c 1,14,-1
 732 200 l 1,15,16
 828 148 828 148 893 148 c 0,17,18
 970 148 970 148 1035 212.5 c 128,-1,19
 1100 277 1100 277 1138 408.5 c 128,-1,20
 1176 540 1176 540 1176 749 c 0,21,22
 1176 1328 1176 1328 771 1328 c 0,23,24
 638 1328 638 1328 537.5 1265.5 c 128,-1,25
 437 1203 437 1203 399 1106.5 c 128,-1,26
 361 1010 361 1010 361 801 c 2,27,-1
 361 0 l 1,28,-1
 165 0 l 1,29,-1
 165 1466 l 1,0,-1
EndSplineSet
EndChar
StartChar: eng
Encoding: 331 331 446
Width: 1139
Flags: W
LayerCount: 2
Fore
SplineSet
1002 653 m 2,0,-1
 1002 -58 l 2,1,2
 1002 -255 1002 -255 943.5 -343 c 128,-1,3
 885 -431 885 -431 735 -431 c 0,4,5
 662 -431 662 -431 594 -412 c 1,6,-1
 628 -259 l 1,7,8
 681 -273 681 -273 713 -273 c 0,9,10
 778 -273 778 -273 800 -229 c 128,-1,11
 822 -185 822 -185 822 -54 c 2,12,-1
 822 646 l 2,13,14
 822 794 822 794 770 862 c 128,-1,15
 718 930 718 930 599 930 c 0,16,17
 482 930 482 930 400.5 855 c 128,-1,18
 319 780 319 780 319 580 c 2,19,-1
 319 0 l 1,20,-1
 139 0 l 1,21,-1
 139 1062 l 1,22,-1
 301 1062 l 1,23,-1
 301 911 l 1,24,25
 418 1086 418 1086 639 1086 c 0,26,27
 769 1086 769 1086 857 1030 c 128,-1,28
 945 974 945 974 973.5 891.5 c 128,-1,29
 1002 809 1002 809 1002 653 c 2,0,-1
EndSplineSet
EndChar
StartChar: OE
Encoding: 338 338 175
Width: 2048
Flags: W
LayerCount: 2
Fore
SplineSet
1983 173 m 1,0,-1
 1983 0 l 1,1,-1
 1121 0 l 1,2,-1
 1121 212 l 1,3,4
 986 -25 986 -25 721 -25 c 0,5,6
 420 -25 420 -25 265 207 c 0,7,8
 129 412 129 412 129 735 c 0,9,10
 129 1057 129 1057 271 1274 c 128,-1,11
 413 1491 413 1491 721 1491 c 0,12,13
 985 1491 985 1491 1121 1268 c 1,14,-1
 1121 1466 l 1,15,-1
 1952 1466 l 1,16,-1
 1952 1293 l 1,17,-1
 1302 1293 l 1,18,-1
 1302 845 l 1,19,-1
 1901 845 l 1,20,-1
 1901 673 l 1,21,-1
 1302 673 l 1,22,-1
 1302 173 l 1,23,-1
 1983 173 l 1,0,-1
720 1334 m 0,24,25
 619 1334 619 1334 523 1269 c 128,-1,26
 427 1204 427 1204 378 1071.5 c 128,-1,27
 329 939 329 939 329 720 c 0,28,29
 329 417 329 417 444.5 274 c 128,-1,30
 560 131 560 131 720 131 c 0,31,32
 881 131 881 131 995.5 273.5 c 128,-1,33
 1110 416 1110 416 1110 745 c 0,34,35
 1110 1051 1110 1051 994.5 1192.5 c 128,-1,36
 879 1334 879 1334 720 1334 c 0,24,25
EndSplineSet
EndChar
StartChar: oe
Encoding: 339 339 176
Width: 1933
Flags: W
LayerCount: 2
Fore
SplineSet
978 175 m 1,0,1
 902 76 902 76 803 26 c 128,-1,2
 704 -24 704 -24 582 -24 c 0,3,4
 357 -24 357 -24 219.5 119 c 128,-1,5
 82 262 82 262 82 518 c 0,6,7
 82 687 82 687 140.5 820.5 c 128,-1,8
 199 954 199 954 318.5 1020 c 128,-1,9
 438 1086 438 1086 584 1086 c 0,10,11
 722 1086 722 1086 824.5 1028.5 c 128,-1,12
 927 971 927 971 978 883 c 1,13,14
 1042 976 1042 976 1142.5 1031 c 128,-1,15
 1243 1086 1243 1086 1367 1086 c 0,16,17
 1587 1086 1587 1086 1723 935 c 128,-1,18
 1859 784 1859 784 1857 483 c 1,19,-1
 1073 483 l 1,20,21
 1076 317 1076 317 1165.5 220.5 c 128,-1,22
 1255 124 1255 124 1389 124 c 0,23,24
 1488 124 1488 124 1559.5 179.5 c 128,-1,25
 1631 235 1631 235 1663 346 c 1,26,-1
 1843 320 l 1,27,28
 1800 155 1800 155 1682.5 65.5 c 128,-1,29
 1565 -24 1565 -24 1386 -24 c 0,30,31
 1252 -24 1252 -24 1146 28.5 c 128,-1,32
 1040 81 1040 81 978 175 c 1,0,1
267 533 m 0,33,34
 267 347 267 347 338 250 c 0,35,36
 430 124 430 124 577 124 c 0,37,38
 706 124 706 124 798 230 c 128,-1,39
 890 336 890 336 890 535 c 0,40,41
 890 733 890 733 799.5 835.5 c 128,-1,42
 709 938 709 938 577 938 c 0,43,44
 490 938 490 938 417 889 c 128,-1,45
 344 840 344 840 305.5 744 c 128,-1,46
 267 648 267 648 267 533 c 0,33,34
1080 631 m 1,47,-1
 1667 631 l 1,48,49
 1655 782 1655 782 1575.5 860 c 128,-1,50
 1496 938 1496 938 1378 938 c 0,51,52
 1258 938 1258 938 1174.5 856 c 128,-1,53
 1091 774 1091 774 1080 631 c 1,47,-1
EndSplineSet
EndChar
StartChar: Tcedilla
Encoding: 354 354 287
Width: 1251
Flags: W
LayerCount: 2
Fore
SplineSet
531 0 m 1,0,-1
 531 1293 l 1,1,-1
 48 1293 l 1,2,-1
 48 1466 l 1,3,-1
 1210 1466 l 1,4,-1
 1210 1293 l 1,5,-1
 725 1293 l 1,6,-1
 725 0 l 1,7,-1
 531 0 l 1,0,-1
523 -326 m 1,8,-1
 523 -121 l 1,9,-1
 728 -121 l 1,10,-1
 728 -326 l 2,11,12
 728 -506 728 -506 561 -579 c 1,13,-1
 511 -503 l 1,14,15
 571 -476 571 -476 601 -425 c 0,16,17
 621 -392 621 -392 625 -326 c 1,18,-1
 523 -326 l 1,8,-1
EndSplineSet
EndChar
StartChar: tcedilla
Encoding: 355 355 288
Width: 569
Flags: W
LayerCount: 2
Fore
SplineSet
528 161 m 1,0,-1
 554 2 l 1,1,2
 478 -14 478 -14 418 -14 c 0,3,4
 320 -14 320 -14 266 17 c 128,-1,5
 212 48 212 48 190 98.5 c 128,-1,6
 168 149 168 149 168 311 c 2,7,-1
 168 922 l 1,8,-1
 36 922 l 1,9,-1
 36 1062 l 1,10,-1
 168 1062 l 1,11,-1
 168 1325 l 1,12,-1
 347 1433 l 1,13,-1
 347 1062 l 1,14,-1
 528 1062 l 1,15,-1
 528 922 l 1,16,-1
 347 922 l 1,17,-1
 347 301 l 2,18,19
 347 224 347 224 356.5 202 c 128,-1,20
 366 180 366 180 387.5 167 c 128,-1,21
 409 154 409 154 449 154 c 0,22,23
 479 154 479 154 528 161 c 1,0,-1
275 -305 m 1,24,-1
 275 -121 l 1,25,-1
 460 -121 l 1,26,-1
 460 -305 l 2,27,28
 460 -375 460 -375 423.5 -436.5 c 128,-1,29
 387 -498 387 -498 309 -532 c 1,30,-1
 265 -463 l 1,31,32
 360 -421 360 -421 367 -305 c 1,33,-1
 275 -305 l 1,24,-1
EndSplineSet
EndChar
StartChar: tcaron
Encoding: 357 357 290
Width: 768
Flags: W
LayerCount: 2
Fore
SplineSet
581 1281 m 1,0,-1
 581 1466 l 1,1,-1
 765 1466 l 1,2,-1
 765 1281 l 2,3,4
 765 1180 765 1180 729 1117.5 c 128,-1,5
 693 1055 693 1055 615 1021 c 1,6,-1
 570 1089 l 1,7,8
 621 1112 621 1112 645.5 1155.5 c 128,-1,9
 670 1199 670 1199 672 1281 c 1,10,-1
 581 1281 l 1,0,-1
527 161 m 1,11,-1
 553 2 l 1,12,13
 477 -14 477 -14 417 -14 c 0,14,15
 319 -14 319 -14 265 17 c 128,-1,16
 211 48 211 48 189 98.5 c 128,-1,17
 167 149 167 149 167 311 c 2,18,-1
 167 922 l 1,19,-1
 35 922 l 1,20,-1
 35 1062 l 1,21,-1
 167 1062 l 1,22,-1
 167 1325 l 1,23,-1
 346 1433 l 1,24,-1
 346 1062 l 1,25,-1
 527 1062 l 1,26,-1
 527 922 l 1,27,-1
 346 922 l 1,28,-1
 346 301 l 2,29,30
 346 224 346 224 355.5 202 c 128,-1,31
 365 180 365 180 386.5 167 c 128,-1,32
 408 154 408 154 448 154 c 0,33,34
 478 154 478 154 527 161 c 1,11,-1
EndSplineSet
EndChar
StartChar: Tbar
Encoding: 358 358 455
Width: 1251
Flags: W
LayerCount: 2
Fore
SplineSet
531 629 m 1,0,-1
 201 629 l 1,1,-1
 201 761 l 1,2,-1
 531 761 l 1,3,-1
 531 1293 l 1,4,-1
 48 1293 l 1,5,-1
 48 1466 l 1,6,-1
 1210 1466 l 1,7,-1
 1210 1293 l 1,8,-1
 725 1293 l 1,9,-1
 725 761 l 1,10,-1
 1053 761 l 1,11,-1
 1053 629 l 1,12,-1
 725 629 l 1,13,-1
 725 0 l 1,14,-1
 531 0 l 1,15,-1
 531 629 l 1,0,-1
EndSplineSet
EndChar
StartChar: tbar
Encoding: 359 359 456
Width: 569
Flags: W
LayerCount: 2
Fore
SplineSet
145 514 m 1,0,-1
 12 514 l 1,1,-1
 12 646 l 1,2,-1
 145 646 l 1,3,-1
 145 922 l 1,4,-1
 13 922 l 1,5,-1
 13 1062 l 1,6,-1
 145 1062 l 1,7,-1
 145 1325 l 1,8,-1
 325 1433 l 1,9,-1
 325 1062 l 1,10,-1
 505 1062 l 1,11,-1
 505 922 l 1,12,-1
 325 922 l 1,13,-1
 325 646 l 1,14,-1
 497 646 l 1,15,-1
 497 514 l 1,16,-1
 325 514 l 1,17,-1
 325 301 l 2,18,19
 325 216 325 216 343.5 185 c 128,-1,20
 362 154 362 154 426 154 c 0,21,22
 458 154 458 154 505 161 c 1,23,-1
 531 2 l 1,24,25
 458 -14 458 -14 397 -14 c 0,26,27
 291 -14 291 -14 233.5 22 c 128,-1,28
 176 58 176 58 160.5 116.5 c 128,-1,29
 145 175 145 175 145 311 c 2,30,-1
 145 514 l 1,0,-1
EndSplineSet
EndChar
StartChar: Uogonek
Encoding: 370 370 463
Width: 1479
Flags: W
LayerCount: 2
Fore
SplineSet
786 -24 m 1,0,1
 766 -95 766 -95 766 -137 c 0,2,3
 766 -208 766 -208 807 -250 c 128,-1,4
 848 -292 848 -292 910 -292 c 0,5,6
 987 -292 987 -292 1078 -246 c 1,7,-1
 1078 -365 l 1,8,9
 960 -426 960 -426 859 -426 c 0,10,11
 761 -426 761 -426 700.5 -366 c 128,-1,12
 640 -306 640 -306 640 -205 c 0,13,14
 640 -135 640 -135 668 -22 c 1,15,16
 399 1 399 1 280 142 c 128,-1,17
 161 283 161 283 161 619 c 2,18,-1
 161 1466 l 1,19,-1
 355 1466 l 1,20,-1
 355 620 l 2,21,22
 355 429 355 429 391.5 336.5 c 128,-1,23
 428 244 428 244 516.5 197 c 128,-1,24
 605 150 605 150 721 150 c 0,25,26
 940 150 940 150 1030 248 c 128,-1,27
 1120 346 1120 346 1120 620 c 2,28,-1
 1120 1466 l 1,29,-1
 1314 1466 l 1,30,-1
 1314 619 l 2,31,32
 1314 426 1314 426 1275 297 c 128,-1,33
 1236 168 1236 168 1116 78 c 128,-1,34
 996 -12 996 -12 786 -24 c 1,0,1
EndSplineSet
EndChar
StartChar: uogonek
Encoding: 371 371 464
Width: 1139
Flags: W
LayerCount: 2
Fore
SplineSet
952 0 m 1,0,1
 923 -78 923 -78 923 -140 c 0,2,3
 923 -207 923 -207 964 -249.5 c 128,-1,4
 1005 -292 1005 -292 1067 -292 c 0,5,6
 1143 -292 1143 -292 1235 -246 c 1,7,-1
 1235 -365 l 1,8,9
 1118 -425 1118 -425 1014 -425 c 0,10,11
 916 -425 916 -425 856.5 -365 c 128,-1,12
 797 -305 797 -305 797 -205 c 0,13,14
 797 -138 797 -138 823 -33 c 2,15,-1
 831 0 l 1,16,-1
 831 156 l 1,17,18
 707 -24 707 -24 493 -24 c 0,19,20
 367 -24 367 -24 278.5 32 c 128,-1,21
 190 88 190 88 160.5 171.5 c 128,-1,22
 131 255 131 255 131 404 c 2,23,-1
 131 1062 l 1,24,-1
 311 1062 l 1,25,-1
 311 473 l 2,26,27
 311 334 311 334 324 274.5 c 128,-1,28
 337 215 337 215 392 173 c 128,-1,29
 447 131 447 131 530 131 c 0,30,31
 621 131 621 131 692.5 179 c 128,-1,32
 764 227 764 227 788 299 c 128,-1,33
 812 371 812 371 812 493 c 2,34,-1
 812 1062 l 1,35,-1
 992 1062 l 1,36,-1
 992 0 l 1,37,-1
 952 0 l 1,0,1
EndSplineSet
EndChar
StartChar: longs
Encoding: 383 383 469
Width: 455
Flags: W
LayerCount: 2
Fore
SplineSet
137 0 m 1,0,-1
 137 1175 l 2,1,2
 137 1290 137 1290 164 1353.5 c 128,-1,3
 191 1417 191 1417 258 1454 c 128,-1,4
 325 1491 325 1491 431 1491 c 0,5,6
 510 1491 510 1491 598 1473 c 1,7,-1
 572 1316 l 1,8,9
 518 1326 518 1326 466 1326 c 0,10,11
 376 1326 376 1326 346.5 1286.5 c 128,-1,12
 317 1247 317 1247 317 1160 c 2,13,-1
 317 0 l 1,14,-1
 137 0 l 1,0,-1
EndSplineSet
EndChar
StartChar: uni018F
Encoding: 399 399 1316
AltUni2: 0004d8.ffffffff.0
Width: 1541
Flags: W
LayerCount: 2
Fore
SplineSet
1449 749 m 0,0,1
 1456 416 1456 416 1291 199 c 0,2,3
 1121 -25 1121 -25 774 -25 c 0,4,5
 428 -25 428 -25 258 199 c 0,6,7
 99 409 99 409 99 749 c 2,8,-1
 99 843 l 1,9,-1
 1240 843 l 1,10,11
 1228 1063 1228 1063 1111 1189 c 0,12,13
 987 1321 987 1321 771 1321 c 0,14,15
 454 1321 454 1321 371 1014 c 1,16,-1
 181 1064 l 1,17,18
 237 1272 237 1272 397 1384 c 0,19,20
 550 1491 550 1491 770 1491 c 0,21,22
 970 1491 970 1491 1129 1393 c 0,23,24
 1292 1294 1292 1294 1374 1114 c 0,25,26
 1445 960 1445 960 1449 749 c 0,0,1
1248 670 m 1,27,-1
 300 670 l 1,28,29
 311 424 311 424 437 281 c 128,-1,30
 563 138 563 138 774 138 c 256,31,32
 985 138 985 138 1111 281 c 128,-1,33
 1237 424 1237 424 1248 670 c 1,27,-1
EndSplineSet
EndChar
StartChar: florin
Encoding: 402 402 166
Width: 1139
Flags: W
LayerCount: 2
Fore
SplineSet
46 -405 m 1,0,-1
 81 -250 l 1,1,2
 182 -272 182 -272 233 -272 c 0,3,4
 287 -272 287 -272 316 -244 c 128,-1,5
 345 -216 345 -216 361 -120 c 2,6,-1
 538 922 l 1,7,-1
 337 922 l 1,8,-1
 361 1062 l 1,9,-1
 562 1062 l 1,10,-1
 586 1195 l 2,11,12
 608 1315 608 1315 631 1360 c 0,13,14
 662 1422 662 1422 719.5 1457 c 128,-1,15
 777 1492 777 1492 870 1492 c 0,16,17
 950 1492 950 1492 1085 1454 c 1,18,-1
 1050 1301 l 1,19,20
 947 1325 947 1325 896 1325 c 0,21,22
 840 1325 840 1325 812 1297.5 c 128,-1,23
 784 1270 784 1270 765 1165 c 2,24,-1
 746 1062 l 1,25,-1
 950 1062 l 1,26,-1
 925 922 l 1,27,-1
 721 922 l 1,28,-1
 530 -170 l 2,29,30
 504 -318 504 -318 443 -374.5 c 128,-1,31
 382 -431 382 -431 270 -431 c 0,32,33
 176 -431 176 -431 46 -405 c 1,0,-1
EndSplineSet
EndChar
StartChar: Ohorn
Encoding: 416 416 1130
Width: 1756
Flags: W
LayerCount: 2
Fore
SplineSet
299 711 m 0,0,1
 299 451 299 451 442 293 c 0,2,3
 580 141 580 141 799 141 c 0,4,5
 1023 141 1023 141 1160 295 c 0,6,7
 1301 455 1301 455 1301 732 c 0,8,9
 1301 1102 1301 1102 1064 1252 c 0,10,11
 947 1325 947 1325 802 1325 c 0,12,13
 579 1325 579 1325 448 1184 c 0,14,15
 299 1024 299 1024 299 711 c 0,0,1
1515 1273 m 1,16,-1
 1515 1482 l 1,17,-1
 1708 1482 l 1,18,-1
 1708 1317 l 2,19,20
 1708 1193 1708 1193 1670 1127 c 0,21,22
 1618 1036 1618 1036 1475 960 c 1,23,24
 1501 852 1501 852 1501 731 c 0,25,26
 1501 507 1501 507 1410.5 331.5 c 128,-1,27
 1320 156 1320 156 1155.5 65.5 c 128,-1,28
 991 -25 991 -25 800 -25 c 0,29,30
 594 -25 594 -25 430.5 74.5 c 128,-1,31
 267 174 267 174 183 347.5 c 128,-1,32
 99 521 99 521 99 714 c 0,33,34
 99 1074 99 1074 295 1286 c 0,35,36
 486 1492 486 1492 801 1492 c 0,37,38
 1028 1492 1028 1492 1203.5 1368.5 c 128,-1,39
 1379 1245 1379 1245 1452 1037 c 1,40,41
 1543 1086 1543 1086 1580 1142 c 0,42,43
 1610 1187 1610 1187 1609 1273 c 1,44,-1
 1515 1273 l 1,16,-1
EndSplineSet
EndChar
StartChar: ohorn
Encoding: 417 417 1131
Width: 1343
Flags: W
LayerCount: 2
Fore
SplineSet
253 531 m 256,0,1
 253 334 253 334 342 226 c 0,2,3
 426 124 426 124 566 124 c 256,4,5
 706 124 706 124 789 226 c 0,6,7
 878 335 878 335 878 537 c 0,8,9
 878 728 878 728 788 835 c 0,10,11
 704 937 704 937 566 937 c 0,12,13
 425 937 425 937 342 836 c 0,14,15
 253 728 253 728 253 531 c 256,0,1
1087 879 m 1,16,-1
 1087 1088 l 1,17,-1
 1280 1088 l 1,18,-1
 1280 923 l 2,19,20
 1280 799 1280 799 1242 733 c 0,21,22
 1193 647 1193 647 1063 575 c 1,23,24
 1063 561 1063 561 1063 546 c 0,25,26
 1063 174 1063 174 823 41 c 0,27,28
 705 -24 705 -24 566 -24 c 0,29,30
 338 -24 338 -24 205 119 c 0,31,32
 68 267 68 267 68 531 c 0,33,34
 68 826 68 826 232 968 c 0,35,36
 369 1086 369 1086 566 1086 c 0,37,38
 785 1086 785 1086 924 943 c 0,39,40
 1029 834 1029 834 1055 662 c 1,41,42
 1123 704 1123 704 1152.5 749 c 128,-1,43
 1182 794 1182 794 1181 879 c 1,44,-1
 1087 879 l 1,16,-1
EndSplineSet
EndChar
StartChar: Uhorn
Encoding: 431 431 1132
Width: 1749
Flags: W
LayerCount: 2
Fore
SplineSet
1473 1257 m 1,0,-1
 1473 1466 l 1,1,-1
 1666 1466 l 1,2,-1
 1666 1301 l 2,3,4
 1666 1144 1666 1144 1630 1082 c 0,5,6
 1531 909 1531 909 1314 899 c 1,7,-1
 1314 619 l 2,8,9
 1314 394 1314 394 1264 268 c 0,10,11
 1212 137 1212 137 1084 57 c 0,12,13
 953 -25 953 -25 741 -25 c 0,14,15
 332 -25 332 -25 217 252 c 0,16,17
 161 386 161 386 161 619 c 2,18,-1
 161 1466 l 1,19,-1
 355 1466 l 1,20,-1
 355 620 l 2,21,22
 355 431 355 431 391 338 c 0,23,24
 425 249 425 249 512 199.5 c 128,-1,25
 599 150 599 150 724 150 c 0,26,27
 943 150 943 150 1029 247 c 0,28,29
 1120 349 1120 349 1120 620 c 2,30,-1
 1120 1466 l 1,31,-1
 1314 1466 l 1,32,-1
 1314 973 l 1,33,34
 1470 989 1470 989 1540 1097 c 0,35,36
 1567 1139 1567 1139 1567 1257 c 1,37,-1
 1473 1257 l 1,0,-1
EndSplineSet
EndChar
StartChar: uhorn
Encoding: 432 432 1133
Width: 1371
Flags: W
LayerCount: 2
Fore
SplineSet
1116 853 m 1,0,-1
 1116 1062 l 1,1,-1
 1309 1062 l 1,2,-1
 1309 897 l 2,3,4
 1309 740 1309 740 1273 678 c 0,5,6
 1181 518 1181 518 992 498 c 1,7,-1
 992 0 l 1,8,-1
 831 0 l 1,9,-1
 831 156 l 1,10,11
 707 -24 707 -24 494 -24 c 0,12,13
 401 -24 401 -24 319.5 11.5 c 128,-1,14
 238 47 238 47 198 102 c 128,-1,15
 158 157 158 157 142 236 c 0,16,17
 131 290 131 290 131 404 c 2,18,-1
 131 1062 l 1,19,-1
 311 1062 l 1,20,-1
 311 473 l 2,21,22
 311 330 311 330 322 283 c 0,23,24
 357 131 357 131 530 131 c 0,25,26
 613 131 613 131 683.5 173 c 128,-1,27
 754 215 754 215 783 286 c 128,-1,28
 812 357 812 357 812 493 c 2,29,-1
 812 1062 l 1,30,-1
 992 1062 l 1,31,-1
 992 574 l 1,32,33
 1119 596 1119 596 1182 693 c 0,34,35
 1210 735 1210 735 1210 853 c 1,36,-1
 1116 853 l 1,0,-1
EndSplineSet
EndChar
StartChar: uni0259
Encoding: 601 601 1317
AltUni2: 0004d9.ffffffff.0
Width: 1139
Flags: W
LayerCount: 2
Fore
SplineSet
1064 540 m 0,0,1
 1064 294 1064 294 941 141 c 0,2,3
 808 -24 808 -24 568 -24 c 0,4,5
 334 -24 334 -24 204 139 c 0,6,7
 85 289 85 289 85 529 c 0,8,9
 85 545 85 545 86 577 c 1,10,-1
 878 577 l 1,11,12
 869 733 869 733 793 829 c 0,13,14
 707 938 707 938 557 938 c 0,15,16
 355 938 355 938 277 720 c 1,17,-1
 91 743 l 1,18,19
 184 1086 184 1086 558 1086 c 0,20,21
 803 1086 803 1086 937 934 c 0,22,23
 1064 789 1064 789 1064 540 c 0,0,1
868 429 m 1,24,-1
 275 429 l 1,25,26
 287 295 287 295 343 228 c 0,27,28
 429 124 429 124 566 124 c 0,29,30
 697 124 697 124 780 212 c 0,31,32
 859 296 859 296 868 429 c 1,24,-1
EndSplineSet
EndChar
StartChar: circumflex
Encoding: 710 710 214
Width: 682
Flags: W
LayerCount: 2
Fore
SplineSet
344 1364 m 1,0,-1
 231 1194 l 1,1,-1
 25 1194 l 1,2,-1
 241 1474 l 1,3,-1
 433 1474 l 1,4,-1
 658 1194 l 1,5,-1
 454 1194 l 1,6,-1
 344 1364 l 1,0,-1
EndSplineSet
EndChar
StartChar: caron
Encoding: 711 711 223
Width: 682
Flags: W
LayerCount: 2
Fore
SplineSet
359 1304 m 1,0,-1
 469 1474 l 1,1,-1
 673 1474 l 1,2,-1
 448 1194 l 1,3,-1
 256 1194 l 1,4,-1
 40 1474 l 1,5,-1
 246 1474 l 1,6,-1
 359 1304 l 1,0,-1
EndSplineSet
EndChar
StartChar: macron
Encoding: 713 713 216
Width: 682
Flags: W
LayerCount: 2
Fore
SplineSet
29 1227 m 1,0,-1
 29 1375 l 1,1,-1
 653 1375 l 1,2,-1
 653 1227 l 1,3,-1
 29 1227 l 1,0,-1
EndSplineSet
EndChar
StartChar: breve
Encoding: 728 728 217
Width: 682
Flags: W
LayerCount: 2
Fore
SplineSet
514 1464 m 1,0,-1
 637 1464 l 1,1,2
 622 1339 622 1339 545.5 1272 c 128,-1,3
 469 1205 469 1205 342 1205 c 0,4,5
 214 1205 214 1205 137.5 1271.5 c 128,-1,6
 61 1338 61 1338 46 1464 c 1,7,-1
 169 1464 l 1,8,9
 183 1396 183 1396 224.5 1362.5 c 128,-1,10
 266 1329 266 1329 336 1329 c 0,11,12
 417 1329 417 1329 458.5 1361.5 c 128,-1,13
 500 1394 500 1394 514 1464 c 1,0,-1
EndSplineSet
EndChar
StartChar: dotaccent
Encoding: 729 729 218
Width: 682
Flags: W
LayerCount: 2
Fore
SplineSet
229 1194 m 1,0,-1
 229 1418 l 1,1,-1
 452 1418 l 1,2,-1
 452 1194 l 1,3,-1
 229 1194 l 1,0,-1
EndSplineSet
EndChar
StartChar: ring
Encoding: 730 730 219
Width: 682
Flags: W
LayerCount: 2
Fore
SplineSet
162 1338 m 0,0,1
 162 1411 162 1411 215.5 1464 c 128,-1,2
 269 1517 269 1517 342 1517 c 0,3,4
 416 1517 416 1517 469 1463.5 c 128,-1,5
 522 1410 522 1410 522 1334 c 0,6,7
 522 1257 522 1257 469 1204 c 128,-1,8
 416 1151 416 1151 343 1151 c 0,9,10
 268 1151 268 1151 215 1204.5 c 128,-1,11
 162 1258 162 1258 162 1338 c 0,0,1
238 1337 m 0,12,13
 238 1290 238 1290 269.5 1258 c 128,-1,14
 301 1226 301 1226 344 1226 c 256,15,16
 387 1226 387 1226 418.5 1258 c 128,-1,17
 450 1290 450 1290 450 1335 c 256,18,19
 450 1380 450 1380 419 1412 c 128,-1,20
 388 1444 388 1444 344 1444 c 0,21,22
 301 1444 301 1444 269.5 1412.5 c 128,-1,23
 238 1381 238 1381 238 1337 c 0,12,13
EndSplineSet
EndChar
StartChar: ogonek
Encoding: 731 731 222
Width: 682
Flags: W
LayerCount: 2
Fore
SplineSet
224 24 m 1,0,-1
 348 24 l 1,1,2
 309 -65 309 -65 309 -140 c 0,3,4
 309 -208 309 -208 350 -250 c 128,-1,5
 391 -292 391 -292 453 -292 c 0,6,7
 530 -292 530 -292 621 -246 c 1,8,-1
 621 -365 l 1,9,10
 569 -392 569 -392 508 -409 c 128,-1,11
 447 -426 447 -426 402 -426 c 0,12,13
 303 -426 303 -426 243 -366 c 128,-1,14
 183 -306 183 -306 183 -205 c 0,15,16
 183 -119 183 -119 224 24 c 1,0,-1
EndSplineSet
EndChar
StartChar: tilde
Encoding: 732 732 215
Width: 682
Flags: W
LayerCount: 2
Fore
SplineSet
7 1219 m 1,0,1
 6 1323 6 1323 64 1385 c 0,2,3
 121 1447 121 1447 210 1447 c 0,4,5
 272 1447 272 1447 379 1393 c 0,6,7
 438 1363 438 1363 473 1363 c 0,8,9
 505 1363 505 1363 522 1380.5 c 128,-1,10
 539 1398 539 1398 546 1450 c 1,11,-1
 676 1450 l 1,12,13
 673 1336 673 1336 618.5 1279 c 128,-1,14
 564 1222 564 1222 480 1222 c 0,15,16
 417 1222 417 1222 314 1278 c 0,17,18
 247 1314 247 1314 216 1314 c 0,19,20
 182 1314 182 1314 161 1290 c 0,21,22
 139 1266 139 1266 140 1219 c 1,23,-1
 7 1219 l 1,0,1
EndSplineSet
EndChar
StartChar: hungarumlaut
Encoding: 733 733 221
Width: 682
Flags: W
LayerCount: 2
Fore
SplineSet
58 1194 m 1,0,-1
 179 1474 l 1,1,-1
 413 1474 l 1,2,-1
 202 1194 l 1,3,-1
 58 1194 l 1,0,-1
405 1194 m 1,4,-1
 532 1474 l 1,5,-1
 763 1474 l 1,6,-1
 556 1194 l 1,7,-1
 405 1194 l 1,4,-1
EndSplineSet
EndChar
StartChar: combininggraveaccent
Encoding: 768 768 1170
Width: 0
Flags: W
LayerCount: 2
Fore
SplineSet
-158 1547 m 1,0,-1
 -303 1547 l 1,1,-1
 -534 1827 l 1,2,-1
 -293 1827 l 1,3,-1
 -158 1547 l 1,0,-1
EndSplineSet
EndChar
StartChar: combiningacuteaccent
Encoding: 769 769 1171
Width: 0
Flags: W
LayerCount: 2
Fore
SplineSet
-245 1827 m 1,0,-1
 -4 1827 l 1,1,-1
 -235 1547 l 1,2,-1
 -380 1547 l 1,3,-1
 -245 1827 l 1,0,-1
EndSplineSet
EndChar
StartChar: combiningtildeaccent
Encoding: 771 771 1146
Width: 0
Flags: W
LayerCount: 2
Fore
SplineSet
-909 1547 m 1,0,1
 -910 1649 -910 1649 -853.5 1712 c 128,-1,2
 -797 1775 -797 1775 -706 1775 c 0,3,4
 -644 1775 -644 1775 -537 1721 c 0,5,6
 -478 1691 -478 1691 -443 1691 c 0,7,8
 -382 1691 -382 1691 -370 1778 c 1,9,-1
 -240 1778 l 1,10,11
 -246 1550 -246 1550 -436 1550 c 0,12,13
 -499 1550 -499 1550 -602 1606 c 0,14,15
 -669 1642 -669 1642 -700 1642 c 0,16,17
 -778 1642 -778 1642 -776 1547 c 1,18,-1
 -909 1547 l 1,0,1
EndSplineSet
EndChar
StartChar: combininghookabove
Encoding: 777 777 1140
Width: 0
Flags: W
LayerCount: 2
Fore
SplineSet
-259 1635 m 0,1,2
 -206 1648 -206 1648 -205 1676 c 0,3,4
 -204 1699 -204 1699 -233 1715 c 0,5,6
 -275 1738 -275 1738 -366 1738 c 0,7,8
 -397 1738 -397 1738 -460 1734 c 1,9,-1
 -471 1828 l 1,10,11
 -432 1836 -432 1836 -327 1835 c 0,12,13
 -204 1834 -204 1834 -126 1795 c 0,14,15
 -40 1753 -40 1753 -38 1686 c 0,16,17
 -34 1585 -34 1585 -220 1562 c 1,18,-1
 -220 1512 l 1,19,-1
 -332 1512 l 1,20,-1
 -332 1624 l 1,21,0
 -275 1630 -275 1630 -259 1635 c 0,1,2
EndSplineSet
EndChar
StartChar: dieresistonos
Encoding: 901 901 496
Width: 682
Flags: W
LayerCount: 2
Fore
SplineSet
347 1507 m 1,0,-1
 533 1507 l 1,1,-1
 333 1230 l 1,2,-1
 216 1230 l 1,3,-1
 347 1507 l 1,0,-1
532 1422 m 1,4,-1
 705 1422 l 1,5,-1
 705 1230 l 1,6,-1
 532 1230 l 1,7,-1
 532 1422 l 1,4,-1
-22 1422 m 1,8,-1
 151 1422 l 1,9,-1
 151 1230 l 1,10,-1
 -22 1230 l 1,11,-1
 -22 1422 l 1,8,-1
EndSplineSet
EndChar
StartChar: Alphatonos
Encoding: 902 902 497
Width: 1367
Flags: W
LayerCount: 2
Fore
SplineSet
-1 0 m 1,0,-1
 562 1466 l 1,1,-1
 771 1466 l 1,2,-1
 1371 0 l 1,3,-1
 1150 0 l 1,4,-1
 979 444 l 1,5,-1
 366 444 l 1,6,-1
 205 0 l 1,7,-1
 -1 0 l 1,0,-1
422 602 m 1,8,-1
 919 602 l 1,9,-1
 766 1008 l 2,10,11
 693 1202 693 1202 662 1312 c 1,12,13
 634 1171 634 1171 583 1032 c 2,14,-1
 422 602 l 1,8,-1
54 1186 m 1,15,-1
 187 1466 l 1,16,-1
 423 1466 l 1,17,-1
 203 1186 l 1,18,-1
 54 1186 l 1,15,-1
EndSplineSet
EndChar
StartChar: anoteleia
Encoding: 903 903 476
Width: 569
Flags: W
LayerCount: 2
Fore
SplineSet
185 857 m 1,0,-1
 185 1062 l 1,1,-1
 390 1062 l 1,2,-1
 390 857 l 1,3,-1
 185 857 l 1,0,-1
EndSplineSet
EndChar
StartChar: Epsilontonos
Encoding: 904 904 498
Width: 1606
Flags: W
LayerCount: 2
Fore
SplineSet
401 0 m 1,0,-1
 401 1466 l 1,1,-1
 1461 1466 l 1,2,-1
 1461 1293 l 1,3,-1
 595 1293 l 1,4,-1
 595 844 l 1,5,-1
 1406 844 l 1,6,-1
 1406 672 l 1,7,-1
 595 672 l 1,8,-1
 595 173 l 1,9,-1
 1495 173 l 1,10,-1
 1495 0 l 1,11,-1
 401 0 l 1,0,-1
-89 1186 m 1,12,-1
 44 1466 l 1,13,-1
 280 1466 l 1,14,-1
 60 1186 l 1,15,-1
 -89 1186 l 1,12,-1
EndSplineSet
EndChar
StartChar: Etatonos
Encoding: 905 905 499
Width: 1716
Flags: W
LayerCount: 2
Fore
SplineSet
360 0 m 1,0,-1
 360 1466 l 1,1,-1
 554 1466 l 1,2,-1
 554 864 l 1,3,-1
 1316 864 l 1,4,-1
 1316 1466 l 1,5,-1
 1510 1466 l 1,6,-1
 1510 0 l 1,7,-1
 1316 0 l 1,8,-1
 1316 691 l 1,9,-1
 554 691 l 1,10,-1
 554 0 l 1,11,-1
 360 0 l 1,0,-1
-88 1186 m 1,12,-1
 45 1466 l 1,13,-1
 281 1466 l 1,14,-1
 61 1186 l 1,15,-1
 -88 1186 l 1,12,-1
EndSplineSet
EndChar
StartChar: Iotatonos
Encoding: 906 906 500
Width: 786
Flags: W
LayerCount: 2
Fore
SplineSet
360 0 m 1,0,-1
 360 1466 l 1,1,-1
 554 1466 l 1,2,-1
 554 0 l 1,3,-1
 360 0 l 1,0,-1
-88 1186 m 1,4,-1
 45 1466 l 1,5,-1
 281 1466 l 1,6,-1
 61 1186 l 1,7,-1
 -88 1186 l 1,4,-1
EndSplineSet
EndChar
StartChar: Omicrontonos
Encoding: 908 908 501
Width: 1586
Flags: W
LayerCount: 2
Fore
SplineSet
88 714 m 0,0,1
 88 1080 88 1080 285 1286 c 128,-1,2
 482 1492 482 1492 790 1492 c 0,3,4
 1099 1492 1099 1492 1294.5 1282.5 c 128,-1,5
 1490 1073 1490 1073 1490 731 c 0,6,7
 1490 391 1490 391 1293 183 c 128,-1,8
 1096 -25 1096 -25 789 -25 c 0,9,10
 568 -25 568 -25 401.5 85.5 c 128,-1,11
 235 196 235 196 161.5 369.5 c 128,-1,12
 88 543 88 543 88 714 c 0,0,1
288 711 m 0,13,14
 288 460 288 460 424 300.5 c 128,-1,15
 560 141 560 141 788 141 c 0,16,17
 1012 141 1012 141 1151 298.5 c 128,-1,18
 1290 456 1290 456 1290 732 c 0,19,20
 1290 1012 1290 1012 1150 1168.5 c 128,-1,21
 1010 1325 1010 1325 791 1325 c 0,22,23
 576 1325 576 1325 432 1178 c 128,-1,24
 288 1031 288 1031 288 711 c 0,13,14
-89 1186 m 1,25,-1
 44 1466 l 1,26,-1
 280 1466 l 1,27,-1
 60 1186 l 1,28,-1
 -89 1186 l 1,25,-1
EndSplineSet
EndChar
StartChar: Upsilontonos
Encoding: 910 910 502
Width: 1752
Flags: W
LayerCount: 2
Fore
SplineSet
945 0 m 1,0,-1
 945 621 l 1,1,-1
 380 1466 l 1,2,-1
 616 1466 l 1,3,-1
 905 1024 l 2,4,5
 990 893 990 893 1054 776 c 1,6,7
 1120 891 1120 891 1214 1035 c 2,8,-1
 1498 1466 l 1,9,-1
 1724 1466 l 1,10,-1
 1139 621 l 1,11,-1
 1139 0 l 1,12,-1
 945 0 l 1,0,-1
-89 1186 m 1,13,-1
 44 1466 l 1,14,-1
 280 1466 l 1,15,-1
 60 1186 l 1,16,-1
 -89 1186 l 1,13,-1
EndSplineSet
EndChar
StartChar: Omegatonos
Encoding: 911 911 503
Width: 1541
Flags: W
LayerCount: 2
Fore
SplineSet
107 173 m 1,0,-1
 427 173 l 1,1,2
 123 427 123 427 123 793 c 0,3,4
 123 992 123 992 203 1150 c 128,-1,5
 283 1308 283 1308 429 1399.5 c 128,-1,6
 575 1491 575 1491 780 1491 c 0,7,8
 983 1491 983 1491 1118.5 1407 c 128,-1,9
 1254 1323 1254 1323 1341.5 1166 c 128,-1,10
 1429 1009 1429 1009 1429 793 c 0,11,12
 1429 427 1429 427 1125 173 c 1,13,-1
 1445 173 l 1,14,-1
 1445 0 l 1,15,-1
 875 0 l 1,16,-1
 875 162 l 1,17,18
 1231 328 1231 328 1231 763 c 0,19,20
 1231 1008 1231 1008 1105.5 1166.5 c 128,-1,21
 980 1325 980 1325 779 1325 c 0,22,23
 572 1325 572 1325 448 1165.5 c 128,-1,24
 324 1006 324 1006 324 773 c 0,25,26
 324 332 324 332 678 162 c 1,27,-1
 678 0 l 1,28,-1
 107 0 l 1,29,-1
 107 173 l 1,0,-1
-89 1186 m 1,30,-1
 44 1466 l 1,31,-1
 280 1466 l 1,32,-1
 60 1186 l 1,33,-1
 -89 1186 l 1,30,-1
EndSplineSet
EndChar
StartChar: iotadieresistonos
Encoding: 912 912 504
Width: 455
Flags: W
LayerCount: 2
Fore
SplineSet
137 0 m 1,0,-1
 137 1062 l 1,1,-1
 317 1062 l 1,2,-1
 317 0 l 1,3,-1
 137 0 l 1,0,-1
233 1507 m 1,4,-1
 419 1507 l 1,5,-1
 219 1230 l 1,6,-1
 102 1230 l 1,7,-1
 233 1507 l 1,4,-1
418 1422 m 1,8,-1
 591 1422 l 1,9,-1
 591 1230 l 1,10,-1
 418 1230 l 1,11,-1
 418 1422 l 1,8,-1
-136 1422 m 1,12,-1
 37 1422 l 1,13,-1
 37 1230 l 1,14,-1
 -136 1230 l 1,15,-1
 -136 1422 l 1,12,-1
EndSplineSet
EndChar
StartChar: Gamma
Encoding: 915 915 299
Width: 1128
Flags: W
LayerCount: 2
Fore
SplineSet
164 1466 m 1,0,-1
 1080 1466 l 1,1,-1
 1080 1293 l 1,2,-1
 358 1293 l 1,3,-1
 358 0 l 1,4,-1
 164 0 l 1,5,-1
 164 1466 l 1,0,-1
EndSplineSet
EndChar
StartChar: Delta
Encoding: 916 916 507
Width: 1368
Flags: W
LayerCount: 2
Fore
SplineSet
-2 0 m 1,0,-1
 561 1466 l 1,1,-1
 770 1466 l 1,2,-1
 1370 0 l 1,3,-1
 -2 0 l 1,0,-1
267 173 m 1,4,-1
 1082 173 l 1,5,-1
 765 1008 l 2,6,7
 694 1196 694 1196 661 1312 c 1,8,9
 634 1176 634 1176 582 1032 c 2,10,-1
 267 173 l 1,4,-1
EndSplineSet
EndChar
StartChar: Theta
Encoding: 920 920 300
Width: 1593
Flags: W
LayerCount: 2
Fore
SplineSet
96 714 m 0,0,1
 96 1080 96 1080 293 1286 c 128,-1,2
 490 1492 490 1492 798 1492 c 0,3,4
 1107 1492 1107 1492 1302.5 1282.5 c 128,-1,5
 1498 1073 1498 1073 1498 731 c 0,6,7
 1498 391 1498 391 1301 183 c 128,-1,8
 1104 -25 1104 -25 797 -25 c 0,9,10
 576 -25 576 -25 409.5 85.5 c 128,-1,11
 243 196 243 196 169.5 369.5 c 128,-1,12
 96 543 96 543 96 714 c 0,0,1
296 711 m 0,13,14
 296 460 296 460 432 300.5 c 128,-1,15
 568 141 568 141 796 141 c 0,16,17
 1020 141 1020 141 1159 298.5 c 128,-1,18
 1298 456 1298 456 1298 732 c 0,19,20
 1298 1012 1298 1012 1158 1168.5 c 128,-1,21
 1018 1325 1018 1325 799 1325 c 0,22,23
 584 1325 584 1325 440 1178 c 128,-1,24
 296 1031 296 1031 296 711 c 0,13,14
507 647 m 1,25,-1
 507 819 l 1,26,-1
 1087 819 l 1,27,-1
 1087 647 l 1,28,-1
 507 647 l 1,25,-1
EndSplineSet
EndChar
StartChar: Lambda
Encoding: 923 923 513
Width: 1368
Flags: W
LayerCount: 2
Fore
SplineSet
784 1466 m 1,0,-1
 1352 0 l 1,1,-1
 1141 0 l 1,2,-1
 760 1064 l 2,3,4
 710 1204 710 1204 683 1305 c 1,5,6
 650 1184 650 1184 605 1064 c 2,7,-1
 209 0 l 1,8,-1
 11 0 l 1,9,-1
 584 1466 l 1,10,-1
 784 1466 l 1,0,-1
EndSplineSet
EndChar
StartChar: Xi
Encoding: 926 926 516
Width: 1331
Flags: W
LayerCount: 2
Fore
SplineSet
136 1466 m 1,0,-1
 1195 1466 l 1,1,-1
 1195 1293 l 1,2,-1
 136 1293 l 1,3,-1
 136 1466 l 1,0,-1
230 819 m 1,4,-1
 1101 819 l 1,5,-1
 1101 647 l 1,6,-1
 230 647 l 1,7,-1
 230 819 l 1,4,-1
109 173 m 1,8,-1
 1222 173 l 1,9,-1
 1222 0 l 1,10,-1
 109 0 l 1,11,-1
 109 173 l 1,8,-1
EndSplineSet
EndChar
StartChar: Pi
Encoding: 928 928 518
Width: 1479
Flags: W
LayerCount: 2
Fore
SplineSet
164 0 m 1,0,-1
 164 1466 l 1,1,-1
 1314 1466 l 1,2,-1
 1314 0 l 1,3,-1
 1120 0 l 1,4,-1
 1120 1293 l 1,5,-1
 358 1293 l 1,6,-1
 358 0 l 1,7,-1
 164 0 l 1,0,-1
EndSplineSet
EndChar
StartChar: Sigma
Encoding: 931 931 520
Width: 1266
Flags: W
LayerCount: 2
Fore
SplineSet
1145 1466 m 1,0,-1
 1145 1293 l 1,1,-1
 358 1293 l 1,2,-1
 858 761 l 1,3,-1
 358 173 l 1,4,-1
 1186 173 l 1,5,-1
 1186 0 l 1,6,-1
 148 0 l 1,7,-1
 148 202 l 1,8,-1
 627 761 l 1,9,-1
 148 1271 l 1,10,-1
 148 1466 l 1,11,-1
 1145 1466 l 1,0,-1
EndSplineSet
EndChar
StartChar: Phi
Encoding: 934 934 301
Width: 1634
Flags: W
LayerCount: 2
Fore
SplineSet
720 1510 m 1,0,-1
 914 1510 l 1,1,-1
 914 1329 l 1,2,3
 1222 1310 1222 1310 1385.5 1149 c 128,-1,4
 1549 988 1549 988 1549 749 c 0,5,6
 1549 481 1549 481 1372 326 c 128,-1,7
 1195 171 1195 171 914 161 c 1,8,-1
 914 -53 l 1,9,-1
 720 -53 l 1,10,-1
 720 161 l 1,11,12
 431 172 431 172 258 331.5 c 128,-1,13
 85 491 85 491 85 740 c 0,14,15
 85 903 85 903 160 1035 c 128,-1,16
 235 1167 235 1167 372 1243 c 128,-1,17
 509 1319 509 1319 720 1329 c 1,18,-1
 720 1510 l 1,0,-1
720 1161 m 1,19,20
 514 1155 514 1155 400.5 1048 c 128,-1,21
 287 941 287 941 287 741 c 0,22,23
 287 539 287 539 411 434 c 128,-1,24
 535 329 535 329 720 326 c 1,25,-1
 720 1161 l 1,19,20
914 326 m 1,26,27
 1119 332 1119 332 1235 441 c 128,-1,28
 1351 550 1351 550 1351 744 c 0,29,30
 1351 928 1351 928 1240 1044.5 c 128,-1,31
 1129 1161 1129 1161 914 1161 c 1,32,-1
 914 326 l 1,26,27
EndSplineSet
EndChar
StartChar: Psi
Encoding: 936 936 524
Width: 1711
Flags: W
LayerCount: 2
Fore
SplineSet
127 1466 m 1,0,-1
 321 1466 l 1,1,-1
 321 1071 l 2,2,3
 321 830 321 830 428 733.5 c 128,-1,4
 535 637 535 637 758 619 c 1,5,-1
 758 1466 l 1,6,-1
 952 1466 l 1,7,-1
 952 619 l 1,8,9
 1162 632 1162 632 1275.5 735 c 128,-1,10
 1389 838 1389 838 1389 1095 c 2,11,-1
 1389 1466 l 1,12,-1
 1584 1466 l 1,13,-1
 1584 1052 l 2,14,15
 1584 463 1584 463 952 453 c 1,16,-1
 952 0 l 1,17,-1
 758 0 l 1,18,-1
 758 453 l 1,19,20
 428 459 428 459 277.5 613.5 c 128,-1,21
 127 768 127 768 127 1035 c 2,22,-1
 127 1466 l 1,0,-1
EndSplineSet
EndChar
StartChar: Omega
Encoding: 937 937 525
Width: 1531
Flags: W
LayerCount: 2
Fore
SplineSet
97 173 m 1,0,-1
 417 173 l 1,1,2
 113 427 113 427 113 793 c 0,3,4
 113 992 113 992 193 1150 c 128,-1,5
 273 1308 273 1308 419 1399.5 c 128,-1,6
 565 1491 565 1491 770 1491 c 0,7,8
 973 1491 973 1491 1108.5 1407 c 128,-1,9
 1244 1323 1244 1323 1331.5 1166 c 128,-1,10
 1419 1009 1419 1009 1419 793 c 0,11,12
 1419 427 1419 427 1115 173 c 1,13,-1
 1435 173 l 1,14,-1
 1435 0 l 1,15,-1
 865 0 l 1,16,-1
 865 162 l 1,17,18
 1221 328 1221 328 1221 763 c 0,19,20
 1221 1008 1221 1008 1095.5 1166.5 c 128,-1,21
 970 1325 970 1325 769 1325 c 0,22,23
 562 1325 562 1325 438 1165.5 c 128,-1,24
 314 1006 314 1006 314 773 c 0,25,26
 314 332 314 332 668 162 c 1,27,-1
 668 0 l 1,28,-1
 97 0 l 1,29,-1
 97 173 l 1,0,-1
EndSplineSet
EndChar
StartChar: alpha
Encoding: 945 945 302
Width: 1184
Flags: W
LayerCount: 2
Fore
SplineSet
923 1062 m 1,0,-1
 1107 1062 l 1,1,2
 1037 842 1037 842 978 531 c 1,3,4
 1048 145 1048 145 1107 0 c 1,5,-1
 928 0 l 1,6,7
 885 100 885 100 863 194 c 1,8,9
 780 -24 780 -24 516 -24 c 0,10,11
 316 -24 316 -24 194 126 c 128,-1,12
 72 276 72 276 72 533 c 0,13,14
 72 797 72 797 194.5 941.5 c 128,-1,15
 317 1086 317 1086 519 1086 c 0,16,17
 644 1086 644 1086 723 1035.5 c 128,-1,18
 802 985 802 985 870 882 c 1,19,20
 877 917 877 917 923 1062 c 1,0,-1
549 937 m 0,21,22
 420 937 420 937 345 833 c 128,-1,23
 270 729 270 729 270 533 c 0,24,25
 270 342 270 342 341 233 c 128,-1,26
 412 124 412 124 539 124 c 0,27,28
 663 124 663 124 746 231.5 c 128,-1,29
 829 339 829 339 829 541 c 0,30,31
 829 737 829 737 751.5 837 c 128,-1,32
 674 937 674 937 549 937 c 0,21,22
EndSplineSet
EndChar
StartChar: beta
Encoding: 946 946 533
Width: 1178
Flags: W
LayerCount: 2
Fore
SplineSet
319 135 m 1,0,-1
 319 -407 l 1,1,-1
 140 -407 l 1,2,-1
 140 1006 l 2,3,4
 140 1175 140 1175 185.5 1270.5 c 128,-1,5
 231 1366 231 1366 342 1428.5 c 128,-1,6
 453 1491 453 1491 589 1491 c 0,7,8
 790 1491 790 1491 893.5 1375.5 c 128,-1,9
 997 1260 997 1260 997 1123 c 0,10,11
 997 989 997 989 913.5 907 c 128,-1,12
 830 825 830 825 722 806 c 1,13,14
 896 789 896 789 990.5 681 c 128,-1,15
 1085 573 1085 573 1085 415 c 0,16,17
 1085 245 1085 245 973.5 110.5 c 128,-1,18
 862 -24 862 -24 651 -24 c 0,19,20
 435 -24 435 -24 319 135 c 1,0,-1
478 864 m 1,21,22
 662 864 662 864 746 928 c 128,-1,23
 830 992 830 992 830 1113 c 0,24,25
 830 1211 830 1211 758.5 1277 c 128,-1,26
 687 1343 687 1343 580 1343 c 0,27,28
 487 1343 487 1343 418.5 1294 c 128,-1,29
 350 1245 350 1245 334.5 1185 c 128,-1,30
 319 1125 319 1125 319 975 c 2,31,-1
 319 572 l 2,32,33
 319 400 319 400 343 319 c 128,-1,34
 367 238 367 238 446 173 c 128,-1,35
 525 108 525 108 628 108 c 0,36,37
 753 108 753 108 825.5 193.5 c 128,-1,38
 898 279 898 279 898 405 c 0,39,40
 898 509 898 509 844.5 591.5 c 128,-1,41
 791 674 791 674 712.5 703.5 c 128,-1,42
 634 733 634 733 504 733 c 2,43,-1
 478 733 l 1,44,-1
 478 864 l 1,21,22
EndSplineSet
EndChar
StartChar: gamma
Encoding: 947 947 534
Width: 1024
Flags: W
LayerCount: 2
Fore
SplineSet
25 1062 m 1,0,-1
 214 1062 l 1,1,-1
 511 225 l 1,2,-1
 815 1062 l 1,3,-1
 999 1062 l 1,4,-1
 602 0 l 1,5,-1
 602 -407 l 1,6,-1
 419 -407 l 1,7,-1
 419 0 l 1,8,-1
 25 1062 l 1,0,-1
EndSplineSet
EndChar
StartChar: delta
Encoding: 948 948 303
Width: 1140
Flags: W
LayerCount: 2
Fore
SplineSet
174 1466 m 1,0,-1
 975 1466 l 1,1,-1
 975 1320 l 1,2,-1
 415 1320 l 1,3,4
 515 1218 515 1218 728 1071 c 0,5,6
 918 939 918 939 993 826 c 128,-1,7
 1068 713 1068 713 1068 520 c 0,8,9
 1068 261 1068 261 928.5 118.5 c 128,-1,10
 789 -24 789 -24 565 -24 c 0,11,12
 320 -24 320 -24 196 136 c 128,-1,13
 72 296 72 296 72 516 c 0,14,15
 72 772 72 772 203 906.5 c 128,-1,16
 334 1041 334 1041 516 1048 c 1,17,18
 423 1113 423 1113 174 1336 c 1,19,-1
 174 1466 l 1,0,-1
256 514 m 0,20,21
 256 344 256 344 345.5 234 c 128,-1,22
 435 124 435 124 574 124 c 0,23,24
 696 124 696 124 789.5 218 c 128,-1,25
 883 312 883 312 883 515 c 0,26,27
 883 703 883 703 794 806 c 128,-1,28
 705 909 705 909 570 909 c 0,29,30
 421 909 421 909 338.5 793 c 128,-1,31
 256 677 256 677 256 514 c 0,20,21
EndSplineSet
EndChar
StartChar: epsilon
Encoding: 949 949 304
Width: 913
Flags: W
LayerCount: 2
Fore
SplineSet
829 942 m 1,0,-1
 700 838 l 1,1,2
 577 931 577 931 470 931 c 0,3,4
 382 931 382 931 341.5 884 c 128,-1,5
 301 837 301 837 301 783 c 0,6,7
 301 713 301 713 361 666.5 c 128,-1,8
 421 620 421 620 537 620 c 0,9,10
 552 620 552 620 587 621 c 1,11,-1
 587 470 l 1,12,13
 555 471 555 471 539 471 c 0,14,15
 396 471 396 471 340.5 416 c 128,-1,16
 285 361 285 361 285 292 c 0,17,18
 285 221 285 221 341 172.5 c 128,-1,19
 397 124 397 124 474 124 c 0,20,21
 615 124 615 124 738 255 c 1,22,-1
 867 146 l 1,23,24
 707 -24 707 -24 469 -24 c 0,25,26
 282 -24 282 -24 190 71 c 128,-1,27
 98 166 98 166 98 292 c 0,28,29
 98 473 98 473 274 549 c 1,30,31
 127 632 127 632 127 778 c 0,32,33
 127 897 127 897 214 991.5 c 128,-1,34
 301 1086 301 1086 481 1086 c 0,35,36
 687 1086 687 1086 829 942 c 1,0,-1
EndSplineSet
EndChar
StartChar: zeta
Encoding: 950 950 535
Width: 903
Flags: W
LayerCount: 2
Fore
SplineSet
234 1466 m 1,0,-1
 886 1466 l 1,1,-1
 886 1344 l 1,2,3
 617 1178 617 1178 434.5 909.5 c 128,-1,4
 252 641 252 641 252 413 c 0,5,6
 252 293 252 293 306 235 c 128,-1,7
 360 177 360 177 481 167 c 0,8,9
 637 153 637 153 702.5 132.5 c 128,-1,10
 768 112 768 112 817 48.5 c 128,-1,11
 866 -15 866 -15 866 -104 c 0,12,13
 866 -201 866 -201 806 -283 c 128,-1,14
 746 -365 746 -365 667.5 -398 c 128,-1,15
 589 -431 589 -431 476 -431 c 1,16,-1
 525 -265 l 1,17,18
 693 -246 693 -246 693 -124 c 0,19,20
 693 -83 693 -83 666 -52 c 128,-1,21
 639 -21 639 -21 600 -12 c 128,-1,22
 561 -3 561 -3 452 1 c 0,23,24
 301 5 301 5 224.5 61.5 c 128,-1,25
 148 118 148 118 110 211 c 128,-1,26
 72 304 72 304 72 421 c 0,27,28
 72 658 72 658 243 909.5 c 128,-1,29
 414 1161 414 1161 650 1320 c 1,30,-1
 234 1320 l 1,31,-1
 234 1466 l 1,0,-1
EndSplineSet
EndChar
StartChar: eta
Encoding: 951 951 536
Width: 1139
Flags: W
LayerCount: 2
Fore
SplineSet
139 0 m 1,0,-1
 139 1062 l 1,1,-1
 301 1062 l 1,2,-1
 301 911 l 1,3,4
 418 1086 418 1086 639 1086 c 0,5,6
 769 1086 769 1086 857 1030 c 128,-1,7
 945 974 945 974 973.5 891.5 c 128,-1,8
 1002 809 1002 809 1002 653 c 2,9,-1
 1002 -407 l 1,10,-1
 822 -407 l 1,11,-1
 822 646 l 2,12,13
 822 794 822 794 770 862 c 128,-1,14
 718 930 718 930 599 930 c 0,15,16
 482 930 482 930 400.5 855 c 128,-1,17
 319 780 319 780 319 580 c 2,18,-1
 319 0 l 1,19,-1
 139 0 l 1,0,-1
EndSplineSet
EndChar
StartChar: theta
Encoding: 952 952 537
Width: 1139
Flags: W
LayerCount: 2
Fore
SplineSet
92 733 m 0,0,1
 92 1491 92 1491 570 1491 c 256,2,3
 1048 1491 1048 1491 1048 733 c 0,4,5
 1048 -24 1048 -24 570 -24 c 256,6,7
 92 -24 92 -24 92 733 c 0,0,1
278 806 m 1,8,-1
 862 806 l 1,9,10
 852 1119 852 1119 772 1231 c 128,-1,11
 692 1343 692 1343 568 1343 c 0,12,13
 289 1343 289 1343 278 806 c 1,8,-1
862 661 m 1,14,-1
 278 661 l 1,15,16
 289 124 289 124 570 124 c 0,17,18
 852 124 852 124 862 661 c 1,14,-1
EndSplineSet
EndChar
StartChar: iota
Encoding: 953 953 538
Width: 455
Flags: W
LayerCount: 2
Fore
SplineSet
137 0 m 1,0,-1
 137 1062 l 1,1,-1
 317 1062 l 1,2,-1
 317 0 l 1,3,-1
 137 0 l 1,0,-1
EndSplineSet
EndChar
StartChar: kappa
Encoding: 954 954 539
Width: 1024
Flags: W
LayerCount: 2
Fore
SplineSet
134 1062 m 1,0,-1
 313 1062 l 1,1,-1
 313 645 l 1,2,-1
 744 1062 l 1,3,-1
 982 1062 l 1,4,-1
 507 621 l 1,5,-1
 1023 0 l 1,6,-1
 793 0 l 1,7,-1
 379 500 l 1,8,-1
 313 439 l 1,9,-1
 313 0 l 1,10,-1
 134 0 l 1,11,-1
 134 1062 l 1,0,-1
EndSplineSet
EndChar
StartChar: lambda
Encoding: 955 955 540
Width: 1024
Flags: W
LayerCount: 2
Fore
SplineSet
511 794 m 1,0,-1
 214 0 l 1,1,-1
 24 0 l 1,2,-1
 418 1042 l 1,3,-1
 260 1466 l 1,4,-1
 450 1466 l 1,5,-1
 998 0 l 1,6,-1
 808 0 l 1,7,-1
 511 794 l 1,0,-1
EndSplineSet
EndChar
StartChar: xi
Encoding: 958 958 543
Width: 917
Flags: W
LayerCount: 2
Fore
SplineSet
772 1491 m 1,0,-1
 772 1342 l 1,1,-1
 625 1342 l 2,2,3
 461 1342 461 1342 387.5 1293.5 c 128,-1,4
 314 1245 314 1245 314 1155 c 0,5,6
 314 983 314 983 613 983 c 2,7,-1
 760 983 l 1,8,-1
 760 834 l 1,9,10
 628 834 628 834 530 795 c 128,-1,11
 432 756 432 756 353.5 655 c 128,-1,12
 275 554 275 554 275 426 c 0,13,14
 275 330 275 330 331.5 255 c 128,-1,15
 388 180 388 180 574 159 c 0,16,17
 694 145 694 145 750 114.5 c 128,-1,18
 806 84 806 84 843 22 c 128,-1,19
 880 -40 880 -40 880 -112 c 0,20,21
 880 -244 880 -244 771 -336.5 c 128,-1,22
 662 -429 662 -429 477 -431 c 1,23,-1
 523 -264 l 1,24,25
 622 -257 622 -257 663.5 -213 c 128,-1,26
 705 -169 705 -169 705 -123 c 0,27,28
 705 -21 705 -21 534 -2 c 0,29,30
 92 46 92 46 92 420 c 0,31,32
 92 573 92 573 183.5 695 c 128,-1,33
 275 817 275 817 417 878 c 1,34,35
 275 896 275 896 210.5 985.5 c 128,-1,36
 146 1075 146 1075 146 1168 c 0,37,38
 146 1298 146 1298 260.5 1394.5 c 128,-1,39
 375 1491 375 1491 594 1491 c 2,40,-1
 772 1491 l 1,0,-1
EndSplineSet
EndChar
StartChar: pi
Encoding: 960 960 652
Width: 1413
Flags: W
LayerCount: 2
Fore
SplineSet
505 916 m 1,0,-1
 505 0 l 1,1,-1
 325 0 l 1,2,-1
 325 916 l 1,3,-1
 45 916 l 1,4,-1
 45 1062 l 1,5,-1
 1369 1062 l 1,6,-1
 1369 916 l 1,7,-1
 1127 916 l 1,8,-1
 1127 0 l 1,9,-1
 947 0 l 1,10,-1
 947 916 l 1,11,-1
 505 916 l 1,0,-1
EndSplineSet
EndChar
StartChar: rho
Encoding: 961 961 545
Width: 1165
Flags: W
LayerCount: 2
Fore
SplineSet
131 -407 m 1,0,-1
 131 494 l 2,1,2
 131 796 131 796 250 941 c 128,-1,3
 369 1086 369 1086 596 1086 c 0,4,5
 822 1086 822 1086 957.5 932 c 128,-1,6
 1093 778 1093 778 1093 532 c 0,7,8
 1093 285 1093 285 963.5 130.5 c 128,-1,9
 834 -24 834 -24 623 -24 c 0,10,11
 426 -24 426 -24 311 101 c 1,12,-1
 311 -407 l 1,13,-1
 131 -407 l 1,0,-1
602 937 m 0,14,15
 471 937 471 937 392 836.5 c 128,-1,16
 313 736 313 736 313 517 c 0,17,18
 313 320 313 320 391 222 c 128,-1,19
 469 124 469 124 603 124 c 0,20,21
 738 124 738 124 823 225.5 c 128,-1,22
 908 327 908 327 908 522 c 0,23,24
 908 744 908 744 817 840.5 c 128,-1,25
 726 937 726 937 602 937 c 0,14,15
EndSplineSet
EndChar
StartChar: sigma1
Encoding: 962 962 546
Width: 987
Flags: W
LayerCount: 2
Fore
SplineSet
966 1052 m 1,0,-1
 924 902 l 1,1,2
 812 937 812 937 700 937 c 0,3,4
 499 937 499 937 380 812.5 c 128,-1,5
 261 688 261 688 261 520 c 0,6,7
 261 404 261 404 326.5 314.5 c 128,-1,8
 392 225 392 225 586 174 c 0,9,10
 725 137 725 137 787 104.5 c 128,-1,11
 849 72 849 72 884 14.5 c 128,-1,12
 919 -43 919 -43 919 -118 c 0,13,14
 919 -255 919 -255 808 -343 c 128,-1,15
 697 -431 697 -431 531 -431 c 0,16,17
 464 -431 464 -431 379 -417 c 1,18,-1
 423 -252 l 1,19,20
 481 -264 481 -264 524 -264 c 0,21,22
 620 -264 620 -264 675 -222.5 c 128,-1,23
 730 -181 730 -181 730 -122 c 0,24,25
 730 -68 730 -68 690.5 -39.5 c 128,-1,26
 651 -11 651 -11 525 16 c 0,27,28
 303 63 303 63 194.5 189 c 128,-1,29
 86 315 86 315 86 489 c 0,30,31
 86 730 86 730 258.5 908 c 128,-1,32
 431 1086 431 1086 723 1086 c 0,33,34
 846 1086 846 1086 966 1052 c 1,0,-1
EndSplineSet
EndChar
StartChar: sigma
Encoding: 963 963 305
Width: 1264
Flags: W
LayerCount: 2
Fore
SplineSet
1219 1062 m 1,0,-1
 1219 916 l 1,1,-1
 930 916 l 1,2,3
 1063 792 1063 792 1063 530 c 0,4,5
 1063 245 1063 245 917.5 110.5 c 128,-1,6
 772 -24 772 -24 564 -24 c 0,7,8
 348 -24 348 -24 208 116 c 128,-1,9
 68 256 68 256 68 531 c 0,10,11
 68 814 68 814 213.5 950 c 128,-1,12
 359 1086 359 1086 564 1086 c 0,13,14
 639 1086 639 1086 734 1062 c 1,15,-1
 1219 1062 l 1,0,-1
561 937 m 0,16,17
 430 937 430 937 341.5 835 c 128,-1,18
 253 733 253 733 253 530 c 0,19,20
 253 328 253 328 339.5 226 c 128,-1,21
 426 124 426 124 564 124 c 0,22,23
 709 124 709 124 794.5 230.5 c 128,-1,24
 880 337 880 337 880 531 c 0,25,26
 880 708 880 708 801.5 822.5 c 128,-1,27
 723 937 723 937 561 937 c 0,16,17
EndSplineSet
EndChar
StartChar: tau
Encoding: 964 964 306
Width: 809
Flags: W
LayerCount: 2
Fore
SplineSet
506 916 m 1,0,-1
 506 0 l 1,1,-1
 326 0 l 1,2,-1
 326 916 l 1,3,-1
 46 916 l 1,4,-1
 46 1062 l 1,5,-1
 762 1062 l 1,6,-1
 762 916 l 1,7,-1
 506 916 l 1,0,-1
EndSplineSet
EndChar
StartChar: upsilon
Encoding: 965 965 547
Width: 1120
Flags: W
LayerCount: 2
Fore
SplineSet
136 1062 m 1,0,-1
 316 1062 l 1,1,-1
 316 433 l 2,2,3
 316 270 316 270 389 197 c 128,-1,4
 462 124 462 124 560 124 c 0,5,6
 641 124 641 124 701 170 c 128,-1,7
 761 216 761 216 784 276 c 128,-1,8
 807 336 807 336 807 447 c 2,9,-1
 807 1062 l 1,10,-1
 986 1062 l 1,11,-1
 986 440 l 2,12,13
 986 203 986 203 868 89.5 c 128,-1,14
 750 -24 750 -24 557 -24 c 0,15,16
 408 -24 408 -24 310.5 42.5 c 128,-1,17
 213 109 213 109 174.5 196 c 128,-1,18
 136 283 136 283 136 433 c 2,19,-1
 136 1062 l 1,0,-1
EndSplineSet
EndChar
StartChar: phi
Encoding: 966 966 307
Width: 1328
Flags: W
LayerCount: 2
Fore
SplineSet
499 1083 m 1,0,-1
 464 927 l 1,1,2
 257 858 257 858 257 565 c 0,3,4
 257 410 257 410 338.5 288.5 c 128,-1,5
 420 167 420 167 582 132 c 1,6,-1
 582 792 l 2,7,8
 582 898 582 898 597 955.5 c 128,-1,9
 612 1013 612 1013 665.5 1049.5 c 128,-1,10
 719 1086 719 1086 811 1086 c 0,11,12
 954 1086 954 1086 1043.5 1028 c 128,-1,13
 1133 970 1133 970 1195 845 c 128,-1,14
 1257 720 1257 720 1257 576 c 0,15,16
 1257 456 1257 456 1208 335.5 c 128,-1,17
 1159 215 1159 215 1049 114 c 128,-1,18
 939 13 939 13 760 -25 c 1,19,-1
 760 -407 l 1,20,-1
 582 -407 l 1,21,-1
 582 -25 l 1,22,23
 396 -25 396 -25 234 138 c 128,-1,24
 72 301 72 301 72 557 c 0,25,26
 72 794 72 794 201.5 940.5 c 128,-1,27
 331 1087 331 1087 499 1083 c 1,0,-1
760 140 m 1,28,29
 887 163 887 163 977.5 282 c 128,-1,30
 1068 401 1068 401 1068 594 c 0,31,32
 1068 773 1068 773 1002 855 c 128,-1,33
 936 937 936 937 862 937 c 0,34,35
 809 937 809 937 784.5 900.5 c 128,-1,36
 760 864 760 864 760 740 c 2,37,-1
 760 140 l 1,28,29
EndSplineSet
EndChar
StartChar: chi
Encoding: 967 967 548
Width: 1075
Flags: W
LayerCount: 2
Fore
SplineSet
48 1062 m 1,0,-1
 244 1062 l 1,1,-1
 536 474 l 1,2,-1
 838 1062 l 1,3,-1
 1036 1062 l 1,4,-1
 646 338 l 1,5,-1
 1056 -407 l 1,6,-1
 851 -407 l 1,7,-1
 536 206 l 1,8,-1
 218 -407 l 1,9,-1
 17 -407 l 1,10,-1
 426 332 l 1,11,-1
 48 1062 l 1,0,-1
EndSplineSet
EndChar
StartChar: psi
Encoding: 968 968 549
Width: 1460
Flags: W
LayerCount: 2
Fore
SplineSet
122 1062 m 1,0,-1
 301 1062 l 1,1,-1
 301 538 l 2,2,3
 301 391 301 391 325 314 c 128,-1,4
 349 237 349 237 426.5 185.5 c 128,-1,5
 504 134 504 134 640 127 c 1,6,-1
 640 1062 l 1,7,-1
 820 1062 l 1,8,-1
 820 127 l 1,9,10
 951 134 951 134 1028 183 c 128,-1,11
 1105 232 1105 232 1131.5 308.5 c 128,-1,12
 1158 385 1158 385 1158 538 c 2,13,-1
 1158 1062 l 1,14,-1
 1337 1062 l 1,15,-1
 1337 544 l 2,16,17
 1337 336 1337 336 1298.5 235 c 128,-1,18
 1260 134 1260 134 1143 58.5 c 128,-1,19
 1026 -17 1026 -17 820 -24 c 1,20,-1
 820 -407 l 1,21,-1
 640 -407 l 1,22,-1
 640 -24 l 1,23,24
 507 -20 507 -20 407 14 c 128,-1,25
 307 48 307 48 237.5 122.5 c 128,-1,26
 168 197 168 197 145 279 c 128,-1,27
 122 361 122 361 122 544 c 2,28,-1
 122 1062 l 1,0,-1
EndSplineSet
EndChar
StartChar: omega
Encoding: 969 969 550
Width: 1599
Flags: W
LayerCount: 2
Fore
SplineSet
245 1062 m 1,0,-1
 419 1062 l 1,1,2
 270 733 270 733 270 506 c 0,3,4
 270 331 270 331 334 224 c 128,-1,5
 398 117 398 117 497 117 c 0,6,7
 561 117 561 117 617 167 c 128,-1,8
 673 217 673 217 691.5 287 c 128,-1,9
 710 357 710 357 710 483 c 2,10,-1
 710 794 l 1,11,-1
 889 794 l 1,12,-1
 889 483 l 2,13,14
 889 360 889 360 907.5 288 c 128,-1,15
 926 216 926 216 982.5 166.5 c 128,-1,16
 1039 117 1039 117 1103 117 c 0,17,18
 1201 117 1201 117 1265 223.5 c 128,-1,19
 1329 330 1329 330 1329 506 c 0,20,21
 1329 733 1329 733 1181 1062 c 1,22,-1
 1354 1062 l 1,23,24
 1512 781 1512 781 1512 517 c 0,25,26
 1512 252 1512 252 1402.5 114 c 128,-1,27
 1293 -24 1293 -24 1123 -24 c 0,28,29
 897 -24 897 -24 800 215 c 1,30,31
 702 -24 702 -24 476 -24 c 0,32,33
 297 -24 297 -24 192 121 c 128,-1,34
 87 266 87 266 87 517 c 0,35,36
 87 781 87 781 245 1062 c 1,0,-1
EndSplineSet
EndChar
StartChar: afii10051
Encoding: 1026 1026 557
Width: 1771
Flags: W
LayerCount: 2
Fore
SplineSet
50 1466 m 1,0,-1
 1220 1466 l 1,1,-1
 1220 1293 l 1,2,-1
 732 1293 l 1,3,-1
 732 837 l 1,4,5
 985 936 985 936 1172 936 c 0,6,7
 1405 936 1405 936 1547 795 c 128,-1,8
 1689 654 1689 654 1689 451 c 0,9,10
 1689 273 1689 273 1572.5 124 c 128,-1,11
 1456 -25 1456 -25 1231 -25 c 0,12,13
 1127 -25 1127 -25 996 8 c 1,14,-1
 1027 172 l 1,15,16
 1103 135 1103 135 1185 135 c 0,17,18
 1336 135 1336 135 1413.5 223 c 128,-1,19
 1491 311 1491 311 1491 445 c 0,20,21
 1491 587 1491 587 1401.5 680.5 c 128,-1,22
 1312 774 1312 774 1124 774 c 0,23,24
 962 774 962 774 732 680 c 1,25,-1
 732 0 l 1,26,-1
 538 0 l 1,27,-1
 538 1293 l 1,28,-1
 50 1293 l 1,29,-1
 50 1466 l 1,0,-1
EndSplineSet
EndChar
StartChar: afii10053
Encoding: 1028 1028 559
Width: 1472
Flags: W
LayerCount: 2
Fore
SplineSet
857 843 m 1,0,-1
 857 670 l 1,1,-1
 312 670 l 1,2,3
 323 423 323 423 449 280.5 c 128,-1,4
 575 138 575 138 772 138 c 0,5,6
 1122 138 1122 138 1211 510 c 1,7,-1
 1398 461 l 1,8,9
 1271 -25 1271 -25 786 -25 c 0,10,11
 439 -25 439 -25 269.5 198.5 c 128,-1,12
 100 422 100 422 111 749 c 1,13,14
 111 949 111 949 186.5 1114 c 128,-1,15
 262 1279 262 1279 418 1385 c 128,-1,16
 574 1491 574 1491 790 1491 c 0,17,18
 1018 1491 1018 1491 1171.5 1378 c 128,-1,19
 1325 1265 1325 1265 1379 1064 c 1,20,-1
 1189 1014 l 1,21,22
 1106 1321 1106 1321 789 1321 c 0,23,24
 575 1321 575 1321 453.5 1192 c 128,-1,25
 332 1063 332 1063 320 843 c 1,26,-1
 857 843 l 1,0,-1
EndSplineSet
EndChar
StartChar: afii10058
Encoding: 1033 1033 564
Width: 2165
Flags: W
LayerCount: 2
Fore
SplineSet
1178 1466 m 1,0,-1
 1178 840 l 1,1,-1
 1528 840 l 2,2,3
 1771 840 1771 840 1881 784.5 c 128,-1,4
 1991 729 1991 729 2040 630 c 128,-1,5
 2089 531 2089 531 2089 427 c 0,6,7
 2089 290 2089 290 2018.5 183.5 c 128,-1,8
 1948 77 1948 77 1847.5 38.5 c 128,-1,9
 1747 0 1747 0 1557 0 c 2,10,-1
 984 0 l 1,11,-1
 984 1293 l 1,12,-1
 454 1293 l 1,13,-1
 454 538 l 2,14,15
 454 308 454 308 432.5 201 c 128,-1,16
 411 94 411 94 342 34.5 c 128,-1,17
 273 -25 273 -25 167 -25 c 0,18,19
 103 -25 103 -25 13 -1 c 1,20,-1
 46 171 l 1,21,22
 94 151 94 151 128 151 c 0,23,24
 194 151 194 151 227 200.5 c 128,-1,25
 260 250 260 250 260 434 c 2,26,-1
 260 1466 l 1,27,-1
 1178 1466 l 1,0,-1
1178 165 m 1,28,-1
 1566 165 l 2,29,30
 1672 165 1672 165 1733 185.5 c 128,-1,31
 1794 206 1794 206 1837.5 265.5 c 128,-1,32
 1881 325 1881 325 1881 421 c 0,33,34
 1881 512 1881 512 1834.5 573.5 c 128,-1,35
 1788 635 1788 635 1709.5 654 c 128,-1,36
 1631 673 1631 673 1438 673 c 2,37,-1
 1178 673 l 1,38,-1
 1178 165 l 1,28,-1
EndSplineSet
EndChar
StartChar: afii10059
Encoding: 1034 1034 565
Width: 2069
Flags: W
LayerCount: 2
Fore
SplineSet
1082 1466 m 1,0,-1
 1082 840 l 1,1,-1
 1408 840 l 2,2,3
 1617 840 1617 840 1733.5 805 c 128,-1,4
 1850 770 1850 770 1921.5 667 c 128,-1,5
 1993 564 1993 564 1993 427 c 0,6,7
 1993 284 1993 284 1917.5 176 c 128,-1,8
 1842 68 1842 68 1741.5 34 c 128,-1,9
 1641 0 1641 0 1449 0 c 2,10,-1
 888 0 l 1,11,-1
 888 673 l 1,12,-1
 358 673 l 1,13,-1
 358 0 l 1,14,-1
 164 0 l 1,15,-1
 164 1466 l 1,16,-1
 358 1466 l 1,17,-1
 358 840 l 1,18,-1
 888 840 l 1,19,-1
 888 1466 l 1,20,-1
 1082 1466 l 1,0,-1
1082 165 m 1,21,-1
 1445 165 l 2,22,23
 1569 165 1569 165 1630.5 183 c 128,-1,24
 1692 201 1692 201 1738.5 261.5 c 128,-1,25
 1785 322 1785 322 1785 421 c 0,26,27
 1785 506 1785 506 1744 567 c 128,-1,28
 1703 628 1703 628 1619.5 650.5 c 128,-1,29
 1536 673 1536 673 1318 673 c 2,30,-1
 1082 673 l 1,31,-1
 1082 165 l 1,21,-1
EndSplineSet
EndChar
StartChar: afii10060
Encoding: 1035 1035 566
Width: 1749
Flags: W
LayerCount: 2
Fore
SplineSet
49 1466 m 1,0,-1
 1222 1466 l 1,1,-1
 1222 1293 l 1,2,-1
 733 1293 l 1,3,-1
 733 842 l 1,4,5
 1006 936 1006 936 1170 936 c 0,6,7
 1329 936 1329 936 1447 871.5 c 128,-1,8
 1565 807 1565 807 1610.5 695 c 128,-1,9
 1656 583 1656 583 1656 386 c 2,10,-1
 1656 0 l 1,11,-1
 1462 0 l 1,12,-1
 1462 379 l 2,13,14
 1462 523 1462 523 1435 602.5 c 128,-1,15
 1408 682 1408 682 1336.5 727 c 128,-1,16
 1265 772 1265 772 1159 772 c 0,17,18
 998 772 998 772 733 680 c 1,19,-1
 733 0 l 1,20,-1
 539 0 l 1,21,-1
 539 1293 l 1,22,-1
 49 1293 l 1,23,-1
 49 1466 l 1,0,-1
EndSplineSet
EndChar
StartChar: afii10145
Encoding: 1039 1039 569
Width: 1472
Flags: W
LayerCount: 2
Fore
SplineSet
823 0 m 1,0,-1
 823 -407 l 1,1,-1
 650 -407 l 1,2,-1
 650 0 l 1,3,-1
 160 0 l 1,4,-1
 160 1466 l 1,5,-1
 354 1466 l 1,6,-1
 354 173 l 1,7,-1
 1118 173 l 1,8,-1
 1118 1466 l 1,9,-1
 1313 1466 l 1,10,-1
 1313 0 l 1,11,-1
 823 0 l 1,0,-1
EndSplineSet
EndChar
StartChar: afii10018
Encoding: 1041 1041 571
Width: 1344
Flags: W
LayerCount: 2
Fore
SplineSet
167 1466 m 1,0,-1
 1118 1466 l 1,1,-1
 1118 1293 l 1,2,-1
 361 1293 l 1,3,-1
 361 841 l 1,4,-1
 711 841 l 2,5,6
 905 841 905 841 1019.5 804 c 128,-1,7
 1134 767 1134 767 1203 664.5 c 128,-1,8
 1272 562 1272 562 1272 426 c 0,9,10
 1272 315 1272 315 1222.5 218.5 c 128,-1,11
 1173 122 1173 122 1075 61 c 128,-1,12
 977 0 977 0 741 0 c 2,13,-1
 167 0 l 1,14,-1
 167 1466 l 1,0,-1
361 165 m 1,15,-1
 749 165 l 2,16,17
 906 165 906 165 984.5 229 c 128,-1,18
 1063 293 1063 293 1063 421 c 0,19,20
 1063 512 1063 512 1018 573 c 128,-1,21
 973 634 973 634 893 654 c 128,-1,22
 813 674 813 674 620 674 c 2,23,-1
 361 674 l 1,24,-1
 361 165 l 1,15,-1
EndSplineSet
EndChar
StartChar: afii10020
Encoding: 1043 1043 573
Width: 1109
Flags: W
LayerCount: 2
Fore
SplineSet
161 1466 m 1,0,-1
 1109 1466 l 1,1,-1
 1109 1293 l 1,2,-1
 355 1293 l 1,3,-1
 355 0 l 1,4,-1
 161 0 l 1,5,-1
 161 1466 l 1,0,-1
EndSplineSet
EndChar
StartChar: afii10021
Encoding: 1044 1044 574
Width: 1387
Flags: W
LayerCount: 2
Fore
SplineSet
291 1466 m 1,0,-1
 1183 1466 l 1,1,-1
 1183 173 l 1,2,-1
 1315 173 l 1,3,-1
 1315 -342 l 1,4,-1
 1142 -342 l 1,5,-1
 1142 0 l 1,6,-1
 173 0 l 1,7,-1
 173 -342 l 1,8,-1
 0 -342 l 1,9,-1
 0 173 l 1,10,-1
 114 173 l 1,11,12
 291 440 291 440 291 1252 c 2,13,-1
 291 1466 l 1,0,-1
989 1293 m 1,14,-1
 478 1293 l 1,15,-1
 478 1218 l 2,16,17
 478 1031 478 1031 444.5 706.5 c 128,-1,18
 411 382 411 382 313 173 c 1,19,-1
 989 173 l 1,20,-1
 989 1293 l 1,14,-1
EndSplineSet
EndChar
StartChar: afii10024
Encoding: 1046 1046 576
Width: 1891
Flags: W
LayerCount: 2
Fore
SplineSet
1045 1466 m 1,0,-1
 1045 824 l 1,1,2
 1188 824 1188 824 1241.5 876.5 c 128,-1,3
 1295 929 1295 929 1378 1123 c 0,4,5
 1439 1267 1439 1267 1478.5 1326.5 c 128,-1,6
 1518 1386 1518 1386 1591 1426.5 c 128,-1,7
 1664 1467 1664 1467 1751 1467 c 0,8,9
 1846 1467 1846 1467 1869 1465 c 1,10,-1
 1869 1297 l 1,11,12
 1860 1297 1860 1297 1831 1298 c 0,13,14
 1799 1299 1799 1299 1792 1299 c 0,15,16
 1699 1299 1699 1299 1654 1254 c 0,17,18
 1608 1209 1608 1209 1549 1062 c 0,19,20
 1485 903 1485 903 1438 845.5 c 128,-1,21
 1391 788 1391 788 1302 750 c 1,22,23
 1446 710 1446 710 1581 488 c 2,24,-1
 1883 0 l 1,25,-1
 1643 0 l 1,26,-1
 1398 398 l 2,27,28
 1300 556 1300 556 1233 621 c 128,-1,29
 1166 686 1166 686 1045 686 c 1,30,-1
 1045 0 l 1,31,-1
 846 0 l 1,32,-1
 846 686 l 1,33,34
 750 686 750 686 676.5 635.5 c 128,-1,35
 603 585 603 585 505 418 c 2,36,-1
 493 398 l 1,37,-1
 248 0 l 1,38,-1
 7 0 l 1,39,-1
 309 488 l 2,40,41
 447 711 447 711 589 750 c 1,42,43
 510 782 510 782 460 835.5 c 128,-1,44
 410 889 410 889 341 1062 c 0,45,46
 278 1219 278 1219 233 1259 c 256,47,48
 188 1299 188 1299 99 1299 c 2,49,-1
 21 1297 l 1,50,-1
 21 1465 l 1,51,52
 32 1467 32 1467 133 1467 c 0,53,54
 229 1467 229 1467 299.5 1427.5 c 128,-1,55
 370 1388 370 1388 410 1328.5 c 128,-1,56
 450 1269 450 1269 513 1123 c 0,57,58
 597 926 597 926 649.5 876 c 128,-1,59
 702 826 702 826 846 824 c 1,60,-1
 846 1466 l 1,61,-1
 1045 1466 l 1,0,-1
EndSplineSet
EndChar
StartChar: afii10025
Encoding: 1047 1047 577
Width: 1237
Flags: W
LayerCount: 2
Fore
SplineSet
78 414 m 1,0,-1
 263 462 l 1,1,2
 284 355 284 355 375.5 248 c 128,-1,3
 467 141 467 141 618 141 c 0,4,5
 772 141 772 141 861 220 c 128,-1,6
 950 299 950 299 950 411 c 0,7,8
 950 532 950 532 856 603.5 c 128,-1,9
 762 675 762 675 600 675 c 2,10,-1
 507 675 l 1,11,-1
 507 844 l 1,12,13
 641 844 641 844 712 859.5 c 128,-1,14
 783 875 783 875 837.5 938.5 c 128,-1,15
 892 1002 892 1002 892 1083 c 0,16,17
 892 1179 892 1179 817.5 1250 c 128,-1,18
 743 1321 743 1321 616 1321 c 0,19,20
 505 1321 505 1321 426.5 1265.5 c 128,-1,21
 348 1210 348 1210 318 1118.5 c 128,-1,22
 288 1027 288 1027 288 982 c 1,23,-1
 102 1024 l 1,24,25
 171 1491 171 1491 618 1491 c 0,26,27
 833 1491 833 1491 959 1371.5 c 128,-1,28
 1085 1252 1085 1252 1085 1092 c 0,29,30
 1085 887 1085 887 891 774 c 1,31,32
 1003 743 1003 743 1078.5 647.5 c 128,-1,33
 1154 552 1154 552 1154 419 c 0,34,35
 1154 230 1154 230 1007.5 102.5 c 128,-1,36
 861 -25 861 -25 619 -25 c 0,37,38
 203 -25 203 -25 78 414 c 1,0,-1
EndSplineSet
EndChar
StartChar: afii10026
Encoding: 1048 1048 578
Width: 1472
Flags: W
LayerCount: 2
Fore
SplineSet
161 1466 m 1,0,-1
 337 1466 l 1,1,-1
 337 305 l 1,2,-1
 1117 1466 l 1,3,-1
 1312 1466 l 1,4,-1
 1312 0 l 1,5,-1
 1136 0 l 1,6,-1
 1136 1158 l 1,7,-1
 355 0 l 1,8,-1
 161 0 l 1,9,-1
 161 1466 l 1,0,-1
EndSplineSet
EndChar
StartChar: afii10028
Encoding: 1050 1050 580
Width: 1193
Flags: W
LayerCount: 2
Fore
SplineSet
161 1466 m 1,0,-1
 355 1466 l 1,1,-1
 355 824 l 1,2,3
 488 824 488 824 542 875.5 c 128,-1,4
 596 927 596 927 680 1123 c 0,5,6
 741 1267 741 1267 780.5 1326.5 c 128,-1,7
 820 1386 820 1386 893 1426.5 c 128,-1,8
 966 1467 966 1467 1054 1467 c 0,9,10
 1166 1467 1166 1467 1172 1465 c 1,11,-1
 1172 1297 l 1,12,13
 1162 1297 1162 1297 1133 1298 c 0,14,15
 1101 1299 1101 1299 1094 1299 c 0,16,17
 1001 1299 1001 1299 956 1254 c 0,18,19
 910 1209 910 1209 851 1062 c 0,20,21
 777 876 777 876 726 827.5 c 128,-1,22
 675 779 675 779 604 750 c 1,23,24
 746 711 746 711 884 488 c 2,25,-1
 1186 0 l 1,26,-1
 945 0 l 1,27,-1
 700 398 l 2,28,29
 599 563 599 563 531 624.5 c 128,-1,30
 463 686 463 686 355 686 c 1,31,-1
 355 0 l 1,32,-1
 161 0 l 1,33,-1
 161 1466 l 1,0,-1
EndSplineSet
EndChar
StartChar: afii10029
Encoding: 1051 1051 581
Width: 1344
Flags: W
LayerCount: 2
Fore
SplineSet
265 1466 m 1,0,-1
 1183 1466 l 1,1,-1
 1183 0 l 1,2,-1
 989 0 l 1,3,-1
 989 1293 l 1,4,-1
 459 1293 l 1,5,-1
 459 538 l 2,6,7
 459 308 459 308 437.5 201 c 128,-1,8
 416 94 416 94 347 34.5 c 128,-1,9
 278 -25 278 -25 172 -25 c 0,10,11
 108 -25 108 -25 18 -1 c 1,12,-1
 51 171 l 1,13,14
 99 151 99 151 133 151 c 0,15,16
 199 151 199 151 232 200.5 c 128,-1,17
 265 250 265 250 265 434 c 2,18,-1
 265 1466 l 1,0,-1
EndSplineSet
EndChar
StartChar: afii10033
Encoding: 1055 1055 585
Width: 1472
Flags: W
LayerCount: 2
Fore
SplineSet
160 1466 m 1,0,-1
 1313 1466 l 1,1,-1
 1313 0 l 1,2,-1
 1118 0 l 1,3,-1
 1118 1293 l 1,4,-1
 354 1293 l 1,5,-1
 354 0 l 1,6,-1
 160 0 l 1,7,-1
 160 1466 l 1,0,-1
EndSplineSet
EndChar
StartChar: afii10037
Encoding: 1059 1059 589
Width: 1301
Flags: W
LayerCount: 2
Fore
SplineSet
10 1466 m 1,0,-1
 206 1466 l 1,1,-1
 684 568 l 1,2,-1
 1102 1466 l 1,3,-1
 1295 1466 l 1,4,-1
 745 326 l 2,5,6
 642 112 642 112 576 46 c 128,-1,7
 510 -20 510 -20 387 -20 c 0,8,9
 312 -20 312 -20 203 15 c 1,10,-1
 203 181 l 1,11,12
 281 136 281 136 368 136 c 0,13,14
 439 136 439 136 490.5 181.5 c 128,-1,15
 542 227 542 227 604 389 c 1,16,-1
 10 1466 l 1,0,-1
EndSplineSet
EndChar
StartChar: afii10038
Encoding: 1060 1060 590
Width: 1557
Flags: W
LayerCount: 2
Fore
SplineSet
688 1290 m 1,0,-1
 688 1478 l 1,1,-1
 870 1478 l 1,2,-1
 870 1290 l 1,3,4
 1150 1275 1150 1275 1312 1121.5 c 128,-1,5
 1474 968 1474 968 1474 740 c 0,6,7
 1474 517 1474 517 1317 361 c 128,-1,8
 1160 205 1160 205 870 189 c 1,9,-1
 870 0 l 1,10,-1
 688 0 l 1,11,-1
 688 189 l 1,12,13
 428 199 428 199 255 347.5 c 128,-1,14
 82 496 82 496 82 740 c 0,15,16
 82 985 82 985 254.5 1132 c 128,-1,17
 427 1279 427 1279 688 1290 c 1,0,-1
870 1124 m 1,18,-1
 870 356 l 1,19,20
 1058 365 1058 365 1166 465 c 128,-1,21
 1274 565 1274 565 1274 740 c 0,22,23
 1274 912 1274 912 1168 1012.5 c 128,-1,24
 1062 1113 1062 1113 870 1124 c 1,18,-1
688 1123 m 1,25,26
 507 1115 507 1115 395 1016 c 128,-1,27
 283 917 283 917 283 740 c 0,28,29
 283 565 283 565 393.5 465 c 128,-1,30
 504 365 504 365 688 357 c 1,31,-1
 688 1123 l 1,25,26
EndSplineSet
EndChar
StartChar: afii10040
Encoding: 1062 1062 592
Width: 1515
Flags: W
LayerCount: 2
Fore
SplineSet
159 1466 m 1,0,-1
 353 1466 l 1,1,-1
 353 173 l 1,2,-1
 1117 173 l 1,3,-1
 1117 1466 l 1,4,-1
 1312 1466 l 1,5,-1
 1312 173 l 1,6,-1
 1446 173 l 1,7,-1
 1446 -407 l 1,8,-1
 1274 -407 l 1,9,-1
 1274 0 l 1,10,-1
 159 0 l 1,11,-1
 159 1466 l 1,0,-1
EndSplineSet
EndChar
StartChar: afii10041
Encoding: 1063 1063 593
Width: 1365
Flags: W
LayerCount: 2
Fore
SplineSet
1204 0 m 1,0,-1
 1010 0 l 1,1,-1
 1010 591 l 1,2,3
 749 494 749 494 553 494 c 0,4,5
 400 494 400 494 283 565.5 c 128,-1,6
 166 637 166 637 126.5 747 c 128,-1,7
 87 857 87 857 87 1035 c 2,8,-1
 87 1466 l 1,9,-1
 281 1466 l 1,10,-1
 281 1053 l 2,11,12
 281 813 281 813 368.5 737.5 c 128,-1,13
 456 662 456 662 579 662 c 0,14,15
 784 662 784 662 1010 753 c 1,16,-1
 1010 1466 l 1,17,-1
 1204 1466 l 1,18,-1
 1204 0 l 1,0,-1
EndSplineSet
EndChar
StartChar: afii10042
Encoding: 1064 1064 594
Width: 1877
Flags: W
LayerCount: 2
Fore
SplineSet
161 1466 m 1,0,-1
 355 1466 l 1,1,-1
 355 173 l 1,2,-1
 842 173 l 1,3,-1
 842 1466 l 1,4,-1
 1036 1466 l 1,5,-1
 1036 173 l 1,6,-1
 1523 173 l 1,7,-1
 1523 1466 l 1,8,-1
 1717 1466 l 1,9,-1
 1717 0 l 1,10,-1
 161 0 l 1,11,-1
 161 1466 l 1,0,-1
EndSplineSet
EndChar
StartChar: afii10043
Encoding: 1065 1065 595
Width: 1920
Flags: W
LayerCount: 2
Fore
SplineSet
161 1466 m 1,0,-1
 355 1466 l 1,1,-1
 355 173 l 1,2,-1
 842 173 l 1,3,-1
 842 1466 l 1,4,-1
 1036 1466 l 1,5,-1
 1036 173 l 1,6,-1
 1523 173 l 1,7,-1
 1523 1466 l 1,8,-1
 1717 1466 l 1,9,-1
 1717 173 l 1,10,-1
 1850 173 l 1,11,-1
 1850 -407 l 1,12,-1
 1677 -407 l 1,13,-1
 1677 0 l 1,14,-1
 161 0 l 1,15,-1
 161 1466 l 1,0,-1
EndSplineSet
EndChar
StartChar: afii10044
Encoding: 1066 1066 596
Width: 1621
Flags: W
LayerCount: 2
Fore
SplineSet
0 1466 m 1,0,-1
 640 1466 l 1,1,-1
 640 840 l 1,2,-1
 991 840 l 2,3,4
 1336 840 1336 840 1443.5 712 c 128,-1,5
 1551 584 1551 584 1551 424 c 0,6,7
 1551 240 1551 240 1426.5 120 c 128,-1,8
 1302 0 1302 0 1003 0 c 2,9,-1
 446 0 l 1,10,-1
 446 1293 l 1,11,-1
 0 1293 l 1,12,-1
 0 1466 l 1,0,-1
640 165 m 1,13,-1
 995 165 l 2,14,15
 1178 165 1178 165 1260 226.5 c 128,-1,16
 1342 288 1342 288 1342 422 c 0,17,18
 1342 513 1342 513 1293.5 575.5 c 128,-1,19
 1245 638 1245 638 1165 655.5 c 128,-1,20
 1085 673 1085 673 899 673 c 2,21,-1
 640 673 l 1,22,-1
 640 165 l 1,13,-1
EndSplineSet
EndChar
StartChar: afii10045
Encoding: 1067 1067 597
Width: 1813
Flags: W
LayerCount: 2
Fore
SplineSet
168 1466 m 1,0,-1
 362 1466 l 1,1,-1
 362 840 l 1,2,-1
 712 840 l 2,3,4
 1056 840 1056 840 1164.5 713 c 128,-1,5
 1273 586 1273 586 1273 425 c 0,6,7
 1273 255 1273 255 1157 127.5 c 128,-1,8
 1041 0 1041 0 726 0 c 2,9,-1
 168 0 l 1,10,-1
 168 1466 l 1,0,-1
362 165 m 1,11,-1
 717 165 l 2,12,13
 900 165 900 165 982.5 226.5 c 128,-1,14
 1065 288 1065 288 1065 423 c 0,15,16
 1065 515 1065 515 1015 577 c 128,-1,17
 965 639 965 639 886 656 c 128,-1,18
 807 673 807 673 622 673 c 2,19,-1
 362 673 l 1,20,-1
 362 165 l 1,11,-1
1449 1466 m 1,21,-1
 1643 1466 l 1,22,-1
 1643 0 l 1,23,-1
 1449 0 l 1,24,-1
 1449 1466 l 1,21,-1
EndSplineSet
EndChar
StartChar: afii10046
Encoding: 1068 1068 598
Width: 1344
Flags: W
LayerCount: 2
Fore
SplineSet
165 1466 m 1,0,-1
 359 1466 l 1,1,-1
 359 840 l 1,2,-1
 709 840 l 2,3,4
 954 840 954 840 1064 783 c 128,-1,5
 1174 726 1174 726 1222 628 c 128,-1,6
 1270 530 1270 530 1270 426 c 0,7,8
 1270 256 1270 256 1154 128 c 128,-1,9
 1038 0 1038 0 722 0 c 2,10,-1
 165 0 l 1,11,-1
 165 1466 l 1,0,-1
359 165 m 1,12,-1
 714 165 l 2,13,14
 930 165 930 165 995.5 241.5 c 128,-1,15
 1061 318 1061 318 1061 426 c 0,16,17
 1061 514 1061 514 1013.5 575.5 c 128,-1,18
 966 637 966 637 887 655 c 128,-1,19
 808 673 808 673 619 673 c 2,20,-1
 359 673 l 1,21,-1
 359 165 l 1,12,-1
EndSplineSet
EndChar
StartChar: afii10048
Encoding: 1070 1070 600
Width: 2069
Flags: W
LayerCount: 2
Fore
SplineSet
164 1466 m 1,0,-1
 358 1466 l 1,1,-1
 358 808 l 1,2,-1
 640 808 l 1,3,4
 661 1120 661 1120 845 1305.5 c 128,-1,5
 1029 1491 1029 1491 1301 1491 c 0,6,7
 1588 1491 1588 1491 1776.5 1289 c 128,-1,8
 1965 1087 1965 1087 1965 741 c 0,9,10
 1965 381 1965 381 1777 178 c 128,-1,11
 1589 -25 1589 -25 1296 -25 c 0,12,13
 1030 -25 1030 -25 852.5 150.5 c 128,-1,14
 675 326 675 326 644 636 c 1,15,-1
 358 636 l 1,16,-1
 358 0 l 1,17,-1
 164 0 l 1,18,-1
 164 1466 l 1,0,-1
835 726 m 0,19,20
 835 448 835 448 963 294.5 c 128,-1,21
 1091 141 1091 141 1299 141 c 0,22,23
 1512 141 1512 141 1639 295 c 128,-1,24
 1766 449 1766 449 1766 738 c 0,25,26
 1766 1012 1766 1012 1641 1169.5 c 128,-1,27
 1516 1327 1516 1327 1303 1327 c 0,28,29
 1086 1327 1086 1327 960.5 1167.5 c 128,-1,30
 835 1008 835 1008 835 726 c 0,19,20
EndSplineSet
EndChar
StartChar: afii10066
Encoding: 1073 1073 603
Width: 1173
Flags: W
LayerCount: 2
Fore
SplineSet
913 1501 m 1,0,-1
 1072 1499 l 1,1,2
 1061 1392 1061 1392 1024.5 1350 c 128,-1,3
 988 1308 988 1308 930.5 1296 c 128,-1,4
 873 1284 873 1284 705 1284 c 0,5,6
 482 1284 482 1284 401 1241 c 128,-1,7
 320 1198 320 1198 284.5 1103.5 c 128,-1,8
 249 1009 249 1009 245 860 c 1,9,10
 313 961 313 961 404 1011.5 c 128,-1,11
 495 1062 495 1062 609 1062 c 0,12,13
 818 1062 818 1062 955 918.5 c 128,-1,14
 1092 775 1092 775 1092 530 c 0,15,16
 1092 344 1092 344 1023 225 c 128,-1,17
 954 106 954 106 859.5 41 c 128,-1,18
 765 -24 765 -24 602 -24 c 0,19,20
 413 -24 413 -24 308 62.5 c 128,-1,21
 203 149 203 149 147 284 c 128,-1,22
 91 419 91 419 91 754 c 0,23,24
 91 1175 91 1175 233.5 1321 c 128,-1,25
 376 1467 376 1467 672 1467 c 0,26,27
 856 1467 856 1467 881 1473 c 128,-1,28
 906 1479 906 1479 913 1501 c 1,0,-1
904 535 m 0,29,30
 904 701 904 701 825.5 807 c 128,-1,31
 747 913 747 913 604 913 c 0,32,33
 455 913 455 913 374 801 c 128,-1,34
 293 689 293 689 293 502 c 0,35,36
 293 317 293 317 382.5 219 c 128,-1,37
 472 121 472 121 603 121 c 0,38,39
 737 121 737 121 820.5 234.5 c 128,-1,40
 904 348 904 348 904 535 c 0,29,30
EndSplineSet
EndChar
StartChar: afii10067
Encoding: 1074 1074 604
Width: 1088
Flags: W
LayerCount: 2
Fore
SplineSet
136 1062 m 1,0,-1
 551 1062 l 2,1,2
 704 1062 704 1062 778.5 1036.5 c 128,-1,3
 853 1011 853 1011 906.5 943 c 128,-1,4
 960 875 960 875 960 780 c 0,5,6
 960 704 960 704 928.5 647.5 c 128,-1,7
 897 591 897 591 834 553 c 1,8,9
 909 528 909 528 958.5 459.5 c 128,-1,10
 1008 391 1008 391 1008 297 c 1,11,12
 998 146 998 146 900 73 c 128,-1,13
 802 0 802 0 615 0 c 2,14,-1
 136 0 l 1,15,-1
 136 1062 l 1,0,-1
316 615 m 1,16,-1
 508 615 l 2,17,18
 623 615 623 615 666 627 c 128,-1,19
 709 639 709 639 743 675.5 c 128,-1,20
 777 712 777 712 777 763 c 0,21,22
 777 847 777 847 717.5 880 c 128,-1,23
 658 913 658 913 514 913 c 2,24,-1
 316 913 l 1,25,-1
 316 615 l 1,16,-1
316 148 m 1,26,-1
 553 148 l 2,27,28
 706 148 706 148 763 183.5 c 128,-1,29
 820 219 820 219 823 306 c 0,30,31
 823 357 823 357 790 400.5 c 128,-1,32
 757 444 757 444 704 455.5 c 128,-1,33
 651 467 651 467 534 467 c 2,34,-1
 316 467 l 1,35,-1
 316 148 l 1,26,-1
EndSplineSet
EndChar
StartChar: afii10068
Encoding: 1075 1075 605
Width: 747
Flags: W
LayerCount: 2
Fore
SplineSet
136 1062 m 1,0,-1
 747 1062 l 1,1,-1
 747 913 l 1,2,-1
 316 913 l 1,3,-1
 316 0 l 1,4,-1
 136 0 l 1,5,-1
 136 1062 l 1,0,-1
EndSplineSet
EndChar
StartChar: afii10069
Encoding: 1076 1076 606
Width: 1195
Flags: W
LayerCount: 2
Fore
SplineSet
277 1062 m 1,0,-1
 1017 1062 l 1,1,-1
 1017 148 l 1,2,-1
 1132 148 l 1,3,-1
 1132 -301 l 1,4,-1
 984 -301 l 1,5,-1
 984 0 l 1,6,-1
 148 0 l 1,7,-1
 148 -301 l 1,8,-1
 0 -301 l 1,9,-1
 0 148 l 1,10,-1
 95 148 l 1,11,12
 285 406 285 406 277 1062 c 1,0,-1
427 913 m 1,13,14
 407 396 407 396 267 148 c 1,15,-1
 838 148 l 1,16,-1
 838 913 l 1,17,-1
 427 913 l 1,13,14
EndSplineSet
EndChar
StartChar: afii10072
Encoding: 1078 1078 608
Width: 1370
Flags: W
LayerCount: 2
Fore
SplineSet
777 1062 m 1,0,-1
 777 603 l 1,1,2
 863 603 863 603 898 636 c 128,-1,3
 933 669 933 669 1000 828 c 0,4,5
 1063 979 1063 979 1113 1021 c 0,6,7
 1162 1062 1162 1062 1269 1062 c 2,8,-1
 1335 1062 l 1,9,-1
 1335 913 l 1,10,-1
 1286 914 l 2,11,12
 1214 914 1214 914 1194 893 c 0,13,14
 1173 871 1173 871 1130 762 c 0,15,16
 1090 658 1090 658 1056 618 c 128,-1,17
 1022 578 1022 578 950 545 c 1,18,19
 1067 514 1067 514 1178 329 c 2,20,-1
 1376 0 l 1,21,-1
 1178 0 l 1,22,-1
 985 329 l 2,23,24
 926 429 926 429 882 460 c 128,-1,25
 838 491 838 491 777 491 c 1,26,-1
 777 0 l 1,27,-1
 593 0 l 1,28,-1
 593 491 l 1,29,30
 533 491 533 491 489 460.5 c 128,-1,31
 445 430 445 430 386 329 c 2,32,-1
 193 0 l 1,33,-1
 -5 0 l 1,34,-1
 192 329 l 2,35,36
 304 514 304 514 421 545 c 1,37,38
 341 582 341 582 309 625.5 c 128,-1,39
 277 669 277 669 213 833 c 0,40,41
 191 888 191 888 166 901 c 0,42,43
 140 914 140 914 89 914 c 0,44,45
 76 914 76 914 36 913 c 1,46,-1
 36 1062 l 1,47,-1
 61 1062 l 2,48,49
 165 1062 165 1062 207.5 1049.5 c 128,-1,50
 250 1037 250 1037 283.5 996.5 c 128,-1,51
 317 956 317 956 371 828 c 0,52,53
 437 671 437 671 471.5 637 c 128,-1,54
 506 603 506 603 593 603 c 1,55,-1
 593 1062 l 1,56,-1
 777 1062 l 1,0,-1
EndSplineSet
EndChar
StartChar: afii10073
Encoding: 1079 1079 609
Width: 939
Flags: W
LayerCount: 2
Fore
SplineSet
370 480 m 1,0,-1
 370 621 l 1,1,2
 484 622 484 622 525.5 630 c 128,-1,3
 567 638 567 638 604 678 c 128,-1,4
 641 718 641 718 641 778 c 0,5,6
 641 851 641 851 592.5 894.5 c 128,-1,7
 544 938 544 938 467 938 c 0,8,9
 315 938 315 938 254 759 c 1,10,-1
 83 787 l 1,11,12
 163 1086 163 1086 469 1086 c 0,13,14
 639 1086 639 1086 735.5 993 c 128,-1,15
 832 900 832 900 832 771 c 0,16,17
 832 641 832 641 706 564 c 1,18,19
 786 521 786 521 826 454.5 c 128,-1,20
 866 388 866 388 866 297 c 0,21,22
 866 154 866 154 762 65 c 128,-1,23
 658 -24 658 -24 471 -24 c 0,24,25
 108 -24 108 -24 50 299 c 1,26,-1
 219 335 l 1,27,28
 242 233 242 233 312.5 177 c 128,-1,29
 383 121 383 121 474 121 c 256,30,31
 565 121 565 121 625.5 172.5 c 128,-1,32
 686 224 686 224 686 304 c 0,33,34
 686 366 686 366 648 412 c 128,-1,35
 610 458 610 458 567 469.5 c 128,-1,36
 524 481 524 481 411 481 c 0,37,38
 402 481 402 481 370 480 c 1,0,-1
EndSplineSet
EndChar
StartChar: afii10074
Encoding: 1080 1080 610
Width: 1144
Flags: W
LayerCount: 2
Fore
SplineSet
135 1062 m 1,0,-1
 315 1062 l 1,1,-1
 315 252 l 1,2,-1
 814 1062 l 1,3,-1
 1008 1062 l 1,4,-1
 1008 0 l 1,5,-1
 828 0 l 1,6,-1
 828 805 l 1,7,-1
 329 0 l 1,8,-1
 135 0 l 1,9,-1
 135 1062 l 1,0,-1
EndSplineSet
EndChar
StartChar: afii10076
Encoding: 1082 1082 612
Width: 896
Flags: W
LayerCount: 2
Fore
SplineSet
134 1062 m 1,0,-1
 314 1062 l 1,1,-1
 314 603 l 1,2,3
 400 603 400 603 434.5 636 c 128,-1,4
 469 669 469 669 536 828 c 0,5,6
 589 954 589 954 622 994 c 128,-1,7
 655 1034 655 1034 698 1048 c 128,-1,8
 741 1062 741 1062 836 1062 c 2,9,-1
 872 1062 l 1,10,-1
 872 913 l 1,11,-1
 822 914 l 2,12,13
 751 914 751 914 731 893 c 0,14,15
 710 871 710 871 667 762 c 0,16,17
 626 658 626 658 592 618 c 128,-1,18
 558 578 558 578 487 545 c 1,19,20
 603 514 603 514 715 329 c 2,21,-1
 912 0 l 1,22,-1
 714 0 l 1,23,-1
 522 329 l 2,24,25
 463 428 463 428 419 459.5 c 128,-1,26
 375 491 375 491 314 491 c 1,27,-1
 314 0 l 1,28,-1
 134 0 l 1,29,-1
 134 1062 l 1,0,-1
EndSplineSet
EndChar
StartChar: afii10077
Encoding: 1083 1083 613
Width: 1195
Flags: W
LayerCount: 2
Fore
SplineSet
223 1062 m 1,0,-1
 1059 1062 l 1,1,-1
 1059 0 l 1,2,-1
 880 0 l 1,3,-1
 880 913 l 1,4,-1
 403 913 l 1,5,-1
 403 384 l 2,6,7
 403 199 403 199 391 140 c 128,-1,8
 379 81 379 81 325 37 c 128,-1,9
 271 -7 271 -7 169 -7 c 0,10,11
 106 -7 106 -7 24 1 c 1,12,-1
 24 151 l 1,13,-1
 103 151 l 2,14,15
 159 151 159 151 183 162.5 c 128,-1,16
 207 174 207 174 215 199 c 128,-1,17
 223 224 223 224 223 362 c 2,18,-1
 223 1062 l 1,0,-1
EndSplineSet
EndChar
StartChar: afii10078
Encoding: 1084 1084 614
Width: 1408
Flags: W
LayerCount: 2
Fore
SplineSet
140 1062 m 1,0,-1
 420 1062 l 1,1,-1
 699 212 l 1,2,-1
 1009 1062 l 1,3,-1
 1268 1062 l 1,4,-1
 1268 0 l 1,5,-1
 1088 0 l 1,6,-1
 1088 855 l 1,7,-1
 774 0 l 1,8,-1
 613 0 l 1,9,-1
 316 896 l 1,10,-1
 316 0 l 1,11,-1
 140 0 l 1,12,-1
 140 1062 l 1,0,-1
EndSplineSet
EndChar
StartChar: afii10079
Encoding: 1085 1085 615
Width: 1131
Flags: W
LayerCount: 2
Fore
SplineSet
136 1062 m 1,0,-1
 316 1062 l 1,1,-1
 316 620 l 1,2,-1
 815 620 l 1,3,-1
 815 1062 l 1,4,-1
 995 1062 l 1,5,-1
 995 0 l 1,6,-1
 815 0 l 1,7,-1
 815 471 l 1,8,-1
 316 471 l 1,9,-1
 316 0 l 1,10,-1
 136 0 l 1,11,-1
 136 1062 l 1,0,-1
EndSplineSet
EndChar
StartChar: afii10081
Encoding: 1087 1087 617
Width: 1109
Flags: W
LayerCount: 2
Fore
SplineSet
136 1062 m 1,0,-1
 974 1062 l 1,1,-1
 974 0 l 1,2,-1
 794 0 l 1,3,-1
 794 913 l 1,4,-1
 316 913 l 1,5,-1
 316 0 l 1,6,-1
 136 0 l 1,7,-1
 136 1062 l 1,0,-1
EndSplineSet
EndChar
StartChar: afii10084
Encoding: 1090 1090 620
Width: 938
Flags: W
LayerCount: 2
Fore
SplineSet
38 1062 m 1,0,-1
 901 1062 l 1,1,-1
 901 913 l 1,2,-1
 559 913 l 1,3,-1
 559 0 l 1,4,-1
 380 0 l 1,5,-1
 380 913 l 1,6,-1
 38 913 l 1,7,-1
 38 1062 l 1,0,-1
EndSplineSet
EndChar
StartChar: afii10086
Encoding: 1092 1092 622
Width: 1685
Flags: W
LayerCount: 2
Fore
SplineSet
753 1466 m 1,0,-1
 933 1466 l 1,1,-1
 933 959 l 1,2,3
 989 1023 989 1023 1056 1054.5 c 128,-1,4
 1123 1086 1123 1086 1200 1086 c 0,5,6
 1389 1086 1389 1086 1499.5 928.5 c 128,-1,7
 1610 771 1610 771 1610 532 c 0,8,9
 1610 283 1610 283 1491 129.5 c 128,-1,10
 1372 -24 1372 -24 1195 -24 c 0,11,12
 1137 -24 1137 -24 1077 -6 c 128,-1,13
 1017 12 1017 12 933 92 c 1,14,-1
 933 -407 l 1,15,-1
 753 -407 l 1,16,-1
 753 92 l 1,17,18
 699 34 699 34 633.5 5 c 128,-1,19
 568 -24 568 -24 492 -24 c 0,20,21
 325 -24 325 -24 200 122.5 c 128,-1,22
 75 269 75 269 75 542 c 0,23,24
 75 773 75 773 188 929.5 c 128,-1,25
 301 1086 301 1086 492 1086 c 0,26,27
 572 1086 572 1086 637 1054.5 c 128,-1,28
 702 1023 702 1023 753 959 c 1,29,-1
 753 1466 l 1,0,-1
932 527 m 0,30,31
 932 287 932 287 998 204.5 c 128,-1,32
 1064 122 1064 122 1163 122 c 0,33,34
 1273 122 1273 122 1350.5 223.5 c 128,-1,35
 1428 325 1428 325 1428 539 c 0,36,37
 1428 741 1428 741 1356.5 840 c 128,-1,38
 1285 939 1285 939 1173 939 c 0,39,40
 1053 939 1053 939 992.5 836 c 128,-1,41
 932 733 932 733 932 527 c 0,30,31
258 547 m 0,42,43
 258 322 258 322 333.5 223 c 128,-1,44
 409 124 409 124 521 124 c 0,45,46
 638 124 638 124 696 222.5 c 128,-1,47
 754 321 754 321 754 518 c 0,48,49
 754 728 754 728 693 833 c 128,-1,50
 632 938 632 938 509 938 c 0,51,52
 398 938 398 938 328 835.5 c 128,-1,53
 258 733 258 733 258 547 c 0,42,43
EndSplineSet
EndChar
StartChar: afii10088
Encoding: 1094 1094 624
Width: 1173
Flags: W
LayerCount: 2
Fore
SplineSet
138 1062 m 1,0,-1
 318 1062 l 1,1,-1
 318 148 l 1,2,-1
 816 148 l 1,3,-1
 816 1062 l 1,4,-1
 996 1062 l 1,5,-1
 996 148 l 1,6,-1
 1112 148 l 1,7,-1
 1112 -301 l 1,8,-1
 964 -301 l 1,9,-1
 964 0 l 1,10,-1
 138 0 l 1,11,-1
 138 1062 l 1,0,-1
EndSplineSet
EndChar
StartChar: afii10089
Encoding: 1095 1095 625
Width: 1067
Flags: W
LayerCount: 2
Fore
SplineSet
69 1062 m 1,0,-1
 249 1062 l 1,1,-1
 249 861 l 2,2,3
 249 731 249 731 264.5 672.5 c 128,-1,4
 280 614 280 614 339 570.5 c 128,-1,5
 398 527 398 527 487 527 c 0,6,7
 589 527 589 527 751 581 c 1,8,-1
 751 1062 l 1,9,-1
 931 1062 l 1,10,-1
 931 0 l 1,11,-1
 751 0 l 1,12,-1
 751 428 l 1,13,14
 585 376 585 376 441 376 c 0,15,16
 320 376 320 376 227.5 437.5 c 128,-1,17
 135 499 135 499 102 588 c 128,-1,18
 69 677 69 677 69 784 c 2,19,-1
 69 1062 l 1,0,-1
EndSplineSet
EndChar
StartChar: afii10090
Encoding: 1096 1096 626
Width: 1643
Flags: W
LayerCount: 2
Fore
SplineSet
141 1062 m 1,0,-1
 321 1062 l 1,1,-1
 321 149 l 1,2,-1
 731 149 l 1,3,-1
 731 1062 l 1,4,-1
 911 1062 l 1,5,-1
 911 149 l 1,6,-1
 1322 149 l 1,7,-1
 1322 1062 l 1,8,-1
 1501 1062 l 1,9,-1
 1501 0 l 1,10,-1
 141 0 l 1,11,-1
 141 1062 l 1,0,-1
EndSplineSet
EndChar
StartChar: afii10091
Encoding: 1097 1097 627
Width: 1685
Flags: W
LayerCount: 2
Fore
SplineSet
141 1062 m 1,0,-1
 321 1062 l 1,1,-1
 321 148 l 1,2,-1
 731 148 l 1,3,-1
 731 1062 l 1,4,-1
 911 1062 l 1,5,-1
 911 148 l 1,6,-1
 1322 148 l 1,7,-1
 1322 1062 l 1,8,-1
 1501 1062 l 1,9,-1
 1501 148 l 1,10,-1
 1620 148 l 1,11,-1
 1620 -301 l 1,12,-1
 1471 -301 l 1,13,-1
 1471 0 l 1,14,-1
 141 0 l 1,15,-1
 141 1062 l 1,0,-1
EndSplineSet
EndChar
StartChar: afii10092
Encoding: 1098 1098 628
Width: 1280
Flags: W
LayerCount: 2
Fore
SplineSet
40 1062 m 1,0,-1
 515 1062 l 1,1,-1
 515 647 l 1,2,-1
 744 647 l 2,3,4
 987 647 987 647 1097 552.5 c 128,-1,5
 1207 458 1207 458 1207 321 c 0,6,7
 1207 179 1207 179 1100.5 89.5 c 128,-1,8
 994 0 994 0 786 0 c 2,9,-1
 335 0 l 1,10,-1
 335 913 l 1,11,-1
 40 913 l 1,12,-1
 40 1062 l 1,0,-1
515 146 m 1,13,-1
 704 146 l 2,14,15
 876 146 876 146 948 187.5 c 128,-1,16
 1020 229 1020 229 1020 321 c 0,17,18
 1020 405 1020 405 958.5 451 c 128,-1,19
 897 497 897 497 728 497 c 2,20,-1
 515 497 l 1,21,-1
 515 146 l 1,13,-1
EndSplineSet
EndChar
StartChar: afii10093
Encoding: 1099 1099 629
Width: 1472
Flags: W
LayerCount: 2
Fore
SplineSet
1146 1062 m 1,0,-1
 1326 1062 l 1,1,-1
 1326 0 l 1,2,-1
 1146 0 l 1,3,-1
 1146 1062 l 1,0,-1
139 1062 m 1,4,-1
 319 1062 l 1,5,-1
 319 647 l 1,6,-1
 547 647 l 2,7,8
 770 647 770 647 890.5 560.5 c 128,-1,9
 1011 474 1011 474 1011 322 c 0,10,11
 1011 189 1011 189 910.5 94.5 c 128,-1,12
 810 0 810 0 589 0 c 2,13,-1
 139 0 l 1,14,-1
 139 1062 l 1,4,-1
319 148 m 1,15,-1
 508 148 l 2,16,17
 679 148 679 148 752 190 c 128,-1,18
 825 232 825 232 825 321 c 0,19,20
 825 390 825 390 771 444 c 128,-1,21
 717 498 717 498 532 498 c 2,22,-1
 319 498 l 1,23,-1
 319 148 l 1,15,-1
EndSplineSet
EndChar
StartChar: afii10094
Encoding: 1100 1100 630
Width: 1067
Flags: W
LayerCount: 2
Fore
SplineSet
132 1062 m 1,0,-1
 312 1062 l 1,1,-1
 312 647 l 1,2,-1
 540 647 l 2,3,4
 763 647 763 647 883.5 560.5 c 128,-1,5
 1004 474 1004 474 1004 322 c 0,6,7
 1004 189 1004 189 903.5 94.5 c 128,-1,8
 803 0 803 0 582 0 c 2,9,-1
 132 0 l 1,10,-1
 132 1062 l 1,0,-1
312 148 m 1,11,-1
 501 148 l 2,12,13
 672 148 672 148 745 190 c 128,-1,14
 818 232 818 232 818 321 c 0,15,16
 818 390 818 390 764 444 c 128,-1,17
 710 498 710 498 525 498 c 2,18,-1
 312 498 l 1,19,-1
 312 148 l 1,11,-1
EndSplineSet
EndChar
StartChar: afii10096
Encoding: 1102 1102 632
Width: 1536
Flags: W
LayerCount: 2
Fore
SplineSet
137 1062 m 1,0,-1
 317 1062 l 1,1,-1
 317 618 l 1,2,-1
 535 618 l 1,3,4
 559 846 559 846 677.5 966 c 128,-1,5
 796 1086 796 1086 985 1086 c 0,6,7
 1146 1086 1146 1086 1239 1021 c 128,-1,8
 1332 956 1332 956 1392.5 842 c 128,-1,9
 1453 728 1453 728 1453 535 c 0,10,11
 1453 260 1453 260 1328 118 c 128,-1,12
 1203 -24 1203 -24 989 -24 c 0,13,14
 790 -24 790 -24 670 108 c 128,-1,15
 550 240 550 240 535 470 c 1,16,-1
 317 470 l 1,17,-1
 317 0 l 1,18,-1
 137 0 l 1,19,-1
 137 1062 l 1,0,-1
995 933 m 0,20,21
 863 933 863 933 789.5 831.5 c 128,-1,22
 716 730 716 730 716 547 c 0,23,24
 716 328 716 328 790 226 c 128,-1,25
 864 124 864 124 988 124 c 0,26,27
 1111 124 1111 124 1189.5 218.5 c 128,-1,28
 1268 313 1268 313 1268 523 c 0,29,30
 1268 728 1268 728 1200 830.5 c 128,-1,31
 1132 933 1132 933 995 933 c 0,20,21
EndSplineSet
EndChar
StartChar: afii10097
Encoding: 1103 1103 633
Width: 1109
Flags: W
LayerCount: 2
Fore
SplineSet
971 1062 m 1,0,-1
 971 0 l 1,1,-1
 792 0 l 1,2,-1
 792 414 l 1,3,-1
 688 414 l 2,4,5
 593 414 593 414 546.5 389.5 c 128,-1,6
 500 365 500 365 411 232 c 2,7,-1
 254 0 l 1,8,-1
 31 0 l 1,9,-1
 225 286 l 2,10,11
 314 417 314 417 402 434 c 1,12,13
 248 455 248 455 173.5 545 c 128,-1,14
 99 635 99 635 99 752 c 0,15,16
 99 890 99 890 196.5 976 c 128,-1,17
 294 1062 294 1062 479 1062 c 2,18,-1
 971 1062 l 1,0,-1
792 913 m 1,19,-1
 536 913 l 2,20,21
 375 913 375 913 328.5 863 c 128,-1,22
 282 813 282 813 282 746 c 0,23,24
 282 651 282 651 350.5 606.5 c 128,-1,25
 419 562 419 562 593 562 c 2,26,-1
 792 562 l 1,27,-1
 792 913 l 1,19,-1
EndSplineSet
EndChar
StartChar: afii10099
Encoding: 1106 1106 635
Width: 1139
Flags: W
LayerCount: 2
Fore
SplineSet
135 1217 m 1,0,-1
 1 1217 l 1,1,-1
 0 1336 l 1,2,-1
 135 1336 l 1,3,-1
 135 1466 l 1,4,-1
 314 1466 l 1,5,-1
 314 1336 l 1,6,-1
 657 1336 l 1,7,-1
 657 1217 l 1,8,-1
 314 1217 l 1,9,-1
 314 939 l 1,10,11
 375 1013 375 1013 455.5 1049.5 c 128,-1,12
 536 1086 536 1086 635 1086 c 0,13,14
 810 1086 810 1086 905 994 c 128,-1,15
 1000 902 1000 902 1000 673 c 2,16,-1
 1000 -58 l 2,17,18
 1000 -296 1000 -296 924 -363.5 c 128,-1,19
 848 -431 848 -431 734 -431 c 0,20,21
 655 -431 655 -431 592 -412 c 1,22,-1
 626 -259 l 1,23,24
 678 -273 678 -273 710 -273 c 0,25,26
 757 -273 757 -273 788.5 -241.5 c 128,-1,27
 820 -210 820 -210 820 -54 c 2,28,-1
 820 673 l 2,29,30
 820 802 820 802 763.5 866.5 c 128,-1,31
 707 931 707 931 594 931 c 0,32,33
 495 931 495 931 404.5 862 c 128,-1,34
 314 793 314 793 314 581 c 2,35,-1
 314 0 l 1,36,-1
 135 0 l 1,37,-1
 135 1217 l 1,0,-1
EndSplineSet
EndChar
StartChar: afii10101
Encoding: 1108 1108 637
Width: 1045
Flags: W
LayerCount: 2
Fore
SplineSet
641 618 m 1,0,-1
 641 470 l 1,1,-1
 266 470 l 1,2,3
 283 297 283 297 355.5 210.5 c 128,-1,4
 428 124 428 124 557 124 c 0,5,6
 785 124 785 124 826 388 c 1,7,-1
 1002 365 l 1,8,9
 974 190 974 190 856.5 83 c 128,-1,10
 739 -24 739 -24 549 -24 c 1,11,12
 323 -37 323 -37 199 119.5 c 128,-1,13
 75 276 75 276 81 531 c 1,14,15
 81 790 81 790 210 938 c 128,-1,16
 339 1086 339 1086 562 1086 c 0,17,18
 740 1086 740 1086 850 991.5 c 128,-1,19
 960 897 960 897 984 748 c 1,20,-1
 809 720 l 1,21,22
 765 937 765 937 556 937 c 0,23,24
 436 937 436 937 359.5 848.5 c 128,-1,25
 283 760 283 760 266 618 c 1,26,-1
 641 618 l 1,0,-1
EndSplineSet
EndChar
StartChar: afii10106
Encoding: 1113 1113 642
Width: 1856
Flags: W
LayerCount: 2
Fore
SplineSet
1092 1062 m 1,0,-1
 1092 647 l 1,1,-1
 1321 647 l 2,2,3
 1541 647 1541 647 1662.5 561 c 128,-1,4
 1784 475 1784 475 1784 322 c 0,5,6
 1784 194 1784 194 1686 97 c 128,-1,7
 1588 0 1588 0 1362 0 c 2,8,-1
 912 0 l 1,9,-1
 912 913 l 1,10,-1
 413 913 l 1,11,-1
 413 384 l 2,12,13
 413 209 413 209 393.5 137 c 128,-1,14
 374 65 374 65 318.5 29.5 c 128,-1,15
 263 -6 263 -6 159 -6 c 0,16,17
 130 -6 130 -6 19 0 c 1,18,-1
 19 147 l 1,19,20
 90 137 90 137 130 137 c 0,21,22
 193 137 193 137 213 176 c 128,-1,23
 233 215 233 215 233 362 c 2,24,-1
 233 1062 l 1,25,-1
 1092 1062 l 1,0,-1
1092 148 m 1,26,-1
 1281 148 l 2,27,28
 1453 148 1453 148 1526 189.5 c 128,-1,29
 1599 231 1599 231 1599 321 c 0,30,31
 1599 391 1599 391 1545.5 444.5 c 128,-1,32
 1492 498 1492 498 1306 498 c 2,33,-1
 1092 498 l 1,34,-1
 1092 148 l 1,26,-1
EndSplineSet
EndChar
StartChar: afii10107
Encoding: 1114 1114 643
Width: 1664
Flags: W
LayerCount: 2
Fore
SplineSet
901 620 m 1,0,-1
 1130 620 l 2,1,2
 1352 620 1352 620 1472.5 537 c 128,-1,3
 1593 454 1593 454 1593 309 c 0,4,5
 1593 180 1593 180 1492 90 c 128,-1,6
 1391 0 1391 0 1171 0 c 2,7,-1
 721 0 l 1,8,-1
 721 471 l 1,9,-1
 311 471 l 1,10,-1
 311 0 l 1,11,-1
 131 0 l 1,12,-1
 131 1062 l 1,13,-1
 311 1062 l 1,14,-1
 311 620 l 1,15,-1
 721 620 l 1,16,-1
 721 1062 l 1,17,-1
 901 1062 l 1,18,-1
 901 620 l 1,0,-1
901 141 m 1,19,-1
 1090 141 l 2,20,21
 1263 141 1263 141 1335 180.5 c 128,-1,22
 1407 220 1407 220 1407 304 c 0,23,24
 1407 370 1407 370 1353.5 420.5 c 128,-1,25
 1300 471 1300 471 1114 471 c 2,26,-1
 901 471 l 1,27,-1
 901 141 l 1,19,-1
EndSplineSet
EndChar
StartChar: afii10108
Encoding: 1115 1115 644
Width: 1139
Flags: W
LayerCount: 2
Fore
SplineSet
135 1336 m 1,0,-1
 135 1466 l 1,1,-1
 314 1466 l 1,2,-1
 314 1336 l 1,3,-1
 657 1336 l 1,4,-1
 657 1217 l 1,5,-1
 314 1217 l 1,6,-1
 314 939 l 1,7,8
 375 1013 375 1013 455.5 1049.5 c 128,-1,9
 536 1086 536 1086 635 1086 c 0,10,11
 810 1086 810 1086 905 994 c 128,-1,12
 1000 902 1000 902 1000 673 c 2,13,-1
 1000 0 l 1,14,-1
 820 0 l 1,15,-1
 820 673 l 2,16,17
 820 802 820 802 763.5 866.5 c 128,-1,18
 707 931 707 931 594 931 c 0,19,20
 495 931 495 931 404.5 862 c 128,-1,21
 314 793 314 793 314 581 c 2,22,-1
 314 0 l 1,23,-1
 135 0 l 1,24,-1
 135 1217 l 1,25,-1
 1 1217 l 1,26,-1
 0 1336 l 1,27,-1
 135 1336 l 1,0,-1
EndSplineSet
EndChar
StartChar: afii10193
Encoding: 1119 1119 647
Width: 1131
Flags: W
LayerCount: 2
Fore
SplineSet
640 0 m 1,0,-1
 640 -302 l 1,1,-1
 491 -302 l 1,2,-1
 491 0 l 1,3,-1
 136 0 l 1,4,-1
 136 1062 l 1,5,-1
 316 1062 l 1,6,-1
 316 148 l 1,7,-1
 815 148 l 1,8,-1
 815 1062 l 1,9,-1
 995 1062 l 1,10,-1
 995 0 l 1,11,-1
 640 0 l 1,0,-1
EndSplineSet
EndChar
StartChar: afii10050
Encoding: 1168 1168 648
Width: 1001
Flags: W
LayerCount: 2
Fore
SplineSet
767 1466 m 1,0,-1
 767 1872 l 1,1,-1
 940 1872 l 1,2,-1
 940 1293 l 1,3,-1
 355 1293 l 1,4,-1
 355 0 l 1,5,-1
 161 0 l 1,6,-1
 161 1466 l 1,7,-1
 767 1466 l 1,0,-1
EndSplineSet
EndChar
StartChar: afii10098
Encoding: 1169 1169 649
Width: 842
Flags: W
LayerCount: 2
Fore
SplineSet
631 1062 m 1,0,-1
 631 1468 l 1,1,-1
 780 1468 l 1,2,-1
 780 913 l 1,3,-1
 316 913 l 1,4,-1
 316 0 l 1,5,-1
 136 0 l 1,6,-1
 136 1062 l 1,7,-1
 631 1062 l 1,0,-1
EndSplineSet
EndChar
StartChar: uni0492
Encoding: 1170 1170 1296
Width: 1109
Flags: W
LayerCount: 2
Fore
SplineSet
1109 1293 m 1,0,-1
 355 1293 l 1,1,-1
 355 799 l 1,2,-1
 756 799 l 1,3,-1
 756 667 l 1,4,-1
 355 667 l 1,5,-1
 355 0 l 1,6,-1
 161 0 l 1,7,-1
 161 667 l 1,8,-1
 -3 667 l 1,9,-1
 -3 799 l 1,10,-1
 161 799 l 1,11,-1
 161 1466 l 1,12,-1
 1109 1466 l 1,13,-1
 1109 1293 l 1,0,-1
EndSplineSet
EndChar
StartChar: uni0493
Encoding: 1171 1171 1297
Width: 747
Flags: W
LayerCount: 2
Fore
SplineSet
747 913 m 1,0,-1
 316 913 l 1,1,-1
 316 646 l 1,2,-1
 547 646 l 1,3,-1
 547 514 l 1,4,-1
 316 514 l 1,5,-1
 316 0 l 1,6,-1
 136 0 l 1,7,-1
 136 514 l 1,8,-1
 12 514 l 1,9,-1
 12 646 l 1,10,-1
 136 646 l 1,11,-1
 136 1062 l 1,12,-1
 747 1062 l 1,13,-1
 747 913 l 1,0,-1
EndSplineSet
EndChar
StartChar: uni0496
Encoding: 1174 1174 1298
Width: 1891
Flags: W
LayerCount: 2
Fore
SplineSet
1883 -407 m 1,0,-1
 1711 -407 l 1,1,-1
 1711 0 l 1,2,-1
 1642 0 l 1,3,-1
 1398 398 l 2,4,5
 1305 550 1305 550 1259 596 c 0,6,7
 1169 686 1169 686 1045 686 c 1,8,-1
 1045 0 l 1,9,-1
 846 0 l 1,10,-1
 846 686 l 1,11,12
 750 686 750 686 677 636 c 0,13,14
 611 591 611 591 505 418 c 1,15,-1
 506 420 l 2,16,17
 495 402 495 402 248 0 c 1,18,-1
 7 0 l 1,19,-1
 309 488 l 2,20,21
 447 711 447 711 589 750 c 1,22,23
 489 791 489 791 431 875 c 0,24,25
 395 926 395 926 341 1062 c 0,26,27
 278 1219 278 1219 232 1260 c 128,-1,28
 186 1301 186 1301 99 1299 c 2,29,-1
 21 1297 l 1,30,-1
 21 1465 l 1,31,32
 32 1467 32 1467 133 1467 c 0,33,34
 317 1467 317 1467 410 1329 c 0,35,36
 451 1269 451 1269 513 1123 c 0,37,38
 590 943 590 943 626 903 c 0,39,40
 694 826 694 826 846 824 c 1,41,-1
 846 1466 l 1,42,-1
 1045 1466 l 1,43,-1
 1045 824 l 1,44,45
 1195 824 1195 824 1265 903 c 0,46,47
 1302 945 1302 945 1378 1123 c 0,48,49
 1440 1268 1440 1268 1479 1327 c 0,50,51
 1572 1467 1572 1467 1751 1467 c 0,52,53
 1846 1467 1846 1467 1869 1465 c 1,54,-1
 1869 1297 l 1,55,56
 1856 1297 1856 1297 1830.5 1298 c 128,-1,57
 1805 1299 1805 1299 1792 1299 c 0,58,59
 1689 1299 1689 1299 1632 1228 c 0,60,61
 1600 1190 1600 1190 1549 1062 c 0,62,63
 1495 927 1495 927 1460 876 c 0,64,65
 1402 793 1402 793 1302 750 c 1,66,67
 1443 711 1443 711 1581 488 c 2,68,-1
 1776 173 l 1,69,-1
 1883 173 l 1,70,-1
 1883 -407 l 1,0,-1
EndSplineSet
EndChar
StartChar: uni0497
Encoding: 1175 1175 1299
Width: 1370
Flags: W
LayerCount: 2
Fore
SplineSet
1360 -301 m 1,0,-1
 1212 -301 l 1,1,-1
 1212 0 l 1,2,-1
 1178 0 l 1,3,-1
 985 329 l 2,4,5
 937 410 937 410 903 442 c 0,6,7
 850 491 850 491 777 491 c 1,8,-1
 777 0 l 1,9,-1
 593 0 l 1,10,-1
 593 491 l 1,11,12
 519 491 519 491 467 443 c 0,13,14
 435 412 435 412 386 329 c 2,15,-1
 193 0 l 1,16,-1
 -5 0 l 1,17,-1
 192 329 l 2,18,19
 303 514 303 514 421 545 c 1,20,21
 331 586 331 586 286 662 c 0,22,23
 269 690 269 690 213 833 c 0,24,25
 193 884 193 884 169 899 c 128,-1,26
 145 914 145 914 89 914 c 0,27,28
 76 914 76 914 36 913 c 1,29,-1
 36 1062 l 1,30,-1
 61 1062 l 2,31,32
 167 1062 167 1062 208 1050 c 0,33,34
 265 1033 265 1033 311 958 c 0,35,36
 330 926 330 926 371 828 c 0,37,38
 428 692 428 692 445 669 c 0,39,40
 494 603 494 603 593 603 c 1,41,-1
 593 1062 l 1,42,-1
 777 1062 l 1,43,-1
 777 603 l 1,44,45
 877 603 877 603 925 668 c 0,46,47
 943 692 943 692 999.5 827 c 128,-1,48
 1056 962 1056 962 1093 1001 c 0,49,50
 1151 1062 1151 1062 1269 1062 c 2,51,-1
 1335 1062 l 1,52,-1
 1335 913 l 1,53,-1
 1286 914 l 2,54,55
 1210 916 1210 916 1180 875 c 0,56,57
 1169 861 1169 861 1130 762 c 0,58,59
 1093 667 1093 667 1066 631 c 0,60,61
 1028 581 1028 581 950 545 c 1,62,63
 1067 514 1067 514 1178 329 c 2,64,-1
 1287 148 l 1,65,-1
 1360 148 l 1,66,-1
 1360 -301 l 1,0,-1
EndSplineSet
EndChar
StartChar: uni049A
Encoding: 1178 1178 1300
Width: 1193
Flags: W
LayerCount: 2
Fore
SplineSet
1186 -407 m 1,0,-1
 1014 -407 l 1,1,-1
 1014 0 l 1,2,-1
 945 0 l 1,3,-1
 700 398 l 2,4,5
 608 548 608 548 564 594 c 0,6,7
 474 686 474 686 355 686 c 1,8,-1
 355 0 l 1,9,-1
 161 0 l 1,10,-1
 161 1466 l 1,11,-1
 355 1466 l 1,12,-1
 355 824 l 1,13,14
 499 824 499 824 569 906 c 0,15,16
 606 949 606 949 680 1123 c 0,17,18
 742 1268 742 1268 781 1327 c 0,19,20
 874 1467 874 1467 1054 1467 c 0,21,22
 1166 1467 1166 1467 1172 1465 c 1,23,-1
 1172 1297 l 1,24,25
 1159 1297 1159 1297 1133 1298 c 128,-1,26
 1107 1299 1107 1299 1094 1299 c 0,27,28
 991 1299 991 1299 934 1228 c 0,29,30
 902 1189 902 1189 851 1062 c 0,31,32
 796 923 796 923 762 874 c 0,33,34
 705 791 705 791 604 750 c 1,35,36
 746 711 746 711 884 488 c 2,37,-1
 1079 173 l 1,38,-1
 1186 173 l 1,39,-1
 1186 -407 l 1,0,-1
EndSplineSet
EndChar
StartChar: uni049B
Encoding: 1179 1179 1301
Width: 896
Flags: W
LayerCount: 2
Fore
SplineSet
886 -301 m 1,0,-1
 738 -301 l 1,1,-1
 738 0 l 1,2,-1
 714 0 l 1,3,-1
 522 329 l 2,4,5
 475 410 475 410 440 442 c 0,6,7
 387 491 387 491 314 491 c 1,8,-1
 314 0 l 1,9,-1
 134 0 l 1,10,-1
 134 1062 l 1,11,-1
 314 1062 l 1,12,-1
 314 603 l 1,13,14
 414 603 414 603 462 668 c 0,15,16
 478 689 478 689 536 828 c 0,17,18
 576 924 576 924 596 956 c 0,19,20
 640 1029 640 1029 698 1048 c 0,21,22
 741 1062 741 1062 836 1062 c 2,23,-1
 872 1062 l 1,24,-1
 872 913 l 1,25,-1
 822 914 l 2,26,27
 747 915 747 915 716 875 c 0,28,29
 706 862 706 862 667 762 c 0,30,31
 630 668 630 668 602 631 c 0,32,33
 564 581 564 581 487 545 c 1,34,35
 604 514 604 514 715 329 c 2,36,-1
 824 148 l 1,37,-1
 886 148 l 1,38,-1
 886 -301 l 1,0,-1
EndSplineSet
EndChar
StartChar: uni049C
Encoding: 1180 1180 1302
Width: 1193
Flags: W
LayerCount: 2
Fore
SplineSet
1186 0 m 1,0,-1
 945 0 l 1,1,-1
 700 398 l 2,2,3
 642 493 642 493 595 553 c 1,4,-1
 595 239 l 1,5,-1
 475 239 l 1,6,-1
 475 662 l 1,7,8
 424 686 424 686 355 686 c 1,9,-1
 355 0 l 1,10,-1
 161 0 l 1,11,-1
 161 1466 l 1,12,-1
 355 1466 l 1,13,-1
 355 824 l 1,14,15
 426 824 426 824 475 839 c 1,16,-1
 475 1242 l 1,17,-1
 595 1242 l 1,18,-1
 595 948 l 1,19,20
 633 1013 633 1013 680 1123 c 0,21,22
 735 1253 735 1253 761 1295 c 0,23,24
 815 1383 815 1383 893 1427 c 0,25,26
 965 1467 965 1467 1054 1467 c 0,27,28
 1166 1467 1166 1467 1172 1465 c 1,29,-1
 1172 1297 l 1,30,31
 1159 1297 1159 1297 1133 1298 c 128,-1,32
 1107 1299 1107 1299 1094 1299 c 0,33,34
 991 1299 991 1299 934 1228 c 0,35,36
 902 1189 902 1189 851 1062 c 0,37,38
 796 923 796 923 762 874 c 0,39,40
 705 791 705 791 604 750 c 1,41,42
 746 711 746 711 884 488 c 2,43,-1
 1186 0 l 1,0,-1
EndSplineSet
EndChar
StartChar: uni049D
Encoding: 1181 1181 1303
Width: 896
Flags: W
LayerCount: 2
Fore
SplineSet
912 0 m 1,0,-1
 714 0 l 1,1,-1
 522 329 l 2,2,3
 508 353 508 353 491 378 c 1,4,-1
 491 164 l 1,5,-1
 392 164 l 1,6,-1
 392 475 l 1,7,8
 357 491 357 491 314 491 c 1,9,-1
 314 0 l 1,10,-1
 134 0 l 1,11,-1
 134 1062 l 1,12,-1
 314 1062 l 1,13,-1
 314 603 l 1,14,15
 359 603 359 603 392 613 c 1,16,-1
 392 937 l 1,17,-1
 491 937 l 1,18,-1
 491 728 l 1,19,20
 512 771 512 771 536 828 c 0,21,22
 576 924 576 924 596 956 c 0,23,24
 640 1029 640 1029 698 1048 c 0,25,26
 741 1062 741 1062 836 1062 c 2,27,-1
 872 1062 l 1,28,-1
 872 913 l 1,29,-1
 822 914 l 2,30,31
 747 915 747 915 716 875 c 0,32,33
 706 862 706 862 667 762 c 0,34,35
 626 658 626 658 592 618 c 0,36,37
 551 570 551 570 497 545 c 1,38,39
 603 517 603 517 715 329 c 2,40,-1
 912 0 l 1,0,-1
EndSplineSet
EndChar
StartChar: uni04A2
Encoding: 1186 1186 1304
Width: 1479
Flags: W
LayerCount: 2
Fore
SplineSet
1448 -407 m 1,0,-1
 1276 -407 l 1,1,-1
 1276 0 l 1,2,-1
 1120 0 l 1,3,-1
 1120 691 l 1,4,-1
 358 691 l 1,5,-1
 358 0 l 1,6,-1
 164 0 l 1,7,-1
 164 1466 l 1,8,-1
 358 1466 l 1,9,-1
 358 864 l 1,10,-1
 1120 864 l 1,11,-1
 1120 1466 l 1,12,-1
 1314 1466 l 1,13,-1
 1314 173 l 1,14,-1
 1448 173 l 1,15,-1
 1448 -407 l 1,0,-1
EndSplineSet
EndChar
StartChar: uni04A3
Encoding: 1187 1187 1305
Width: 1131
Flags: W
LayerCount: 2
Fore
SplineSet
1111 -301 m 1,0,-1
 963 -301 l 1,1,-1
 963 0 l 1,2,-1
 815 0 l 1,3,-1
 815 471 l 1,4,-1
 316 471 l 1,5,-1
 316 0 l 1,6,-1
 136 0 l 1,7,-1
 136 1062 l 1,8,-1
 316 1062 l 1,9,-1
 316 620 l 1,10,-1
 815 620 l 1,11,-1
 815 1062 l 1,12,-1
 995 1062 l 1,13,-1
 995 148 l 1,14,-1
 1111 148 l 1,15,-1
 1111 -301 l 1,0,-1
EndSplineSet
EndChar
StartChar: uni04AE
Encoding: 1198 1198 1306
Width: 1139
Flags: W
LayerCount: 2
Fore
SplineSet
1133 1466 m 1,0,-1
 657 626 l 1,1,-1
 657 0 l 1,2,-1
 477 0 l 1,3,-1
 477 626 l 1,4,-1
 -3 1466 l 1,5,-1
 197 1466 l 1,6,-1
 487 950 l 2,7,8
 535 865 535 865 563 796 c 1,9,10
 588 853 588 853 645 959 c 2,11,-1
 919 1466 l 1,12,-1
 1133 1466 l 1,0,-1
EndSplineSet
EndChar
StartChar: uni04AF
Encoding: 1199 1199 1307
Width: 1024
Flags: W
LayerCount: 2
Fore
SplineSet
1005 1062 m 1,0,-1
 603 0 l 1,1,-1
 603 -407 l 1,2,-1
 423 -407 l 1,3,-1
 423 0 l 1,4,-1
 20 1062 l 1,5,-1
 214 1062 l 1,6,-1
 435 447 l 2,7,8
 481 320 481 320 512 201 c 1,9,10
 541 310 541 310 590 447 c 2,11,-1
 811 1062 l 1,12,-1
 1005 1062 l 1,0,-1
EndSplineSet
EndChar
StartChar: uni04B0
Encoding: 1200 1200 1308
Width: 1139
Flags: W
LayerCount: 2
Fore
SplineSet
1133 1466 m 1,0,-1
 728 755 l 1,1,-1
 1069 755 l 1,2,-1
 1069 607 l 1,3,-1
 657 607 l 1,4,-1
 657 0 l 1,5,-1
 477 0 l 1,6,-1
 477 607 l 1,7,-1
 62 607 l 1,8,-1
 62 755 l 1,9,-1
 403 755 l 1,10,-1
 -3 1466 l 1,11,-1
 197 1466 l 1,12,-1
 487 950 l 2,13,14
 535 865 535 865 563 796 c 1,15,16
 588 853 588 853 645 959 c 2,17,-1
 919 1466 l 1,18,-1
 1133 1466 l 1,0,-1
EndSplineSet
EndChar
StartChar: uni04B1
Encoding: 1201 1201 1309
Width: 1024
Flags: W
LayerCount: 2
Fore
SplineSet
1005 1062 m 1,0,-1
 603 0 l 1,1,-1
 925 0 l 1,2,-1
 925 -132 l 1,3,-1
 603 -132 l 1,4,-1
 603 -407 l 1,5,-1
 423 -407 l 1,6,-1
 423 -132 l 1,7,-1
 100 -132 l 1,8,-1
 100 0 l 1,9,-1
 423 0 l 1,10,-1
 20 1062 l 1,11,-1
 214 1062 l 1,12,-1
 435 447 l 2,13,14
 481 320 481 320 512 201 c 1,15,16
 541 310 541 310 590 447 c 2,17,-1
 811 1062 l 1,18,-1
 1005 1062 l 1,0,-1
EndSplineSet
EndChar
StartChar: uni04B2
Encoding: 1202 1202 1310
Width: 1366
Flags: W
LayerCount: 2
Fore
SplineSet
1353 -407 m 1,0,-1
 1181 -407 l 1,1,-1
 1181 0 l 1,2,-1
 1113 0 l 1,3,-1
 744 523 l 2,4,5
 719 559 719 559 680 621 c 1,6,7
 628 535 628 535 610 511 c 2,8,-1
 242 0 l 1,9,-1
 9 0 l 1,10,-1
 576 764 l 1,11,-1
 76 1466 l 1,12,-1
 307 1466 l 1,13,-1
 573 1090 l 2,14,15
 657 971 657 971 691 910 c 1,16,17
 736 983 736 983 807 1077 c 2,18,-1
 1102 1466 l 1,19,-1
 1313 1466 l 1,20,-1
 798 775 l 1,21,-1
 1228 173 l 1,22,-1
 1353 173 l 1,23,-1
 1353 -407 l 1,0,-1
EndSplineSet
EndChar
StartChar: uni04B3
Encoding: 1203 1203 1311
Width: 1024
Flags: W
LayerCount: 2
Fore
SplineSet
1009 -301 m 1,0,-1
 861 -301 l 1,1,-1
 861 0 l 1,2,-1
 788 0 l 1,3,-1
 512 419 l 1,4,-1
 233 0 l 1,5,-1
 15 0 l 1,6,-1
 403 552 l 1,7,-1
 44 1062 l 1,8,-1
 269 1062 l 1,9,-1
 432 813 l 2,10,11
 474 749 474 749 506 694 c 1,12,13
 541 746 541 746 587 811 c 2,14,-1
 766 1062 l 1,15,-1
 981 1062 l 1,16,-1
 614 562 l 1,17,-1
 906 148 l 1,18,-1
 1009 148 l 1,19,-1
 1009 -301 l 1,0,-1
EndSplineSet
EndChar
StartChar: uni04B8
Encoding: 1208 1208 1312
Width: 1365
Flags: W
LayerCount: 2
Fore
SplineSet
1204 0 m 1,0,-1
 1010 0 l 1,1,-1
 1010 591 l 1,2,3
 848 531 848 531 710 508 c 1,4,-1
 710 229 l 1,5,-1
 590 229 l 1,6,-1
 590 495 l 1,7,8
 568 494 568 494 553 494 c 0,9,10
 415 494 415 494 299 556 c 0,11,12
 171 626 171 626 127 747 c 0,13,14
 87 858 87 858 87 1035 c 2,15,-1
 87 1466 l 1,16,-1
 281 1466 l 1,17,-1
 281 1053 l 2,18,19
 281 814 281 814 369.5 737.5 c 128,-1,20
 458 661 458 661 579 662 c 2,21,-1
 590 662 l 1,22,-1
 590 1112 l 1,23,-1
 710 1112 l 1,24,-1
 710 671 l 1,25,26
 855 691 855 691 1010 753 c 1,27,-1
 1010 1466 l 1,28,-1
 1204 1466 l 1,29,-1
 1204 0 l 1,0,-1
EndSplineSet
EndChar
